<svg width="40" height="40" viewBox="0 0 40 40" fill="none" xmlns="http://www.w3.org/2000/svg">
<rect width="40" height="40" rx="5" fill="#FFAD9B"/>
<path d="M29 29V27C29 25.1362 27.7252 23.5701 26 23.126M22.5 11.2908C23.9659 11.8841 25 13.3213 25 15C25 16.6787 23.9659 18.1159 22.5 18.7092M24 29C24 27.1362 24 26.2044 23.6955 25.4693C23.2895 24.4892 22.5108 23.7105 21.5307 23.3045C20.7956 23 19.8638 23 18 23H15C13.1362 23 12.2044 23 11.4693 23.3045C10.4892 23.7105 9.71046 24.4892 9.30448 25.4693C9 26.2044 9 27.1362 9 29M20.5 15C20.5 17.2091 18.7091 19 16.5 19C14.2909 19 12.5 17.2091 12.5 15C12.5 12.7909 14.2909 11 16.5 11C18.7091 11 20.5 12.7909 20.5 15Z" stroke="#150E3F" stroke-linecap="round" stroke-linejoin="round"/>
</svg>
