<svg width="22" height="22" viewBox="0 0 22 22" fill="none" xmlns="http://www.w3.org/2000/svg">
<path d="M16.5556 7.66667L10.5174 13.7048C10.2974 13.9248 10.1874 14.0348 10.0606 14.076C9.94899 14.1123 9.82879 14.1123 9.71721 14.076C9.59036 14.0348 9.48036 13.9248 9.26035 13.7048L7.1841 11.6285C6.96409 11.4085 6.85408 11.2985 6.72723 11.2573C6.61565 11.2211 6.49546 11.2211 6.38388 11.2573C6.25703 11.2985 6.14703 11.4085 5.92702 11.6285L1 16.5556M16.5556 7.66667H12.1111M16.5556 7.66667V12.1111M6.33333 21H15.6667C17.5335 21 18.4669 21 19.18 20.6367C19.8072 20.3171 20.3171 19.8072 20.6367 19.18C21 18.4669 21 17.5335 21 15.6667V6.33333C21 4.46649 21 3.53307 20.6367 2.82003C20.3171 2.19282 19.8072 1.68289 19.18 1.36331C18.4669 1 17.5335 1 15.6667 1H6.33333C4.46649 1 3.53307 1 2.82003 1.36331C2.19282 1.68289 1.68289 2.19282 1.36331 2.82003C1 3.53307 1 4.46649 1 6.33333V15.6667C1 17.5335 1 18.4669 1.36331 19.18C1.68289 19.8072 2.19282 20.3171 2.82003 20.6367C3.53307 21 4.46649 21 6.33333 21Z" stroke="#150E3F" stroke-width="1.5" stroke-linecap="round" stroke-linejoin="round"/>
</svg>
