<svg width="40" height="40" viewBox="0 0 40 40" fill="none" xmlns="http://www.w3.org/2000/svg">
<rect width="40" height="40" rx="5" fill="#FFAD9B"/>
<path d="M11.2 30.9C11.2 30.2867 11.2 29.98 11.2507 29.725C11.459 28.6777 12.2777 27.859 13.325 27.6507C13.58 27.6 13.8867 27.6 14.5 27.6M11.2 16.6V17.7C11.2 18.3133 11.2 18.62 11.2507 18.875C11.459 19.9223 12.2777 20.741 13.325 20.9493C13.58 21 13.8867 21 14.5 21M28.8 30.9C28.8 30.2867 28.8 29.98 28.7493 29.725C28.541 28.6777 27.7223 27.859 26.675 27.6507C26.42 27.6 26.1133 27.6 25.5 27.6M28.8 16.6V17.7C28.8 18.3133 28.8 18.62 28.7493 18.875C28.541 19.9223 27.7223 20.741 26.675 20.9493C26.42 21 26.1133 21 25.5 21M31 24.3H25.5M25.5 24.3V22.32C25.5 20.6607 25.5 19.831 24.9845 19.3155C24.469 18.8 23.6393 18.8 21.98 18.8H18.02C16.3607 18.8 15.531 18.8 15.0155 19.3155C14.5 19.831 14.5 20.6607 14.5 22.32V24.3M25.5 24.3C25.5 26.147 25.5 27.0704 25.162 27.785C24.8139 28.5212 24.2212 29.1139 23.485 29.462C22.7704 29.8 21.847 29.8 20 29.8C18.153 29.8 17.2296 29.8 16.515 29.462C15.7788 29.1139 15.1861 28.5212 14.838 27.785C14.5 27.0704 14.5 26.147 14.5 24.3M14.5 24.3H9M16.7 10L18.9 13.3M23.3 10L21.1 13.3M20 18.8V23.2M23.3 18.8V16.6C23.3 15.1535 23.3 14.4303 22.9005 13.9435C22.8274 13.8544 22.7456 13.7726 22.6565 13.6995C22.1697 13.3 21.4465 13.3 20 13.3C18.5535 13.3 17.8303 13.3 17.3435 13.6995C17.2544 13.7726 17.1726 13.8544 17.0995 13.9435C16.7 14.4303 16.7 15.1535 16.7 16.6V18.8H23.3Z" stroke="#150E3F"/>
</svg>
