<svg width="20" height="20" viewBox="0 0 20 20" fill="none" xmlns="http://www.w3.org/2000/svg">
<path d="M3.70013 11.8H15.5223C16.4338 11.8 16.8896 11.8 17.2524 11.6301C17.572 11.4803 17.8406 11.24 18.0247 10.9388C18.2337 10.597 18.284 10.144 18.3847 9.23804L18.9112 4.49951C18.9419 4.22279 18.9573 4.08444 18.9128 3.97734C18.8737 3.88329 18.8039 3.80527 18.7147 3.75605C18.6132 3.7 18.474 3.7 18.1956 3.7H3.25013M1 1H2.1236C2.36176 1 2.48084 1 2.574 1.04529C2.65602 1.08517 2.72398 1.14902 2.76889 1.22839C2.81991 1.31854 2.82734 1.43739 2.84219 1.67509L3.65781 14.7249C3.67266 14.9626 3.68009 15.0815 3.73111 15.1716C3.77602 15.251 3.84398 15.3148 3.926 15.3547C4.01916 15.4 4.13824 15.4 4.3764 15.4H16.3M5.95 18.55H5.959M14.05 18.55H14.059M6.4 18.55C6.4 18.7985 6.19853 19 5.95 19C5.70147 19 5.5 18.7985 5.5 18.55C5.5 18.3015 5.70147 18.1 5.95 18.1C6.19853 18.1 6.4 18.3015 6.4 18.55ZM14.5 18.55C14.5 18.7985 14.2985 19 14.05 19C13.8015 19 13.6 18.7985 13.6 18.55C13.6 18.3015 13.8015 18.1 14.05 18.1C14.2985 18.1 14.5 18.3015 14.5 18.55Z" stroke="#150E3F" stroke-width="1.5" stroke-linecap="round" stroke-linejoin="round"/>
</svg>
