<svg width="40" height="40" viewBox="0 0 40 40" fill="none" xmlns="http://www.w3.org/2000/svg">
<rect width="40" height="40" rx="5" fill="#EEEEEE"/>
<path d="M20 15.6C17.5699 15.6 15.6 17.5699 15.6 20C15.6 22.4301 17.5699 24.4 20 24.4C22.4301 24.4 24.4 22.4301 24.4 20C24.4 17.5699 22.4301 15.6 20 15.6ZM20 15.6H30.087M11.1441 13.4661L16.1931 22.2001M18.7668 30.934L23.8048 22.2M31 20C31 26.0751 26.0751 31 20 31C13.9249 31 9 26.0751 9 20C9 13.9249 13.9249 9 20 9C26.0751 9 31 13.9249 31 20Z" stroke="#A2A6B4" stroke-linecap="round" stroke-linejoin="round"/>
</svg>
