<svg width="20" height="20" viewBox="0 0 20 20" fill="none" xmlns="http://www.w3.org/2000/svg">
<path d="M3.98467 16.6946C4.53216 15.4047 5.81043 14.5 7.3 14.5H12.7C14.1896 14.5 15.4678 15.4047 16.0153 16.6946M13.6 7.75C13.6 9.73822 11.9882 11.35 10 11.35C8.01177 11.35 6.4 9.73822 6.4 7.75C6.4 5.76177 8.01177 4.15 10 4.15C11.9882 4.15 13.6 5.76177 13.6 7.75ZM19 10C19 14.9706 14.9706 19 10 19C5.02944 19 1 14.9706 1 10C1 5.02944 5.02944 1 10 1C14.9706 1 19 5.02944 19 10Z" stroke="#2F80ED" stroke-width="1.4" stroke-linecap="round" stroke-linejoin="round"/>
</svg>
