<svg width="40" height="40" viewBox="0 0 40 40" fill="none" xmlns="http://www.w3.org/2000/svg">
<rect width="40" height="40" rx="5" fill="#BFF2C1"/>
<circle cx="20" cy="29" r="1" fill="#150E3F"/>
<rect x="12.5" y="7.5" width="15" height="25" rx="1.5" stroke="#150E3F"/>
<path d="M24.5 8.33398V7.83398H24H16H15.5V8.33398V8.66732C15.5 8.67639 15.5 8.68546 15.5 8.69452C15.5 8.90656 15.4999 9.11262 15.5228 9.28258C15.5485 9.47418 15.6113 9.69282 15.7929 9.87442C15.9745 10.056 16.1931 10.1188 16.3847 10.1446C16.5547 10.1674 16.7608 10.1674 16.9728 10.1673C16.9819 10.1673 16.9909 10.1673 17 10.1673H23C23.0091 10.1673 23.0181 10.1673 23.0272 10.1673C23.2392 10.1674 23.4453 10.1674 23.6153 10.1446C23.8069 10.1188 24.0255 10.056 24.2071 9.87442C24.3887 9.69282 24.4515 9.47418 24.4772 9.28258C24.5001 9.11262 24.5 8.90655 24.5 8.69451C24.5 8.68546 24.5 8.67639 24.5 8.66732V8.33398Z" stroke="#150E3F"/>
</svg>
