<svg width="13" height="14" viewBox="0 0 13 14" fill="none" xmlns="http://www.w3.org/2000/svg">
<path d="M4.6 8.8H8.2M11.8 4.6H1M8.8 1V2.8M4 1V2.8M3.88 13H8.92C9.92809 13 10.4321 13 10.8172 12.8038C11.1559 12.6312 11.4312 12.3559 11.6038 12.0172C11.8 11.6321 11.8 11.1281 11.8 10.12V5.08C11.8 4.07191 11.8 3.56786 11.6038 3.18282C11.4312 2.84413 11.1559 2.56876 10.8172 2.39619C10.4321 2.2 9.9281 2.2 8.92 2.2H3.88C2.87191 2.2 2.36786 2.2 1.98282 2.39619C1.64413 2.56876 1.36876 2.84413 1.19619 3.18282C1 3.56786 1 4.07191 1 5.08V10.12C1 11.1281 1 11.6321 1.19619 12.0172C1.36876 12.3559 1.64413 12.6312 1.98282 12.8038C2.36786 13 2.87191 13 3.88 13Z" stroke="#55526B" stroke-linecap="round" stroke-linejoin="round"/>
</svg>
