<svg width="28" height="28" viewBox="0 0 28 28" fill="none" xmlns="http://www.w3.org/2000/svg">
<g clip-path="url(#clip0_4632_300)">
<path d="M12.5426 24.2469C7.62639 23.3671 3.90039 19.1236 3.90039 14.0004C3.90039 8.30789 8.55789 3.65039 14.2504 3.65039C19.9429 3.65039 24.6004 8.30789 24.6004 14.0004C24.6004 19.1236 20.8744 23.3671 15.9581 24.2469L15.3889 23.7811H13.1119L12.5426 24.2469Z" fill="#2886FF"/>
<path d="M18.2859 16.899L18.7516 14.001H16.0089V11.9827C16.0089 11.1547 16.3194 10.5337 17.5614 10.5337H18.9069V7.8945C18.1824 7.791 17.3544 7.6875 16.6299 7.6875C14.2494 7.6875 12.5934 9.1365 12.5934 11.724V14.001H10.0059V16.899H12.5934V24.1958C13.1626 24.2992 13.7319 24.351 14.3011 24.351C14.8704 24.351 15.4396 24.2992 16.0089 24.1958V16.899H18.2859Z" fill="white"/>
</g>
<defs>
<clipPath id="clip0_4632_300">
<rect width="20.7" height="20.7" fill="white" transform="translate(3.90039 3.65039)"/>
</clipPath>
</defs>
</svg>
