<svg width="45" height="45" viewBox="0 0 45 45" fill="none" xmlns="http://www.w3.org/2000/svg">
<rect width="45" height="45" rx="22.5" fill="white"/>
<path d="M35.5043 27.1546C35.5204 27.6033 35.4732 28.0458 35.4085 28.4903C35.3289 29.0373 35.1888 29.5671 34.9967 30.0802C34.7372 30.7734 34.3945 31.4259 33.9542 32.0265C33.6392 32.4563 33.2964 32.8593 32.9094 33.2239C32.4812 33.6275 32.0183 33.9867 31.5124 34.2898C30.9062 34.6529 30.2724 34.9554 29.5892 35.1404C29.2023 35.2452 28.8091 35.3304 28.4152 35.4056C27.8271 35.5178 27.229 35.5101 26.6357 35.4829C26.0111 35.4542 25.3965 35.3357 24.7957 35.154C24.3168 35.0091 23.8499 34.837 23.411 34.5936C23.2836 34.5228 23.1509 34.4614 23.008 34.385C22.9722 34.354 22.9515 34.3297 22.9256 34.314C22.4235 34.011 21.9536 33.6664 21.5236 33.2656C20.9626 32.7425 20.4741 32.16 20.0756 31.5056C19.5979 30.721 19.2326 29.8864 19.0612 28.9798C18.9735 28.5152 18.9241 28.0432 18.863 27.5738C18.8454 27.4382 18.8471 27.3001 18.8518 27.1606C18.8856 27.1561 18.9077 27.1525 18.9297 27.1525C21.3374 27.1524 23.7451 27.1527 26.1528 27.1517C26.2362 27.1516 26.3197 27.138 26.414 27.129C26.6908 27.1358 26.9566 27.1514 27.2224 27.1517C29.983 27.1541 32.7437 27.154 35.5043 27.1546Z" fill="#A358FD"/>
<path d="M22.9946 11.5963C23.1336 11.5301 23.2758 11.4699 23.411 11.3967C24.0707 11.0396 24.7735 10.8042 25.5078 10.665C25.8352 10.6029 26.1676 10.5562 26.4999 10.5335C26.9005 10.506 27.3047 10.488 27.705 10.5095C28.0758 10.5294 28.444 10.6044 28.8127 10.6596C29.4034 10.7481 29.9662 10.9413 30.5096 11.1762C31.0344 11.4031 31.5378 11.6804 32.0028 12.0188C32.4565 12.3489 32.8828 12.7111 33.2651 13.1224C33.6584 13.5457 34.0119 14.0002 34.3094 14.4968C34.6734 15.1043 34.9767 15.7398 35.1607 16.4252C35.2644 16.8115 35.3641 17.2017 35.4218 17.5966C35.4791 17.9896 35.4815 18.3908 35.4939 18.8008C33.1482 18.8133 30.8165 18.8131 28.4849 18.8143C28.411 18.8144 28.3371 18.8285 28.2632 18.836C28.1828 18.8375 28.1024 18.839 27.9975 18.8409C27.9243 18.8405 27.8755 18.8391 27.8267 18.8391C25.2001 18.8384 22.5735 18.8376 19.9469 18.8375C19.5832 18.8375 19.2195 18.841 18.8552 18.8439C18.8547 18.845 18.8526 18.844 18.8544 18.8313C18.86 18.6056 18.8442 18.3902 18.8712 18.1802C18.9334 17.6961 18.9719 17.2065 19.1247 16.7383C19.2517 16.349 19.3598 15.9512 19.5197 15.5756C19.6764 15.2076 19.8703 14.8521 20.0802 14.511C20.3035 14.1482 20.5438 13.7914 20.8148 13.4635C21.1492 13.0589 21.5181 12.6807 21.9429 12.3665C22.2337 12.1515 22.5363 11.9526 22.8315 11.7436C22.8909 11.7015 22.9405 11.6458 22.9946 11.5963Z" fill="#FFCA61"/>
<path d="M18.8561 18.8434C19.2198 18.8415 19.5832 18.8375 19.9469 18.8375C22.5735 18.8376 25.2001 18.8384 27.8267 18.8391C27.8755 18.8391 27.9246 18.8409 27.9859 18.8427C28.1501 18.8694 28.3027 18.8911 28.4535 18.9213C28.8018 18.991 29.1541 19.0471 29.4961 19.1406C30.0877 19.3025 30.6498 19.5451 31.1881 19.8389C31.6267 20.0781 32.0436 20.3522 32.4259 20.6749C32.6555 20.8687 32.8937 21.0566 33.0977 21.2755C33.3896 21.5888 33.6626 21.9211 33.9274 22.258C34.2444 22.6612 34.4941 23.1083 34.7131 23.5711C35.0256 24.2312 35.2524 24.9186 35.3787 25.6408C35.465 26.1348 35.52 26.6287 35.506 27.1426C32.7439 27.1546 29.983 27.1541 27.2224 27.1517C26.9566 27.1514 26.6909 27.1364 26.4033 27.1255C26.3511 27.1172 26.3209 27.1088 26.2902 27.1059C25.6434 27.044 25.016 26.9003 24.4031 26.6828C23.2982 26.2907 22.3181 25.6963 21.4678 24.8908C21.0232 24.4697 20.632 24.0036 20.2843 23.4961C19.7499 22.716 19.3705 21.8694 19.1277 20.9603C18.9427 20.268 18.8459 19.562 18.8561 18.8434Z" fill="#FF613B"/>
<path d="M18.8552 18.8439C18.8457 19.5614 18.9427 20.268 19.1277 20.9603C19.3705 21.8694 19.7499 22.716 20.2843 23.4961C20.632 24.0036 21.0232 24.4697 21.4678 24.8908C22.3181 25.6963 23.2982 26.2907 24.4031 26.6828C25.016 26.9003 25.6434 27.044 26.2902 27.1059C26.3209 27.1088 26.351 27.1168 26.3923 27.1268C26.3197 27.1382 26.2362 27.1516 26.1528 27.1517C23.7451 27.1527 21.3374 27.1524 18.9297 27.1525C18.9077 27.1525 18.8857 27.1563 18.8386 27.1589C18.5539 27.1565 18.2942 27.1535 18.0345 27.1505C17.8786 27.1242 17.722 27.1017 17.567 27.0709C17.2407 27.006 16.9115 26.9508 16.5903 26.8662C15.9868 26.7074 15.4157 26.4624 14.8672 26.1657C14.4202 25.9239 13.9958 25.6469 13.6066 25.3196C13.3743 25.1242 13.1347 24.934 12.9261 24.715C12.6739 24.4503 12.4505 24.1579 12.2153 23.8769C11.8505 23.4414 11.5689 22.9517 11.3263 22.4427C11.0075 21.7737 10.774 21.0755 10.65 20.3398C10.5673 19.8496 10.512 19.3603 10.5367 18.8512C13.2471 18.8384 15.9436 18.8381 18.64 18.838C18.711 18.838 18.7818 18.8419 18.8527 18.844C18.8527 18.844 18.8547 18.845 18.8552 18.8439Z" fill="#63D8C2"/>
<path d="M18.0207 27.1525C18.2928 27.1544 18.5524 27.1574 18.8254 27.1623C18.8458 27.3011 18.844 27.4392 18.8616 27.5748C18.9228 28.0442 18.9721 28.5162 19.0599 28.9809C19.2313 29.8874 19.5965 30.722 20.0742 31.5066C20.4727 32.161 20.9612 32.7435 21.5223 33.2666C21.9522 33.6674 22.4221 34.012 22.9242 34.315C22.9501 34.3307 22.9709 34.355 22.9977 34.384C22.6713 34.5543 22.3441 34.7218 22.0106 34.876C21.5243 35.1008 21.008 35.2358 20.4851 35.3395C20.1867 35.3986 19.8824 35.4371 19.5789 35.459C19.2268 35.4842 18.872 35.4979 18.5196 35.4852C18.189 35.4733 17.8598 35.4214 17.5302 35.3851C16.8294 35.3079 16.1664 35.0886 15.5237 34.8152C14.9953 34.5904 14.4925 34.3098 14.0256 33.9719C13.5766 33.647 13.1543 33.29 12.7768 32.8834C12.3361 32.4089 11.9449 31.8971 11.6245 31.3324C11.3063 30.7717 11.0338 30.1906 10.8682 29.5666C10.7628 29.1697 10.6693 28.7674 10.6061 28.3619C10.545 27.9695 10.5295 27.5699 10.4922 27.1538C13.0221 27.1538 15.5151 27.1538 18.0207 27.1525Z" fill="#FF613B"/>
<path d="M18.8534 18.8334C18.7807 18.8439 18.7098 18.84 18.6389 18.84C15.9424 18.8401 13.246 18.8405 10.5373 18.8407C10.5095 18.3924 10.5556 17.9505 10.6204 17.5063C10.7 16.961 10.8362 16.432 11.033 15.9225C11.193 15.5081 11.3951 15.108 11.6045 14.7154C11.7633 14.4178 11.9569 14.1379 12.1467 13.8581C12.2539 13.7 12.3787 13.5527 12.5062 13.41C12.6737 13.2224 12.8467 13.0391 13.0261 12.863C13.4799 12.4177 13.9785 12.0307 14.5236 11.7008C15.1333 11.3318 15.7775 11.0439 16.459 10.8401C16.9187 10.7027 17.3859 10.5895 17.8661 10.5606C18.3673 10.5305 18.8702 10.5029 19.3716 10.5117C19.6946 10.5174 20.0204 10.5716 20.3378 10.638C20.7654 10.7274 21.193 10.8283 21.6075 10.964C21.9506 11.0762 22.2757 11.244 22.6069 11.3914C22.7353 11.4485 22.8587 11.517 22.9889 11.5894C22.9395 11.6479 22.8899 11.7036 22.8305 11.7457C22.5353 11.9547 22.2327 12.1536 21.9419 12.3686C21.5171 12.6828 21.1482 13.061 20.8138 13.4656C20.5427 13.7935 20.3024 14.1503 20.0792 14.5131C19.8693 14.8542 19.6754 15.2097 19.5187 15.5777C19.3588 15.9533 19.2507 16.3511 19.1237 16.7404C18.9709 17.2086 18.9324 17.6982 18.8702 18.1823C18.8432 18.3923 18.8589 18.6077 18.8534 18.8334Z" fill="#FF81B2"/>
<path d="M28.275 18.8394C28.3366 18.8299 28.4105 18.8158 28.4844 18.8158C30.816 18.8146 33.1476 18.8147 35.4914 18.8145C35.4651 18.8236 35.4266 18.8407 35.388 18.8407C33.0211 18.8418 30.6542 18.8416 28.275 18.8394Z" fill="#F2CD77"/>
</svg>
