<svg width="40" height="40" viewBox="0 0 40 40" fill="none" xmlns="http://www.w3.org/2000/svg">
<rect width="40" height="40" rx="5" fill="#FFEB9A"/>
<path d="M24.4 29.8V12.2C24.4 11.6165 24.1682 11.0569 23.7556 10.6444C23.3431 10.2318 22.7835 10 22.2 10H17.8C17.2165 10 16.6569 10.2318 16.2444 10.6444C15.8318 11.0569 15.6 11.6165 15.6 12.2V29.8M11.2 14.4H28.8C30.015 14.4 31 15.3849 31 16.6V27.6C31 28.815 30.015 29.8 28.8 29.8H11.2C9.98497 29.8 9 28.815 9 27.6V16.6C9 15.3849 9.98497 14.4 11.2 14.4Z" stroke="#150E3F" stroke-linecap="round" stroke-linejoin="round"/>
</svg>
