<svg width="45" height="46" viewBox="0 0 45 46" fill="none" xmlns="http://www.w3.org/2000/svg">
<rect y="0.5" width="45" height="45" rx="22.5" fill="white"/>
<path d="M14 13.5C14 11.0147 16.0147 9 18.5 9H23V18H18.5C16.0147 18 14 15.9853 14 13.5Z" fill="#F24E1E"/>
<path d="M32 13.5C32 11.0147 29.9853 9 27.5 9H23V18H27.5C29.9853 18 32 15.9853 32 13.5Z" fill="#FF7262"/>
<path d="M14 22.5C14 20.0147 16.0147 18 18.5 18H23V27H18.5C16.0147 27 14 24.9853 14 22.5Z" fill="#A259FF"/>
<path d="M32 22.5C32 24.9853 29.9853 27 27.5 27C25.0147 27 23 24.9853 23 22.5C23 20.0147 25.0147 18 27.5 18C29.9853 18 32 20.0147 32 22.5Z" fill="#1ABCFE"/>
<path d="M14 31.5C14 29.0147 16.0147 27 18.5 27H23V31.5C23 33.9853 20.9853 36 18.5 36C16.0147 36 14 33.9853 14 31.5Z" fill="#0ACF83"/>
</svg>
