<svg width="40" height="40" viewBox="0 0 40 40" fill="none" xmlns="http://www.w3.org/2000/svg">
<rect width="40" height="40" rx="5" fill="#FFAD9B"/>
<path d="M18.5 29.9749H29M23.75 10.7249C24.2141 10.2607 24.8436 10 25.5 10C25.825 10 26.1468 10.064 26.4471 10.1884C26.7474 10.3128 27.0202 10.4951 27.25 10.7249C27.4798 10.9547 27.6621 11.2275 27.7865 11.5278C27.9109 11.828 27.9749 12.1499 27.9749 12.4749C27.9749 12.7999 27.9109 13.1217 27.7865 13.422C27.6621 13.7222 27.4798 13.9951 27.25 14.2249L12.6667 28.8082L8 29.9749L9.16667 25.3082L23.75 10.7249Z" stroke="#150E3F" stroke-linecap="round" stroke-linejoin="round"/>
</svg>
