<svg width="77" height="81" viewBox="0 0 77 81" fill="none" xmlns="http://www.w3.org/2000/svg">
<g filter="url(#filter0_d_4380_574)">
<rect width="76.0767" height="76.0767" rx="38.0383" fill="#130B3E"/>
<path fill-rule="evenodd" clip-rule="evenodd" d="M37.6883 42.3974C37.2486 42.3155 36.8087 42.2279 36.3698 42.1355C37.8131 44.0825 39.2015 46.025 40.2461 47.6391C41.7035 49.891 42.4936 51.8477 42.3816 53.4986C42.3209 54.3936 41.992 55.2079 41.3766 55.8399C40.7838 56.4488 40.0455 56.7659 39.3584 56.9199C38.0287 57.2181 36.5302 56.9919 35.2999 56.6151C34.0621 56.2361 32.7825 55.6082 31.9112 54.8066C30.6932 53.6861 28.6691 51.0431 26.7408 48.3877C24.7627 45.6637 22.7393 42.719 21.478 40.836L21.4663 40.8185L21.4549 40.8007C21.1197 40.2738 20.7473 39.6309 20.4583 38.9821C20.199 38.3999 19.8835 37.5504 19.9293 36.7024C19.9545 36.2351 20.0979 35.6286 20.5639 35.1084C21.0409 34.5761 21.6604 34.3513 22.2127 34.2866C23.1912 34.1718 24.3197 34.5115 25.4793 35.0086C25.874 35.1778 26.3395 35.3377 26.8121 35.522C26.6722 35.341 26.568 35.1942 26.4604 35.053C26.3376 34.892 26.2041 34.7596 26.1214 34.6462L26.1087 34.6134C26.0562 34.5416 25.9309 34.41 25.8488 34.2642C25.8498 34.266 25.8502 34.267 25.8502 34.267C25.8502 34.267 25.8339 34.2733 25.8283 34.2652C25.8147 34.2456 25.7966 34.19 25.7374 34.1093C25.6381 33.9741 25.5074 33.8021 25.3397 33.5814L25.3393 33.5809L25.3386 33.5799C25.0093 33.1465 24.5707 32.5692 24.1004 31.906C23.1732 30.5984 22.0545 28.864 21.3523 27.0861C20.6836 25.393 20.1906 23.1493 21.3029 21.2094C22.4568 19.197 24.867 18.2891 28.0776 18.1483C40.7537 17.5923 49.3091 23.8016 52.0604 27.0315C53.3301 28.5219 54.9567 30.7969 55.4582 33.3529C55.7168 34.6706 55.6841 36.1041 55.1127 37.5268C54.5411 38.9499 53.487 40.2218 51.9342 41.3086C50.1566 42.5527 47.8019 43.0164 45.4206 43.1008C42.9996 43.1866 40.3174 42.887 37.6883 42.3974ZM24.184 38.3667C25.8654 39.0807 28.1824 39.926 30.7822 40.704C33.0608 43.678 35.6047 47.0878 37.2262 49.5935C38.5956 51.7094 38.822 52.8247 38.7928 53.2551C38.7914 53.2752 38.7886 53.2912 38.7863 53.3048C38.784 53.3178 38.7821 53.3286 38.7821 53.339C38.7821 53.3604 38.6869 53.3841 38.5715 53.4099C38.0969 53.5164 37.2857 53.4612 36.3531 53.1756C35.4281 52.8924 34.6919 52.477 34.3466 52.1594C33.4486 51.3332 31.6464 49.0213 29.6514 46.274C27.7124 43.6039 25.7221 40.708 24.4787 38.8521C24.378 38.6935 24.2787 38.5304 24.184 38.3667ZM49.3221 29.3641C47.2068 26.8809 39.681 21.2399 28.2352 21.7419C25.4153 21.8656 24.6383 22.624 24.4234 22.9987C24.167 23.446 24.1235 24.3102 24.698 25.7647C25.2388 27.1343 26.1567 28.5871 27.0347 29.8252C27.467 30.4349 27.8732 30.97 28.2027 31.4036L28.2183 31.4242C28.3736 31.6286 28.5196 31.8207 28.6366 31.98C28.7254 32.1009 28.8539 32.2776 28.956 32.4518C28.965 32.4646 28.9805 32.4865 29.0044 32.5192C29.0653 32.6026 29.154 32.7208 29.2718 32.8753C29.5062 33.1829 29.8329 33.6043 30.2345 34.1208C30.3735 34.2995 30.521 34.4892 30.6762 34.6885C31.3163 35.5111 32.0858 36.5 32.9169 37.5785C34.661 38.0701 36.5092 38.5188 38.3469 38.861C40.8299 39.3235 43.2298 39.5791 45.2932 39.5059C47.3961 39.4314 48.928 39.022 49.8716 38.3616C50.9638 37.5972 51.5098 36.8458 51.7747 36.1862C52.0398 35.5261 52.0798 34.8173 51.9284 34.0455C51.61 32.4227 50.4858 30.7302 49.3221 29.3641Z" fill="url(#paint0_linear_4380_574)" fill-opacity="0.5"/>
<path opacity="0.4" d="M28.5788 31.1502L28.5788 31.1502L28.581 31.153C28.7348 31.3554 28.8825 31.5498 29.0016 31.7119C29.0872 31.8285 29.2231 32.0148 29.3366 32.2056L28.5788 31.1502ZM28.5788 31.1502L28.5632 31.1296C28.5632 31.1296 28.5632 31.1296 28.5632 31.1296C28.2337 30.696 27.8316 30.1662 27.4041 29.5633C26.5322 28.3338 25.6397 26.9165 25.1191 25.5984C24.5572 24.1756 24.667 23.4843 24.8163 23.224C24.914 23.0537 25.4877 22.3157 28.2551 22.1943C39.546 21.6991 46.9422 27.2686 48.9774 29.6578C50.128 31.0084 51.1887 32.6275 51.484 34.1327C51.6219 34.8355 51.5811 35.4532 51.3545 36.0174C51.1281 36.5811 50.646 37.2668 49.6119 37.9906C48.7734 38.5775 47.3451 38.9801 45.2771 39.0534C43.2588 39.1249 40.8945 38.8749 38.4298 38.4158C36.6583 38.086 34.8747 37.6558 33.1839 37.1831C32.3872 36.1499 31.65 35.2026 31.0335 34.4104L30.592 33.8428C30.1903 33.3262 29.8649 32.9064 29.6319 32.6007C29.5148 32.4471 29.4283 32.3318 29.3701 32.2522L28.5788 31.1502ZM37.4287 42.8093C37.4876 42.8205 37.5465 42.8316 37.6054 42.8425C40.2529 43.3356 42.9706 43.6408 45.4366 43.5534C47.853 43.4677 50.3113 42.9972 52.1939 41.6796C53.8046 40.5523 54.9227 39.2149 55.5329 37.6955C56.1429 36.1767 56.1746 34.652 55.9026 33.2657C55.378 30.5923 53.6883 28.2441 52.4052 26.7378C49.5738 23.4141 40.8888 17.1331 28.0578 17.6959C24.7997 17.8387 22.1827 18.7648 20.9101 20.9842C19.6898 23.1123 20.2509 25.5301 20.9311 27.2524C21.6536 29.0818 22.7976 30.8516 23.731 32.1679C24.2061 32.8378 24.6487 33.4205 24.978 33.8539L24.9785 33.8545L24.9787 33.8548L24.9789 33.855L24.9792 33.8554C25.1478 34.0773 25.2759 34.2459 25.3724 34.3773C25.3849 34.3943 25.392 34.4071 25.3974 34.4175C25.4015 34.4254 25.4029 34.4286 25.4101 34.4433C25.4129 34.449 25.4179 34.4592 25.424 34.4704C25.4277 34.4774 25.4337 34.4883 25.4419 34.5015C24.3383 34.0457 23.1969 33.7152 22.16 33.8368C21.5294 33.9108 20.7959 34.1709 20.2267 34.8062C19.6711 35.4263 19.5059 36.1437 19.4771 36.6779C19.4252 37.6394 19.7801 38.5724 20.0447 39.1663C20.346 39.8428 20.7309 40.5063 21.0729 41.0438L21.0842 41.0616L21.0841 41.0616L21.09 41.0705L21.1018 41.088C21.1018 41.088 21.1018 41.088 21.1018 41.088C22.3654 42.9746 24.3921 45.9241 26.3743 48.6538C28.2945 51.2979 30.3464 53.9824 31.6046 55.1399C32.5421 56.0024 33.8902 56.657 35.1673 57.0481C36.4351 57.4363 38.0201 57.6841 39.4575 57.3618C40.2037 57.1945 41.0303 56.8447 41.701 56.1558C42.4001 55.4379 42.7663 54.5183 42.8334 53.5292C42.9558 51.7249 42.0949 49.6623 40.6263 47.3931C39.7439 46.0295 38.6205 44.4373 37.4287 42.8093ZM25.7903 34.2915L25.8068 34.2848L25.7725 34.3038L25.7725 34.3039L25.4519 34.4822C25.448 34.4751 25.4443 34.4678 25.4408 34.4605L25.4358 34.4495L25.4334 34.4439L25.4322 34.4411L25.4316 34.4397L25.4313 34.439L25.4312 34.4387L25.4311 34.4385L25.4311 34.4384L25.7903 34.2915ZM30.0178 46.008C28.3202 43.6702 26.5824 41.158 25.3435 39.3259C26.813 39.8978 28.5836 40.5146 30.5117 41.0956C32.7673 44.0419 35.2564 47.3831 36.8461 49.8395C37.5181 50.8779 37.9001 51.6564 38.11 52.2155C38.241 52.5645 38.3015 52.8191 38.3266 52.9923C37.9306 53.0389 37.2743 52.9841 36.4857 52.7427C35.6001 52.4714 34.9323 52.0829 34.6532 51.8261C33.7956 51.0371 32.0215 48.7672 30.0178 46.008ZM38.3431 53.2281L38.5383 53.2619L38.7863 53.3048L38.5383 53.2618L38.3431 53.2281Z" stroke="url(#paint1_linear_4380_574)" stroke-width="0.905675"/>
<circle cx="37.8164" cy="37.5918" r="32.2246" stroke="white" stroke-opacity="0.04" stroke-width="0.550847"/>
<path d="M73.8233 37.5918C73.8233 56.9191 57.9328 72.5986 38.3164 72.5986C18.7 72.5986 2.80956 56.9191 2.80956 37.5918C2.80956 18.2645 18.7 2.58495 38.3164 2.58495C57.9328 2.58495 73.8233 18.2645 73.8233 37.5918Z" stroke="#0B0628" stroke-width="0.986301"/>
<circle cx="37.8164" cy="37.5918" r="29.25" stroke="white" stroke-opacity="0.04" stroke-width="0.5"/>
</g>
<defs>
<filter id="filter0_d_4380_574" x="0" y="0" width="76.0771" height="80.605" filterUnits="userSpaceOnUse" color-interpolation-filters="sRGB">
<feFlood flood-opacity="0" result="BackgroundImageFix"/>
<feColorMatrix in="SourceAlpha" type="matrix" values="0 0 0 0 0 0 0 0 0 0 0 0 0 0 0 0 0 0 127 0" result="hardAlpha"/>
<feOffset dy="4.52838"/>
<feComposite in2="hardAlpha" operator="out"/>
<feColorMatrix type="matrix" values="0 0 0 0 0.041874 0 0 0 0 0.0230903 0 0 0 0 0.158333 0 0 0 1 0"/>
<feBlend mode="normal" in2="BackgroundImageFix" result="effect1_dropShadow_4380_574"/>
<feBlend mode="normal" in="SourceGraphic" in2="effect1_dropShadow_4380_574" result="shape"/>
</filter>
<linearGradient id="paint0_linear_4380_574" x1="37.769" y1="18.1133" x2="37.769" y2="57.0573" gradientUnits="userSpaceOnUse">
<stop stop-color="#423C64"/>
<stop offset="1" stop-color="#8579CA"/>
</linearGradient>
<linearGradient id="paint1_linear_4380_574" x1="48.4536" y1="53.4346" x2="27.623" y2="37.1325" gradientUnits="userSpaceOnUse">
<stop stop-color="white"/>
<stop offset="1" stop-color="#0B0821"/>
</linearGradient>
</defs>
</svg>
