<svg width="26" height="26" viewBox="0 0 26 26" fill="none" xmlns="http://www.w3.org/2000/svg">
<g filter="url(#filter0_d_4380_603)">
<rect x="2.59961" y="1.2002" width="21.6" height="21.6" rx="2.08401" fill="url(#paint0_linear_4380_603)" shape-rendering="crispEdges"/>
<rect x="2.09961" y="0.700195" width="22.6" height="22.6" rx="2.58401" stroke="black" stroke-opacity="0.8" shape-rendering="crispEdges"/>
<path d="M20.1029 12.3881C20.1029 12.6985 19.9472 12.7465 19.5531 12.7465C19.135 12.7465 19.0629 12.6749 19.0153 12.3641C18.9316 11.5635 18.3934 10.8819 17.4858 10.8106C17.199 10.7866 17.1273 10.6789 17.1273 10.3204C17.1273 9.98597 17.175 9.83026 17.4377 9.83026C19.0149 9.83059 20.1029 11.0973 20.1029 12.3881ZM22.3977 12.3881C22.3977 9.98631 20.7725 7.45215 17.0193 7.45215H9.55917C9.40879 7.45215 9.31542 7.53084 9.31542 7.66822C9.31542 7.74324 9.37144 7.8106 9.42246 7.85028C9.69588 8.06502 10.094 8.30143 10.6282 8.56851C11.146 8.82726 11.5462 8.99565 11.9523 9.16071C12.12 9.22873 12.1867 9.30309 12.1867 9.40245C12.1867 9.53216 12.0953 9.61485 11.9063 9.61485H5.985C5.80995 9.61485 5.72559 9.72756 5.72559 9.84159C5.72559 9.93863 5.7596 10.016 5.84196 10.1017C6.32245 10.6032 7.0867 11.2077 8.20339 11.9063C9.18238 12.5185 10.3918 13.1793 11.3511 13.6392C11.5125 13.7165 11.5685 13.8062 11.5645 13.8986C11.5602 14.0056 11.4758 14.0963 11.2891 14.0963H8.57485C8.42046 14.0963 8.33477 14.1777 8.33477 14.3024C8.33477 14.3717 8.39079 14.4598 8.46381 14.5268C9.08101 15.0866 10.0683 15.6992 11.3834 16.259C13.1387 17.0063 14.9243 17.4554 16.9299 17.4554C20.7308 17.4554 22.3977 14.6112 22.3977 12.3881ZM17.4377 15.7942C15.5731 15.7942 14.02 14.276 14.02 12.3881C14.02 10.5235 15.5735 9.03 17.4377 9.03C19.35 9.03 20.8439 10.5242 20.8439 12.3881C20.8435 14.276 19.35 15.7942 17.4377 15.7942Z" fill="white" fill-opacity="0.1"/>
<path d="M9.48643 7.76803L9.48682 7.76833C9.75208 7.97665 10.1429 8.20939 10.6748 8.4753C11.1891 8.73233 11.5865 8.89957 11.9914 9.06414C11.9915 9.06415 11.9915 9.06416 11.9915 9.06417L11.9523 9.16071C12.12 9.22873 12.1867 9.30309 12.1867 9.40245C12.1867 9.53216 12.0953 9.61485 11.9063 9.61485H5.985C5.80995 9.61485 5.72559 9.72756 5.72559 9.84159C5.72559 9.93863 5.7596 10.016 5.84196 10.1017L9.48643 7.76803ZM9.48643 7.76803C9.46816 7.75382 9.44994 7.73524 9.43703 7.71549C9.42402 7.69559 9.41962 7.67963 9.41962 7.66822C9.41962 7.62453 9.43353 7.60107 9.44949 7.58711C9.46734 7.5715 9.50115 7.55635 9.55917 7.55635H17.0193C18.8709 7.55635 20.1866 8.18059 21.0399 9.09072C21.8948 10.0025 22.2935 11.2098 22.2935 12.3881C22.2935 14.564 20.6634 17.3512 16.9299 17.3512C14.9409 17.3512 13.1693 16.906 11.4242 16.1631L11.3834 16.259L11.4242 16.1631C10.1159 15.6062 9.1399 14.9993 8.53407 14.4498C8.50413 14.4223 8.47878 14.3914 8.46156 14.3624C8.44339 14.3317 8.43897 14.3111 8.43897 14.3024C8.43897 14.2651 8.45092 14.2439 8.46585 14.2307C8.48234 14.2162 8.51513 14.2005 8.57485 14.2005H11.2891C11.3984 14.2005 11.4917 14.174 11.5604 14.1189C11.6306 14.0625 11.6653 13.9841 11.6686 13.9029C11.6751 13.7513 11.576 13.6314 11.3961 13.5452C10.4403 13.087 9.23428 12.428 8.25866 11.8179L9.48643 7.76803ZM19.9768 12.5338C19.9898 12.5037 19.9987 12.4582 19.9987 12.3881C19.9987 11.153 18.9555 9.93479 17.4377 9.93446L19.9768 12.5338ZM19.9768 12.5338C19.965 12.5611 19.9486 12.5791 19.9238 12.5934M19.9768 12.5338L19.9238 12.5934M19.9238 12.5934C19.8963 12.6093 19.8549 12.6224 19.7915 12.6309M19.9238 12.5934L19.7915 12.6309M19.7915 12.6309C19.7284 12.6393 19.6503 12.6423 19.5531 12.6423M19.7915 12.6309L19.5531 12.6423M19.5531 12.6423C19.4505 12.6423 19.3747 12.6379 19.3173 12.6278M19.5531 12.6423L19.3173 12.6278M19.3173 12.6278C19.2603 12.6179 19.228 12.6035 19.2075 12.5883M19.3173 12.6278L19.2075 12.5883M19.2075 12.5883C19.1691 12.5597 19.1427 12.5062 19.1186 12.3507M19.2075 12.5883L19.1186 12.3507M19.1186 12.3507C19.0298 11.5108 18.4597 10.7826 17.4939 10.7067L17.4858 10.8106C17.199 10.7866 17.1273 10.6789 17.1273 10.3204L19.1186 12.3507ZM20.9481 12.3881V12.3881C20.9481 10.4656 19.4066 8.9258 17.4377 8.9258C15.5183 8.9258 13.9158 10.4636 13.9158 12.3881C13.9158 14.3345 15.5165 15.8984 17.4377 15.8984C19.4081 15.8984 20.9477 14.3331 20.9481 12.3881Z" stroke="url(#paint1_linear_4380_603)" stroke-opacity="0.2" stroke-width="0.208401"/>
</g>
<defs>
<filter id="filter0_d_4380_603" x="0.878085" y="0.200195" width="25.0427" height="25.7647" filterUnits="userSpaceOnUse" color-interpolation-filters="sRGB">
<feFlood flood-opacity="0" result="BackgroundImageFix"/>
<feColorMatrix in="SourceAlpha" type="matrix" values="0 0 0 0 0 0 0 0 0 0 0 0 0 0 0 0 0 0 127 0" result="hardAlpha"/>
<feOffset dy="1.44305"/>
<feGaussianBlur stdDeviation="0.360762"/>
<feComposite in2="hardAlpha" operator="out"/>
<feColorMatrix type="matrix" values="0 0 0 0 0.0215191 0 0 0 0 0.00697913 0 0 0 0 0.111667 0 0 0 0.4 0"/>
<feBlend mode="normal" in2="BackgroundImageFix" result="effect1_dropShadow_4380_603"/>
<feBlend mode="normal" in="SourceGraphic" in2="effect1_dropShadow_4380_603" result="shape"/>
</filter>
<linearGradient id="paint0_linear_4380_603" x1="13.3996" y1="3.7002" x2="13.3996" y2="29.7002" gradientUnits="userSpaceOnUse">
<stop stop-color="#100934"/>
<stop offset="1" stop-color="#140B3F"/>
</linearGradient>
<linearGradient id="paint1_linear_4380_603" x1="14.0616" y1="17.4554" x2="14.0616" y2="7.45215" gradientUnits="userSpaceOnUse">
<stop stop-color="white"/>
<stop offset="1" stop-color="white" stop-opacity="0"/>
</linearGradient>
</defs>
</svg>
