<svg width="26" height="26" viewBox="0 0 26 26" fill="none" xmlns="http://www.w3.org/2000/svg">
<g filter="url(#filter0_d_4380_582)">
<rect x="2" y="1" width="21.6" height="21.6" rx="2.08401" fill="url(#paint0_linear_4380_582)" shape-rendering="crispEdges"/>
<rect x="1.5" y="0.5" width="22.6" height="22.6" rx="2.58401" stroke="black" stroke-opacity="0.8" shape-rendering="crispEdges"/>
<path d="M9.43043 12.9546C9.43043 15.9492 10.6325 17.8443 12.91 17.8443C14.6615 17.8443 16.0986 16.6253 17.1214 15.008L17.8211 15.4138C16.7266 17.5217 14.6976 19.3283 12.3746 19.3283C8.96919 19.3283 7 16.9218 7 12.9308C7 7.91457 10.9146 4 14.8052 4C17.1592 4 18.4902 5.19964 18.4902 6.83915C18.4902 8.47854 17.2858 9.68062 16.2629 9.68062C16.0073 9.68062 15.8782 9.52769 15.8782 9.37231C15.8782 8.86563 16.6214 8.24669 16.6214 6.91562C16.6214 5.81626 16.0837 5.09936 14.9581 5.09936C12.6042 5.09936 9.43043 8.63147 9.43043 12.9546Z" fill="white" fill-opacity="0.1"/>
<path d="M9.31753 12.9546C9.31753 14.4646 9.62022 15.7126 10.2232 16.5865C10.83 17.4659 11.735 17.9572 12.91 17.9572C14.6845 17.9572 16.1302 16.746 17.1583 15.1599L17.6707 15.457C16.5754 17.5039 14.6037 19.2154 12.3746 19.2154C10.7006 19.2154 9.39058 18.6252 8.49698 17.5539C7.60106 16.4798 7.1129 14.9092 7.1129 12.9308C7.1129 7.96695 10.9864 4.1129 14.8052 4.1129C15.964 4.1129 16.8579 4.4082 17.4596 4.8927C18.0592 5.37547 18.3773 6.05252 18.3773 6.83915C18.3773 7.63091 18.0865 8.31565 17.6741 8.8016C17.2597 9.28993 16.7318 9.56772 16.2629 9.56772C16.1579 9.56772 16.0901 9.53666 16.0501 9.50071C16.0098 9.46459 15.9911 9.41812 15.9911 9.37231C15.9911 9.27145 16.0284 9.1565 16.0967 9.00943C16.1304 8.93687 16.17 8.85979 16.2137 8.77507L16.2207 8.76156C16.2621 8.68125 16.3068 8.59473 16.3515 8.50224C16.5415 8.10909 16.7344 7.60425 16.7344 6.91562C16.7344 6.34917 16.5959 5.86507 16.2971 5.52117C15.9961 5.17468 15.5461 4.98645 14.9581 4.98645C13.7301 4.98645 12.3189 5.90153 11.2218 7.33726C10.1207 8.77833 9.31753 10.7658 9.31753 12.9546Z" stroke="url(#paint1_linear_4380_582)" stroke-opacity="0.2" stroke-width="0.225808"/>
</g>
<defs>
<filter id="filter0_d_4380_582" x="0.278475" y="0" width="25.0427" height="25.7647" filterUnits="userSpaceOnUse" color-interpolation-filters="sRGB">
<feFlood flood-opacity="0" result="BackgroundImageFix"/>
<feColorMatrix in="SourceAlpha" type="matrix" values="0 0 0 0 0 0 0 0 0 0 0 0 0 0 0 0 0 0 127 0" result="hardAlpha"/>
<feOffset dy="1.44305"/>
<feGaussianBlur stdDeviation="0.360762"/>
<feComposite in2="hardAlpha" operator="out"/>
<feColorMatrix type="matrix" values="0 0 0 0 0.0215191 0 0 0 0 0.00697913 0 0 0 0 0.111667 0 0 0 0.4 0"/>
<feBlend mode="normal" in2="BackgroundImageFix" result="effect1_dropShadow_4380_582"/>
<feBlend mode="normal" in="SourceGraphic" in2="effect1_dropShadow_4380_582" result="shape"/>
</filter>
<linearGradient id="paint0_linear_4380_582" x1="12.8" y1="3.5" x2="12.8" y2="29.5" gradientUnits="userSpaceOnUse">
<stop stop-color="#100934"/>
<stop offset="1" stop-color="#140B3F"/>
</linearGradient>
<linearGradient id="paint1_linear_4380_582" x1="12.7451" y1="19.3283" x2="12.7451" y2="4" gradientUnits="userSpaceOnUse">
<stop stop-color="white"/>
<stop offset="1" stop-color="white" stop-opacity="0"/>
</linearGradient>
</defs>
</svg>
