<svg width="45" height="45" viewBox="0 0 45 45" fill="none" xmlns="http://www.w3.org/2000/svg">
<rect width="45" height="45" rx="22.5" fill="white"/>
<path d="M16.5418 11.25C15.6659 11.25 15.2272 12.2904 15.8466 12.8989L32.1527 28.919C32.7721 29.5275 33.8311 29.0965 33.8311 28.236V12.2159C33.8311 11.6824 33.3909 11.25 32.848 11.25H16.5418Z" fill="#0137FC"/>
<path d="M21.7574 32.2291C22.2219 32.6854 23.0162 32.3622 23.0162 31.7168V22.5994C23.0162 22.1993 22.6861 21.875 22.2789 21.875H12.9986C12.3417 21.875 12.0127 22.6553 12.4772 23.1116L21.7574 32.2291Z" fill="#0137FC"/>
<path d="M15.2942 33.6076C15.6039 33.9119 16.1334 33.6964 16.1334 33.2662V29.1197C16.1334 28.853 15.9133 28.6367 15.6418 28.6367H11.4213C10.9833 28.6367 10.764 29.1569 11.0737 29.4612L15.2942 33.6076Z" fill="#0137FC"/>
</svg>
