<svg width="40" height="40" viewBox="0 0 40 40" fill="none" xmlns="http://www.w3.org/2000/svg">
<rect width="40" height="40" rx="5" fill="#EEEEEE"/>
<path d="M16.3307 33.0003C17.2512 33.0003 17.9974 32.2541 17.9974 31.3337C17.9974 30.4132 17.2512 29.667 16.3307 29.667C15.4103 29.667 14.6641 30.4132 14.6641 31.3337C14.6641 32.2541 15.4103 33.0003 16.3307 33.0003Z" stroke="#A2A6B4" stroke-linecap="round" stroke-linejoin="round"/>
<path d="M29.1667 33.0003C30.0871 33.0003 30.8333 32.2541 30.8333 31.3337C30.8333 30.4132 30.0871 29.667 29.1667 29.667C28.2462 29.667 27.5 30.4132 27.5 31.3337C27.5 32.2541 28.2462 33.0003 29.1667 33.0003Z" stroke="#A2A6B4" stroke-linecap="round" stroke-linejoin="round"/>
<path d="M7 8H11.6667L14.7933 23.6217C14.9 24.1588 15.1922 24.6413 15.6188 24.9847C16.0454 25.3281 16.5791 25.5105 17.1267 25.5H28.4667C29.0142 25.5105 29.548 25.3281 29.9745 24.9847C30.4011 24.6413 30.6933 24.1588 30.8 23.6217L32.6667 13.8333H12.8333" stroke="#A2A6B4" stroke-linecap="round" stroke-linejoin="round"/>
</svg>
