<svg width="36" height="36" viewBox="0 0 36 36" fill="none" xmlns="http://www.w3.org/2000/svg">
<rect width="36" height="36" rx="18" fill="#F8F9FA"/>
<path d="M23.4704 13.5294C23.8709 13.5294 24.0712 13.5294 24.1768 13.4384C24.2687 13.3593 24.3234 13.2389 24.3259 13.1105C24.3287 12.963 24.2085 12.7868 23.9682 12.4343L22.7548 10.6547C22.618 10.454 22.5495 10.3536 22.4628 10.2812C22.3859 10.2171 22.2989 10.1692 22.2062 10.1401C22.1015 10.1072 21.9874 10.1072 21.7593 10.1072H13.6704C13.4423 10.1072 13.3282 10.1072 13.2235 10.1401C13.1307 10.1692 13.0437 10.2171 12.9669 10.2812C12.8802 10.3536 12.8117 10.454 12.6748 10.6547L11.4615 12.4343C11.2212 12.7868 11.101 12.963 11.1038 13.1105C11.1062 13.2389 11.161 13.3593 11.2529 13.4384C11.3585 13.5294 11.5588 13.5294 11.9593 13.5294H23.4704Z" fill="#C7BDFF"/>
<path d="M22.226 27.2183C23.0971 27.2183 23.5327 27.2183 23.8655 27.0318C24.1582 26.8677 24.3962 26.606 24.5453 26.284C24.7148 25.918 24.7148 25.4388 24.7148 24.4805V14.442C24.7148 14.1034 24.7148 13.9341 24.6859 13.7715C24.6603 13.6272 24.6179 13.4872 24.5597 13.3548C24.4941 13.2056 24.4018 13.0702 24.2171 12.7993L22.7548 10.6547C22.618 10.454 22.5495 10.3536 22.4628 10.2812C22.3859 10.2171 22.2989 10.1692 22.2062 10.1401C22.1015 10.1072 21.9874 10.1072 21.7593 10.1072H13.6704C13.4423 10.1072 13.3282 10.1072 13.2235 10.1401C13.1307 10.1692 13.0437 10.2171 12.9669 10.2812C12.8802 10.3536 12.8117 10.454 12.6748 10.6547L11.2126 12.7993C11.0279 13.0702 10.9356 13.2056 10.87 13.3548C10.8118 13.4872 10.7694 13.6272 10.7437 13.7715C10.7148 13.9341 10.7148 14.1034 10.7148 14.442L10.7148 24.4805C10.7148 25.4388 10.7148 25.918 10.8844 26.284C11.0335 26.606 11.2715 26.8677 11.5642 27.0318C11.8969 27.2183 12.3325 27.2183 13.2037 27.2183L22.226 27.2183Z" fill="#C7BDFF"/>
<path d="M20.826 16.9516C20.826 17.8593 20.4982 18.7297 19.9147 19.3715C19.3313 20.0133 18.54 20.3738 17.7148 20.3738C16.8897 20.3738 16.0984 20.0133 15.515 19.3715C14.9315 18.7297 14.6037 17.8593 14.6037 16.9516" fill="#C7BDFF"/>
<path d="M12.6748 10.6547L11.4615 12.4343C11.2212 12.7868 11.101 12.963 11.1038 13.1105C11.1062 13.2389 11.161 13.3593 11.2529 13.4384C11.3585 13.5294 11.5588 13.5294 11.9593 13.5294H23.4704C23.8709 13.5294 24.0712 13.5294 24.1768 13.4384C24.2687 13.3593 24.3234 13.2389 24.3259 13.1105C24.3287 12.963 24.2085 12.7868 23.9682 12.4343L22.7548 10.6547M12.6748 10.6547C12.8117 10.454 12.8802 10.3536 12.9669 10.2812C13.0437 10.2171 13.1307 10.1692 13.2235 10.1401C13.3282 10.1072 13.4423 10.1072 13.6704 10.1072H21.7593C21.9874 10.1072 22.1015 10.1072 22.2062 10.1401C22.2989 10.1692 22.3859 10.2171 22.4628 10.2812C22.5495 10.3536 22.618 10.454 22.7548 10.6547M12.6748 10.6547L11.2126 12.7993C11.0279 13.0702 10.9356 13.2056 10.87 13.3548C10.8118 13.4872 10.7694 13.6272 10.7437 13.7715C10.7148 13.9341 10.7148 14.1034 10.7148 14.442L10.7148 24.4805C10.7148 25.4388 10.7148 25.918 10.8844 26.284C11.0335 26.606 11.2715 26.8677 11.5642 27.0318C11.8969 27.2183 12.3325 27.2183 13.2037 27.2183L22.226 27.2183C23.0971 27.2183 23.5327 27.2183 23.8655 27.0318C24.1582 26.8677 24.3962 26.606 24.5453 26.284C24.7148 25.918 24.7148 25.4388 24.7148 24.4805V14.442C24.7148 14.1034 24.7148 13.9341 24.6859 13.7715C24.6603 13.6272 24.6179 13.4872 24.5597 13.3548C24.4941 13.2056 24.4018 13.0702 24.2171 12.7993L22.7548 10.6547M20.826 16.9516C20.826 17.8593 20.4982 18.7297 19.9147 19.3715C19.3313 20.0133 18.54 20.3738 17.7148 20.3738C16.8897 20.3738 16.0984 20.0133 15.515 19.3715C14.9315 18.7297 14.6037 17.8593 14.6037 16.9516" stroke="#150E3F" stroke-width="0.8" stroke-linecap="round" stroke-linejoin="round"/>
<rect x="14.2793" y="8.38525" width="7.12963" height="8.55556" rx="1.06944" fill="#FFEB9A" stroke="#150E3F" stroke-width="0.8"/>
<path d="M11.1038 13.1111C11.101 12.9635 11.2212 12.7873 11.4615 12.4348L11.2126 12.7999L11.2126 12.7999C11.0279 13.0707 10.9356 13.2062 10.87 13.3553C10.8118 13.4877 10.7694 13.6277 10.7437 13.772C10.7148 13.9346 10.7148 14.1039 10.7148 14.4425V24.481C10.7148 25.4394 10.7148 25.9185 10.8844 26.2845C11.0335 26.6065 11.2715 26.8683 11.5642 27.0323C11.8969 27.2188 12.3325 27.2188 13.2037 27.2188L22.226 27.2188C23.0971 27.2188 23.5327 27.2188 23.8655 27.0323C24.1582 26.8683 24.3962 26.6065 24.5453 26.2845C24.7148 25.9185 24.7148 25.4394 24.7148 24.481V14.4425C24.7148 14.1039 24.7148 13.9346 24.6859 13.772C24.6603 13.6277 24.6179 13.4877 24.5597 13.3553C24.4941 13.2062 24.4018 13.0707 24.2171 12.7999L23.9682 12.4348C24.2085 12.7873 24.3287 12.9635 24.3259 13.1111C24.3234 13.2394 24.2687 13.3598 24.1768 13.439C24.0712 13.5299 23.8709 13.5299 23.4704 13.5299H11.9593C11.5588 13.5299 11.3585 13.5299 11.2529 13.439C11.161 13.3598 11.1062 13.2394 11.1038 13.1111Z" fill="#C7BDFF"/>
<path d="M11.4615 12.4348L12.6748 10.6553L11.2126 12.7999M11.4615 12.4348C11.2212 12.7873 11.101 12.9635 11.1038 13.1111C11.1062 13.2394 11.161 13.3598 11.2529 13.439C11.3585 13.5299 11.5588 13.5299 11.9593 13.5299H23.4704C23.8709 13.5299 24.0712 13.5299 24.1768 13.439C24.2687 13.3598 24.3234 13.2394 24.3259 13.1111C24.3287 12.9635 24.2085 12.7873 23.9682 12.4348M11.4615 12.4348L11.2126 12.7999M23.9682 12.4348L22.7548 10.6553L24.2171 12.7999M23.9682 12.4348L24.2171 12.7999M11.2126 12.7999C11.0279 13.0707 10.9356 13.2062 10.87 13.3553C10.8118 13.4877 10.7694 13.6277 10.7437 13.772C10.7148 13.9346 10.7148 14.1039 10.7148 14.4425L10.7148 24.481C10.7148 25.4394 10.7148 25.9185 10.8844 26.2845C11.0335 26.6065 11.2715 26.8683 11.5642 27.0323C11.8969 27.2188 12.3325 27.2188 13.2037 27.2188L22.226 27.2188C23.0971 27.2188 23.5327 27.2188 23.8655 27.0323C24.1582 26.8683 24.3962 26.6065 24.5453 26.2845C24.7148 25.9185 24.7148 25.4394 24.7148 24.481V14.4425C24.7148 14.1039 24.7148 13.9346 24.6859 13.772C24.6603 13.6277 24.6179 13.4877 24.5597 13.3553C24.4941 13.2062 24.4018 13.0707 24.2171 12.7999" stroke="#150E3F" stroke-width="0.8" stroke-linecap="round" stroke-linejoin="round"/>
<path d="M20.8277 16.9517C20.8277 17.8593 20.4999 18.7297 19.9165 19.3715C19.333 20.0133 18.5417 20.3739 17.7166 20.3739C16.8915 20.3739 16.1001 20.0133 15.5167 19.3715C14.9332 18.7297 14.6055 17.8593 14.6055 16.9517" fill="#C7BDFF"/>
<path d="M20.8277 16.9517C20.8277 17.8593 20.4999 18.7297 19.9165 19.3715C19.333 20.0133 18.5417 20.3739 17.7166 20.3739C16.8915 20.3739 16.1001 20.0133 15.5167 19.3715C14.9332 18.7297 14.6055 17.8593 14.6055 16.9517" stroke="#150E3F" stroke-width="0.8" stroke-linecap="round" stroke-linejoin="round"/>
</svg>
