<svg width="20" height="20" viewBox="0 0 20 20" fill="none" xmlns="http://www.w3.org/2000/svg">
<path d="M12 1.24258V4.96007C12 5.46411 12 5.71613 12.0981 5.90866C12.1844 6.078 12.3221 6.21568 12.4914 6.30197C12.6839 6.40006 12.936 6.40006 13.44 6.40006H17.1575M12 14.5H6.6M13.8 10.9H6.6M17.4 8.1894V14.68C17.4 16.1921 17.4 16.9482 17.1057 17.5258C16.8469 18.0338 16.4338 18.4469 15.9258 18.7057C15.3482 19 14.5921 19 13.08 19H7.32C5.80786 19 5.05179 19 4.47423 18.7057C3.96619 18.4469 3.55314 18.0338 3.29428 17.5258C3 16.9482 3 16.1921 3 14.68V5.32C3 3.80786 3 3.05179 3.29428 2.47423C3.55314 1.96619 3.96619 1.55314 4.47423 1.29428C5.05179 1 5.80786 1 7.32 1H10.2106C10.871 1 11.2012 1 11.5119 1.0746C11.7874 1.14074 12.0508 1.24983 12.2924 1.39787C12.5648 1.56484 12.7983 1.79833 13.2653 2.2653L16.1347 5.1347C16.6017 5.60167 16.8352 5.83516 17.0021 6.10763C17.1502 6.34921 17.2593 6.61258 17.3254 6.88807C17.4 7.19881 17.4 7.52901 17.4 8.1894Z" stroke="#150E3F" stroke-width="1.5" stroke-linecap="round" stroke-linejoin="round"/>
</svg>
