<svg width="24" height="22" viewBox="0 0 24 22" fill="none" xmlns="http://www.w3.org/2000/svg">
<path d="M1 4H23V18H1V4Z" fill="#FFEB9A"/>
<path d="M1 4V3.5H0.5V4H1ZM23 4H23.5V3.5H23V4ZM23 18V18.5H23.5V18H23ZM1 18H0.5V18.5H1V18ZM15.1429 10.3636L14.8282 9.97509V9.97509L15.1429 10.3636ZM9.98141 11.2742L10.2961 10.8857V10.8857L9.98141 11.2742ZM14.0186 11.2742L14.3333 11.6627V11.6627L14.0186 11.2742ZM11.4679 12.2718L11.6064 11.7914H11.6064L11.4679 12.2718ZM12.5321 12.2718L12.6707 12.7523L12.5321 12.2718ZM1 4.5H23V3.5H1V4.5ZM22.5 4V18H23.5V4H22.5ZM23 17.5H1V18.5H23V17.5ZM1.5 18V4H0.5V18H1.5ZM22.8112 17.6543L15.5041 10.018L14.7816 10.7093L22.0887 18.3457L22.8112 17.6543ZM8.49589 10.018L1.18878 17.6543L1.91129 18.3457L9.2184 10.7093L8.49589 10.018ZM0.685309 4.38855L8.54245 10.7522L9.17183 9.97509L1.31469 3.61145L0.685309 4.38855ZM8.54245 10.7522L9.66672 11.6627L10.2961 10.8857L9.17183 9.97509L8.54245 10.7522ZM14.3333 11.6627L15.4575 10.7522L14.8282 9.97509L13.7039 10.8857L14.3333 11.6627ZM15.4575 10.7522L23.3147 4.38855L22.6853 3.61145L14.8282 9.97509L15.4575 10.7522ZM9.66672 11.6627C10.0249 11.9528 10.3135 12.187 10.5628 12.3611C10.8166 12.5383 11.0576 12.6739 11.3293 12.7523L11.6064 11.7914C11.4826 11.7557 11.3441 11.687 11.1353 11.5412C10.9221 11.3922 10.6652 11.1846 10.2961 10.8857L9.66672 11.6627ZM13.7039 10.8857C13.3348 11.1846 13.0779 11.3922 12.8647 11.5412C12.6559 11.687 12.5174 11.7557 12.3936 11.7914L12.6707 12.7523C12.9424 12.6739 13.1834 12.5383 13.4372 12.3611C13.6865 12.187 13.9751 11.9528 14.3333 11.6627L13.7039 10.8857ZM11.3293 12.7523C11.7693 12.8791 12.2307 12.8791 12.6707 12.7523L12.3936 11.7914C12.1347 11.8661 11.8653 11.8661 11.6064 11.7914L11.3293 12.7523Z" fill="#150E3F"/>
<path d="M1 4H23V18H1V4Z" fill="#FFAD9B"/>
<path d="M1 4V3.5H0.5V4H1ZM23 4H23.5V3.5H23V4ZM23 18V18.5H23.5V18H23ZM1 18H0.5V18.5H1V18ZM15.1429 10.3636L14.8282 9.97509V9.97509L15.1429 10.3636ZM9.98141 11.2742L10.2961 10.8857V10.8857L9.98141 11.2742ZM14.0186 11.2742L14.3333 11.6627V11.6627L14.0186 11.2742ZM11.4679 12.2718L11.6064 11.7914H11.6064L11.4679 12.2718ZM12.5321 12.2718L12.6707 12.7523L12.5321 12.2718ZM1 4.5H23V3.5H1V4.5ZM22.5 4V18H23.5V4H22.5ZM23 17.5H1V18.5H23V17.5ZM1.5 18V4H0.5V18H1.5ZM22.8112 17.6543L15.5041 10.018L14.7816 10.7093L22.0887 18.3457L22.8112 17.6543ZM8.49589 10.018L1.18878 17.6543L1.91129 18.3457L9.2184 10.7093L8.49589 10.018ZM0.685309 4.38855L8.54245 10.7522L9.17183 9.97509L1.31469 3.61145L0.685309 4.38855ZM8.54245 10.7522L9.66672 11.6627L10.2961 10.8857L9.17183 9.97509L8.54245 10.7522ZM14.3333 11.6627L15.4575 10.7522L14.8282 9.97509L13.7039 10.8857L14.3333 11.6627ZM15.4575 10.7522L23.3147 4.38855L22.6853 3.61145L14.8282 9.97509L15.4575 10.7522ZM9.66672 11.6627C10.0249 11.9528 10.3135 12.187 10.5628 12.3611C10.8166 12.5383 11.0576 12.6739 11.3293 12.7523L11.6064 11.7914C11.4826 11.7557 11.3441 11.687 11.1353 11.5412C10.9221 11.3922 10.6652 11.1846 10.2961 10.8857L9.66672 11.6627ZM13.7039 10.8857C13.3348 11.1846 13.0779 11.3922 12.8647 11.5412C12.6559 11.687 12.5174 11.7557 12.3936 11.7914L12.6707 12.7523C12.9424 12.6739 13.1834 12.5383 13.4372 12.3611C13.6865 12.187 13.9751 11.9528 14.3333 11.6627L13.7039 10.8857ZM11.3293 12.7523C11.7693 12.8791 12.2307 12.8791 12.6707 12.7523L12.3936 11.7914C12.1347 11.8661 11.8653 11.8661 11.6064 11.7914L11.3293 12.7523Z" fill="#150E3F"/>
</svg>
