<svg width="36" height="37" viewBox="0 0 36 37" fill="none" xmlns="http://www.w3.org/2000/svg">
<rect y="0.75" width="36" height="36" rx="18" fill="#221B4A"/>
<path d="M18 12.75C18.5523 12.75 19 12.3023 19 11.75C19 11.1977 18.5523 10.75 18 10.75C17.4477 10.75 17 11.1977 17 11.75C17 12.3023 17.4477 12.75 18 12.75Z" stroke="white" stroke-width="2" stroke-linecap="round" stroke-linejoin="round"/>
<path d="M18 19.75C18.5523 19.75 19 19.3023 19 18.75C19 18.1977 18.5523 17.75 18 17.75C17.4477 17.75 17 18.1977 17 18.75C17 19.3023 17.4477 19.75 18 19.75Z" stroke="white" stroke-width="2" stroke-linecap="round" stroke-linejoin="round"/>
<path d="M18 26.75C18.5523 26.75 19 26.3023 19 25.75C19 25.1977 18.5523 24.75 18 24.75C17.4477 24.75 17 25.1977 17 25.75C17 26.3023 17.4477 26.75 18 26.75Z" stroke="white" stroke-width="2" stroke-linecap="round" stroke-linejoin="round"/>
<path d="M25 12.75C25.5523 12.75 26 12.3023 26 11.75C26 11.1977 25.5523 10.75 25 10.75C24.4477 10.75 24 11.1977 24 11.75C24 12.3023 24.4477 12.75 25 12.75Z" stroke="white" stroke-width="2" stroke-linecap="round" stroke-linejoin="round"/>
<path d="M25 19.75C25.5523 19.75 26 19.3023 26 18.75C26 18.1977 25.5523 17.75 25 17.75C24.4477 17.75 24 18.1977 24 18.75C24 19.3023 24.4477 19.75 25 19.75Z" stroke="white" stroke-width="2" stroke-linecap="round" stroke-linejoin="round"/>
<path d="M25 26.75C25.5523 26.75 26 26.3023 26 25.75C26 25.1977 25.5523 24.75 25 24.75C24.4477 24.75 24 25.1977 24 25.75C24 26.3023 24.4477 26.75 25 26.75Z" stroke="white" stroke-width="2" stroke-linecap="round" stroke-linejoin="round"/>
<path d="M11 12.75C11.5523 12.75 12 12.3023 12 11.75C12 11.1977 11.5523 10.75 11 10.75C10.4477 10.75 10 11.1977 10 11.75C10 12.3023 10.4477 12.75 11 12.75Z" stroke="white" stroke-width="2" stroke-linecap="round" stroke-linejoin="round"/>
<path d="M11 19.75C11.5523 19.75 12 19.3023 12 18.75C12 18.1977 11.5523 17.75 11 17.75C10.4477 17.75 10 18.1977 10 18.75C10 19.3023 10.4477 19.75 11 19.75Z" stroke="white" stroke-width="2" stroke-linecap="round" stroke-linejoin="round"/>
<path d="M11 26.75C11.5523 26.75 12 26.3023 12 25.75C12 25.1977 11.5523 24.75 11 24.75C10.4477 24.75 10 25.1977 10 25.75C10 26.3023 10.4477 26.75 11 26.75Z" stroke="white" stroke-width="2" stroke-linecap="round" stroke-linejoin="round"/>
</svg>
