<svg width="45" height="46" viewBox="0 0 45 46" fill="none" xmlns="http://www.w3.org/2000/svg">
<rect y="0.5" width="45" height="45" rx="22.5" fill="white"/>
<path d="M37 2H9C5.13401 2 2 5.13401 2 9V37C2 40.866 5.13401 44 9 44H37C40.866 44 44 40.866 44 37V9C44 5.13401 40.866 2 37 2Z" fill="white"/>
<path d="M39.0736 22.9865C39.0736 14.1019 31.8712 6.89941 22.9865 6.89941C14.1018 6.89941 6.89941 14.1019 6.89941 22.9865V23.0123C6.89941 31.897 14.1018 39.0994 22.9865 39.0994C31.8712 39.0994 39.0736 31.897 39.0736 23.0123V22.9865Z" fill="#010101"/>
<path d="M38.1476 28.3315C38.0834 28.5171 38.019 28.7027 37.9044 28.9103C37.7789 28.9402 37.7038 28.9479 37.5061 28.9685C37.693 29.0472 37.7703 29.0798 37.8477 29.1123C37.8397 29.1493 37.8316 29.1863 37.781 29.2485C37.6373 29.2963 37.5362 29.3189 37.4352 29.3414C37.4323 29.3705 37.4295 29.3995 37.4267 29.4286C37.5048 29.4645 37.5829 29.5005 37.6611 29.5365C37.5683 29.7557 37.4756 29.9749 37.3304 30.2103C37.2152 30.246 37.1523 30.2656 37.0894 30.2852C37.1316 30.3488 37.1739 30.4123 37.216 30.476C37.1299 30.646 37.0439 30.816 36.9188 30.9996C36.8549 31.0183 36.8298 31.0235 36.8048 31.0287C36.8309 31.044 36.8569 31.0594 36.8829 31.0747C36.7381 31.3193 36.5933 31.564 36.4025 31.8009C36.2494 31.6068 36.1422 31.4201 36.0237 31.2141C35.9173 31.3627 35.8151 31.5053 35.67 31.708C35.947 31.7619 36.1746 31.8063 36.4022 31.8506C36.2123 32.1314 36.0223 32.4122 35.7741 32.7029C35.602 32.6952 35.488 32.6778 35.3259 32.653C35.4006 32.8214 35.4545 32.943 35.5085 33.0646C34.064 34.9387 32.2445 36.358 30.1451 37.4182C27.4498 38.7792 24.5667 39.289 21.5793 39.0375C18.4704 38.7757 15.648 37.6804 13.1735 35.7515C9.71299 33.0539 7.58031 29.5266 7.04667 25.1868C6.32593 19.3255 8.25282 14.3976 12.7848 10.5559C15.0469 8.63832 17.6856 7.48167 20.6088 7.07437C25.1945 6.43546 29.3426 7.5461 33.004 10.4117C34.1977 11.346 35.2132 12.4449 36.0977 13.7321C36.1233 13.9826 36.1341 14.1764 36.1887 14.3569C36.1969 14.3841 36.4097 14.3494 36.5279 14.3433C37.0575 15.4032 37.5871 16.4631 38.0813 17.5581C37.8746 17.5995 37.7031 17.6058 37.5131 17.6016C37.4842 17.5504 37.4737 17.5097 37.4672 17.4317C37.4707 17.2111 37.5426 16.9828 37.1988 16.9796C37.1085 16.8334 37.0432 16.7054 37.0058 16.5761C37.0654 16.5603 37.097 16.5458 37.1287 16.5313C37.0676 16.5176 37.0065 16.504 36.9219 16.4788C36.8402 16.3847 36.7821 16.302 36.7182 16.1901C36.6668 16.0971 36.6211 16.0334 36.5721 15.9576C36.559 15.9066 36.5495 15.8678 36.5553 15.7947C36.6254 15.4594 36.4452 15.38 36.1738 15.3476C35.8413 14.9727 35.5322 14.6149 35.2132 14.2318C35.0729 14.0815 34.9427 13.9564 34.801 13.8045C34.5867 13.5974 34.3895 13.4102 34.18 13.238C31.2372 10.8196 27.8768 9.86307 24.1229 10.5122C21.2374 11.0111 18.8248 12.4225 16.9224 14.6605C14.5854 17.4098 13.5893 20.6206 13.9063 24.1865C14.1978 27.4667 15.5875 30.2625 18.0504 32.4869C20.3852 34.5954 23.1403 35.6477 26.2776 35.6707C28.1078 35.6841 29.8694 35.2951 31.5093 34.4817C32.2291 34.1246 32.8754 33.6192 33.5576 33.175C33.56 33.1689 33.5721 33.1636 33.6001 33.1756C33.7665 33.0765 33.9046 32.9654 34.0616 32.8521C34.0803 32.8498 34.1171 32.8415 34.1217 32.8708C34.1717 32.9284 34.217 32.9566 34.2623 32.9848C34.2369 32.9179 34.2115 32.8509 34.1993 32.7578C34.3644 32.5844 34.5163 32.437 34.6851 32.2881C34.7194 32.2713 34.7396 32.2617 34.7882 32.2677C34.8779 32.2963 34.9419 32.3152 35.006 32.3341C35.006 32.2319 35.006 32.1297 35.0131 32.0073C35.042 31.9514 35.0638 31.9157 35.1114 31.8681C35.2331 31.741 35.3292 31.6258 35.4516 31.4997C35.6535 31.2892 35.829 31.0895 36.0083 30.9121C36.021 30.957 36.0298 30.9797 36.0387 31.0023C36.051 30.9913 36.0632 30.9803 36.0756 30.9693C36.0513 30.9435 36.027 30.9177 36.0107 30.864C36.1022 30.7116 36.1857 30.587 36.2874 30.4469C36.3286 30.3913 36.3518 30.351 36.4016 30.2989C36.6084 29.979 36.7884 29.671 36.987 29.3588C37.0056 29.3546 37.0424 29.3453 37.0446 29.3684C37.0941 29.3799 37.182 29.3683 37.182 29.3567C37.1819 29.2846 37.1622 29.2125 37.1477 29.1117C37.2114 28.9692 37.2764 28.8553 37.3784 28.7466C37.4648 28.7545 37.5144 28.7573 37.5686 28.7721C37.5806 28.7883 37.5879 28.7925 37.5953 28.7968C37.5848 28.7847 37.5743 28.7725 37.5757 28.7326C37.6056 28.5172 37.6237 28.3296 37.6433 28.1149C37.6712 28.0459 37.6978 28.0037 37.7301 27.9921C37.8731 28.1256 38.0104 28.2286 38.1476 28.3315Z" fill="#010101"/>
<path d="M37.5332 17.6127C37.7047 17.6064 37.8761 17.6001 38.0905 17.5908C38.6566 19.0323 38.9334 20.5185 39.0404 22.0552C39.1865 24.1542 38.8591 26.1732 38.2398 28.1625C38.2275 28.2021 38.1989 28.2366 38.1636 28.3028C38.0119 28.2291 37.8746 28.1262 37.7325 27.9602C37.9945 26.8771 38.3106 25.8668 38.5165 24.8346C38.8259 23.2831 38.734 21.7224 38.3491 20.1933C38.1292 19.32 37.8085 18.4721 37.5332 17.6127Z" fill="#090909"/>
<path d="M36.4009 31.8472C36.1757 31.8041 35.9479 31.7598 35.6709 31.7058C35.816 31.5032 35.9182 31.3605 36.0246 31.2119C36.1431 31.418 36.2505 31.6046 36.3799 31.8199C36.402 31.8485 36.3985 31.8461 36.4009 31.8472Z" fill="#090909"/>
<path d="M36.5272 14.317C36.4095 14.3522 36.1966 14.387 36.1884 14.3597C36.1338 14.1793 36.1231 13.9855 36.1025 13.7637C36.2469 13.9168 36.3867 14.1023 36.5272 14.317Z" fill="#090909"/>
<path d="M35.5353 33.0529C35.4557 32.9433 35.4018 32.8217 35.3271 32.6533C35.4893 32.6781 35.6032 32.6956 35.749 32.7153C35.7075 32.8252 35.6342 32.933 35.5353 33.0529Z" fill="#090909"/>
<path d="M37.6861 29.5276C37.5831 29.5009 37.5049 29.4649 37.4268 29.4289C37.4296 29.3999 37.4324 29.3708 37.4352 29.3418C37.5363 29.3192 37.6375 29.2967 37.7687 29.2744C37.7696 29.3558 37.7403 29.4371 37.6861 29.5276Z" fill="#090909"/>
<path d="M37.2376 30.4558C37.1741 30.4103 37.1321 30.3467 37.0898 30.2831C37.1527 30.2636 37.2154 30.244 37.3089 30.2275C37.3127 30.2996 37.2858 30.3686 37.2376 30.4558Z" fill="#090909"/>
<path d="M37.8704 29.0994C37.7701 29.08 37.6928 29.0474 37.5059 28.9687C37.7035 28.9482 37.7786 28.9404 37.8843 28.9326C37.9077 28.9839 37.9006 29.0351 37.8704 29.0994Z" fill="#090909"/>
<path d="M36.8932 31.0704C36.8576 31.059 36.8317 31.0436 36.8057 31.0283C36.8307 31.0231 36.8555 31.0179 36.9058 31.0248C36.9312 31.0369 36.9028 31.0665 36.8932 31.0704Z" fill="#090909"/>
<path d="M33.5567 33.1815C32.877 33.6195 32.2308 34.1249 31.511 34.4819C29.8711 35.2954 28.1095 35.6844 26.2792 35.671C23.1419 35.648 20.3868 34.5957 18.0521 32.4871C15.5891 30.2628 14.1994 27.467 13.9079 24.1868C13.591 20.6209 14.5871 17.4101 16.924 14.6608C18.8265 12.4228 21.2391 11.0114 24.1246 10.5125C27.8784 9.86336 31.2389 10.8199 34.1817 13.2383C34.3912 13.4105 34.5883 13.5978 34.79 13.8319C34.7408 14.0159 34.6928 14.146 34.6268 14.3251C34.8794 14.2965 35.052 14.2769 35.2248 14.2574C35.5339 14.6152 35.8429 14.973 36.1805 15.3768C36.2852 15.5361 36.3613 15.6495 36.4242 15.7814C36.4662 15.8568 36.5216 15.9134 36.577 15.97C36.6228 16.0337 36.6685 16.0975 36.6861 16.1951C36.5065 16.2538 36.3522 16.2674 36.205 16.3073C36.1025 16.3351 36.0099 16.3989 35.8843 16.4268C35.7808 16.396 35.7059 16.3851 35.6258 16.3731C35.6206 16.372 35.6192 16.3612 35.649 16.337C35.6287 16.2214 35.5976 16.1099 35.5255 16.0419C35.0744 15.6164 34.6141 15.2007 34.184 14.7718C34.1705 14.6679 34.13 14.5739 34.0895 14.48C34.043 14.5281 33.9965 14.5762 33.9207 14.6152C31.993 13.3583 29.933 12.7619 27.6424 12.941C26.0351 13.0668 24.5642 13.5547 23.2154 14.4047C19.7469 16.5907 17.86 20.8615 18.7591 25.1372C19.7927 30.0521 24.4139 33.7632 29.7932 32.9777C31.5695 32.7183 33.128 32.0129 34.5228 30.9062C34.6246 30.8254 34.7489 30.7731 34.8736 30.7236C34.9008 30.7397 34.9172 30.7398 34.9337 30.7398C34.9148 30.7244 34.8958 30.709 34.8722 30.6713C34.9331 30.5715 34.9986 30.4939 35.0888 30.4054C35.2804 30.2114 35.4474 30.0285 35.6376 29.8317C35.6986 29.7803 35.7365 29.7429 35.8069 29.7057C35.9531 29.706 36.0666 29.706 36.1748 29.706C36.2089 29.5983 36.2487 29.5106 36.2626 29.419C36.2785 29.3131 36.2716 29.2038 36.283 29.0681C36.4067 28.9083 36.5219 28.7766 36.6339 28.6474C36.6307 28.6499 36.6298 28.664 36.6195 28.6262C36.6144 28.5627 36.6197 28.537 36.6483 28.4964C36.7437 28.3742 36.816 28.2671 36.9146 28.1468C37.0361 28.1637 37.1383 28.1808 37.2242 28.2276C37.3128 28.2757 37.3857 28.3529 37.4642 28.4465C37.4231 28.5644 37.3831 28.653 37.3431 28.7417C37.278 28.8556 37.213 28.9695 37.1331 29.1275C37.0898 29.2055 37.0614 29.2395 37.016 29.2597C36.9717 29.2191 36.9443 29.1922 36.9169 29.1652C36.8936 29.2086 36.8499 29.2543 36.8542 29.2947C36.8571 29.3215 36.9291 29.3407 36.9701 29.3633C36.7901 29.6713 36.61 29.9793 36.372 30.3034C36.2996 30.3671 36.2853 30.4149 36.271 30.4627C36.1874 30.5873 36.1038 30.7119 36.0194 30.8704C36.0185 30.9044 36.0061 30.8902 36.0061 30.8902C35.8307 31.0898 35.6552 31.2894 35.4247 31.4973C35.0139 31.4333 35.1027 31.6961 35.0873 31.8802C35.0654 31.9159 35.0436 31.9516 34.9888 32.0193C34.892 32.1203 34.8281 32.1893 34.7642 32.2583C34.7412 32.262 34.721 32.2715 34.6509 32.286C34.5286 32.2829 34.4547 32.2956 34.3901 32.2764C34.0264 32.1691 33.9222 32.2972 34.0349 32.6469C34.0553 32.7105 34.0422 32.785 34.0445 32.8545C33.9063 32.9657 33.768 33.0768 33.59 33.1608C33.5338 33.134 33.5173 33.1344 33.5008 33.1349C33.5195 33.1504 33.5381 33.1659 33.5567 33.1815ZM35.6558 15.0947C35.6414 15.0994 35.6271 15.1042 35.6127 15.1089C35.6272 15.1136 35.6416 15.1183 35.6558 15.0947ZM34.3241 13.9227C34.3385 13.918 34.3528 13.9133 34.3672 13.9085C34.3527 13.9039 34.3383 13.8992 34.3241 13.9227Z" fill="#FDFDFD"/>
<path d="M35.9121 16.4469C36.0091 16.3992 36.1017 16.3353 36.2041 16.3076C36.3513 16.2677 36.5057 16.2541 36.6909 16.2246C36.7829 16.3027 36.8411 16.3853 36.9245 16.4953C36.952 16.5451 36.9615 16.5635 36.9788 16.5782C37.0441 16.7061 37.1094 16.834 37.2018 17.0103C37.3073 17.1956 37.3857 17.3326 37.4642 17.4696C37.4746 17.5103 37.4849 17.551 37.5139 17.6021C37.8077 18.4721 38.1287 19.32 38.3485 20.1933C38.7335 21.7223 38.8254 23.2831 38.516 24.8346C38.3101 25.8668 37.9938 26.8771 37.7261 27.9297C37.6986 28.0043 37.6721 28.0464 37.6186 28.128C37.5493 28.2508 37.507 28.3342 37.4646 28.4176C37.3849 28.3532 37.312 28.276 37.2234 28.2279C37.1374 28.1811 37.0353 28.1641 36.9186 28.1119C36.9139 28.0481 36.9309 28.0064 36.962 27.9407C37.2814 27.1775 37.5867 26.4384 37.9005 25.6684C38.3324 24.0089 38.3746 22.373 37.995 20.7308C37.6694 19.3224 37.1207 18.0168 36.1979 16.8574C36.0996 16.7028 36.0058 16.5749 35.9121 16.4469Z" fill="#F7F7F7"/>
<path d="M34.0617 32.853C34.0407 32.7856 34.0538 32.7112 34.0334 32.6475C33.9208 32.2978 34.0249 32.1698 34.3886 32.2771C34.4532 32.2962 34.527 32.2835 34.6324 32.288C34.5163 32.438 34.3645 32.5854 34.1823 32.76C34.1282 32.798 34.1166 32.8164 34.1172 32.8424C34.1172 32.8424 34.0805 32.8507 34.0617 32.853Z" fill="#F7F7F7"/>
<path d="M35.214 14.2299C35.0513 14.2747 34.8785 14.2943 34.626 14.3229C34.692 14.1438 34.7399 14.0137 34.8006 13.8564C34.9436 13.9544 35.0738 14.0795 35.214 14.2299Z" fill="#F7F7F7"/>
<path d="M37.4641 28.4491C37.5076 28.3365 37.5497 28.2531 37.6176 28.1572C37.625 28.3325 37.6071 28.5202 37.5771 28.7355C37.5653 28.7631 37.5652 28.763 37.5652 28.763C37.5157 28.7602 37.4663 28.7573 37.3799 28.7494C37.383 28.6556 37.4229 28.567 37.4641 28.4491Z" fill="#090909"/>
<path d="M36.4358 15.761C36.3596 15.6477 36.2833 15.5344 36.2021 15.3921C36.4451 15.3785 36.6252 15.4579 36.5373 15.7831C36.4807 15.7925 36.4581 15.7772 36.4358 15.761Z" fill="#090909"/>
<path d="M37.4679 17.4319C37.3857 17.3323 37.3071 17.1953 37.2266 17.0283C37.5432 16.983 37.4715 17.2113 37.4679 17.4319Z" fill="#090909"/>
<path d="M35.1127 31.8646C35.1025 31.6923 35.0136 31.4295 35.3979 31.5043C35.3304 31.6223 35.2345 31.7375 35.1127 31.8646Z" fill="#F7F7F7"/>
<path d="M34.7881 32.2694C34.8264 32.1907 34.8901 32.1218 34.98 32.041C35.0058 32.1315 35.0059 32.2337 35.0059 32.3359C34.9418 32.3169 34.8778 32.298 34.7881 32.2694Z" fill="#090909"/>
<path d="M37.0322 29.2764C37.0606 29.2425 37.0891 29.2085 37.1337 29.1592C37.1631 29.2158 37.1827 29.2879 37.1827 29.36C37.1827 29.3716 37.095 29.3832 37.0448 29.3534C37.0419 29.3119 37.0322 29.2764 37.0322 29.2764Z" fill="#090909"/>
<path d="M36.4219 15.7815C36.4575 15.779 36.48 15.7944 36.5211 15.8192C36.5486 15.8682 36.5584 15.907 36.5714 15.9579C36.5193 15.9135 36.4639 15.8568 36.4219 15.7815Z" fill="#F7F7F7"/>
<path d="M34.1222 32.8669C34.1171 32.8115 34.1289 32.7932 34.1698 32.7812C34.2123 32.847 34.2375 32.914 34.2629 32.981C34.2175 32.9528 34.1722 32.9245 34.1222 32.8669Z" fill="#090909"/>
<path d="M37.0147 29.2575C37.0316 29.2713 37.0413 29.3068 37.042 29.3251C37.0427 29.3435 37.0059 29.3527 36.9873 29.3569C36.9277 29.3385 36.8558 29.3193 36.8528 29.2925C36.8485 29.2521 36.8922 29.2065 36.9156 29.1631C36.9429 29.19 36.9703 29.2169 37.0147 29.2575Z" fill="#F7F7F7"/>
<path d="M37.0059 16.579C36.9608 16.5658 36.9512 16.5473 36.9473 16.509C37.0066 16.5068 37.0677 16.5204 37.1288 16.5342C37.0971 16.5486 37.0654 16.5631 37.0059 16.579Z" fill="#090909"/>
<path d="M36.2877 30.4484C36.284 30.416 36.2981 30.3683 36.3437 30.3164C36.3519 30.3525 36.3289 30.3927 36.2877 30.4484Z" fill="#F7F7F7"/>
<path d="M36.0102 30.8975C36.0274 30.9172 36.0515 30.943 36.0758 30.9689C36.0635 30.9799 36.0513 30.9908 36.0389 31.0018C36.0301 30.9792 36.0212 30.9565 36.0086 30.9117C36.0047 30.8894 36.0172 30.9036 36.0102 30.8975Z" fill="#090909"/>
<path d="M35.55 31.6433C35.546 31.6457 35.554 31.6409 35.55 31.6433V31.6433Z" fill="#090909"/>
<path d="M36.4035 14.6335C36.3995 14.636 36.4076 14.6311 36.4035 14.6335V14.6335Z" fill="#090909"/>
<path d="M37.5251 16.5188C37.5226 16.5146 37.5276 16.5229 37.5251 16.5188V16.5188Z" fill="#090909"/>
<path d="M37.4333 28.8898C37.431 28.8859 37.4355 28.8936 37.4333 28.8898V28.8898Z" fill="#090909"/>
<path d="M37.5635 28.7598C37.5739 28.772 37.5845 28.7843 37.595 28.7964C37.5876 28.7922 37.5803 28.7879 37.5683 28.7717C37.5637 28.7598 37.5635 28.7598 37.5635 28.7598Z" fill="#090909"/>
<path d="M35.8833 16.4251C36.0056 16.5729 36.0995 16.7009 36.1946 16.8893C36.2173 17.3672 35.8523 17.3756 35.5804 17.4951C35.4515 17.381 35.3469 17.2801 35.2459 17.1523C35.2827 17.0594 35.3159 16.9936 35.4008 16.8257C35.1509 16.8257 34.9708 16.8257 34.7592 16.8202C32.1885 15.1988 29.5923 15.0971 27.0574 16.7291C23.7376 18.8664 22.721 23.3534 24.7273 26.7738C26.152 29.2027 28.2857 30.4602 31.132 30.3851C31.7037 30.37 32.2718 30.2183 32.8552 30.1493C32.9175 30.1321 32.9661 30.095 33.0429 30.044C33.4389 29.8835 33.8067 29.737 34.1855 29.6063C34.2129 29.6221 34.2294 29.6221 34.2458 29.622C34.2272 29.6065 34.2084 29.591 34.1937 29.546C34.594 29.2299 34.9885 28.941 35.3884 28.6598C35.4401 28.6234 35.5196 28.6266 35.5697 28.6258C35.567 28.6311 35.5807 28.6221 35.5649 28.6086C35.5316 28.5678 35.5278 28.5315 35.5499 28.4868C35.6472 28.3995 35.7187 28.3206 35.8129 28.2298C35.8411 28.2015 35.8464 28.1852 35.8772 28.1593C35.9683 28.066 36.0339 27.9823 36.1172 27.893C36.1348 27.8875 36.1713 27.8816 36.1761 27.8863C36.1809 27.891 36.1905 27.9004 36.1907 27.9369C36.0613 28.3734 36.4073 28.3894 36.624 28.5098C36.6188 28.5355 36.6135 28.561 36.6203 28.6213C36.6322 28.6559 36.6362 28.6431 36.6362 28.6431C36.521 28.7749 36.4058 28.9067 36.2576 29.0804C36.1116 29.2403 35.9987 29.3582 35.8764 29.4591C35.8505 29.4413 35.8339 29.4404 35.8173 29.4396C35.8352 29.456 35.8531 29.4725 35.8798 29.5135C35.8503 29.5933 35.8118 29.6485 35.7734 29.7038C35.7356 29.7412 35.6978 29.7787 35.6237 29.8024C35.4168 29.7842 34.9167 30.1804 34.9376 30.3149C34.9437 30.3538 35.0194 30.3818 35.0632 30.4147C34.9977 30.4922 34.9321 30.5698 34.8699 30.6752C34.8732 30.7031 34.862 30.7058 34.862 30.7058C34.748 30.7714 34.6236 30.8238 34.5218 30.9045C33.127 32.0112 31.5686 32.7166 29.7922 32.976C24.4129 33.7616 19.7917 30.0505 18.7581 25.1356C17.859 20.8598 19.7459 16.589 23.2144 14.4031C24.5632 13.5531 26.0341 13.0651 27.6414 12.9394C29.932 12.7603 31.9921 13.3567 33.9282 14.6344C34.0293 14.703 34.0926 14.7415 34.156 14.7802C34.6132 15.1991 35.0735 15.6148 35.5245 16.0402C35.5966 16.1082 35.6278 16.2198 35.6193 16.3444C35.5074 16.4048 35.4541 16.4319 35.4008 16.459C35.4273 16.4846 35.4538 16.5102 35.4803 16.5357C35.5303 16.4813 35.5803 16.4269 35.6302 16.3725C35.7051 16.3835 35.7798 16.3944 35.8833 16.4251ZM35.7525 28.735C35.745 28.7308 35.7377 28.7265 35.7303 28.7223C35.7407 28.7345 35.7511 28.7468 35.7708 28.783C35.7783 28.7873 35.7858 28.7916 35.7933 28.7958C35.7828 28.7835 35.7723 28.7711 35.7525 28.735ZM34.962 16.0973C34.991 16.0505 35.02 16.0036 35.049 15.9568C35.0255 15.9453 35.002 15.9337 34.9785 15.9221C34.9609 15.968 34.9433 16.0139 34.962 16.0973Z" fill="#020202"/>
<path d="M36.6484 28.4939C36.4084 28.3886 36.0624 28.3726 36.2242 27.9361C36.4873 27.9205 36.7181 27.9413 36.9488 27.9621C36.9319 28.0037 36.9149 28.0453 36.8932 28.1222C36.8162 28.2646 36.7439 28.3717 36.6484 28.4939Z" fill="#090909"/>
<path d="M35.0874 30.4048C35.0188 30.3827 34.9432 30.3548 34.9372 30.3159C34.9163 30.1814 35.4162 29.7852 35.5999 29.8173C35.4459 30.0279 35.279 30.2108 35.0874 30.4048Z" fill="#090909"/>
<path d="M35.8853 29.4781C35.9982 29.3602 36.1112 29.2422 36.2487 29.1104C36.2703 29.2042 36.2773 29.3135 36.2613 29.4193C36.2474 29.511 36.2077 29.5987 36.1736 29.7063C36.0653 29.7063 35.9518 29.7063 35.8057 29.7061C35.8115 29.6505 35.8498 29.5953 35.8811 29.5101C35.8741 29.48 35.8853 29.4781 35.8853 29.4781Z" fill="#F7F7F7"/>
<path d="M34.1826 14.7693C34.0921 14.7407 34.0289 14.7022 33.957 14.6427C33.9951 14.5738 34.0416 14.5256 34.0881 14.4775C34.1286 14.5715 34.1691 14.6654 34.1826 14.7693Z" fill="#F7F7F7"/>
<path d="M35.6538 15.1079C35.6395 15.1173 35.6248 15.1127 35.6104 15.108C35.6248 15.1033 35.6393 15.0986 35.6538 15.1079Z" fill="#F7F7F7"/>
<path d="M34.3223 13.9108C34.3365 13.9013 34.3508 13.906 34.3652 13.9106C34.3509 13.9154 34.3368 13.9201 34.3223 13.9108Z" fill="#F7F7F7"/>
<path d="M34.7697 31.2927C34.7657 31.2951 34.7737 31.2903 34.7697 31.2927V31.2927Z" fill="#F7F7F7"/>
<path d="M34.5114 13.7824C34.509 13.7784 34.5138 13.7864 34.5114 13.7824V13.7824Z" fill="#F7F7F7"/>
<path d="M33.4812 13.1799C33.4787 13.1758 33.4836 13.1839 33.4812 13.1799V13.1799Z" fill="#F7F7F7"/>
<path d="M33.5584 33.1724C33.5372 33.163 33.5186 33.1475 33.5 33.132C33.5164 33.1316 33.5331 33.1312 33.5613 33.1459C33.573 33.1609 33.5608 33.1663 33.5584 33.1724Z" fill="#F7F7F7"/>
<path d="M34.8745 30.7021C34.8948 30.7119 34.914 30.7274 34.9329 30.7428C34.9165 30.7428 34.9 30.7427 34.8728 30.7265C34.8621 30.7104 34.8731 30.7077 34.8745 30.7021Z" fill="#F7F7F7"/>
<path d="M36.1413 30.1799C36.139 30.1759 36.1437 30.1838 36.1413 30.1799V30.1799Z" fill="#F7F7F7"/>
<path d="M36.634 28.6498C36.6372 28.6472 36.6334 28.66 36.6317 28.6632C36.6301 28.6664 36.6308 28.6523 36.634 28.6498Z" fill="#090909"/>
<path d="M35.6064 17.5134C35.854 17.3806 36.219 17.3721 36.2009 16.9209C37.1223 18.0199 37.6709 19.3255 37.9965 20.7339C38.3761 22.3761 38.3339 24.012 37.8699 25.6635C37.7179 25.6248 37.6067 25.5634 37.4961 25.4697C37.6003 25.0297 37.7039 24.6219 37.8146 24.1835C37.8188 24.0709 37.8159 23.989 37.8217 23.8802C37.8518 23.487 37.8733 23.1207 37.9014 22.726C37.9034 22.659 37.8987 22.6205 37.8979 22.5485C37.8723 22.3371 37.8427 22.1594 37.8188 21.9589C37.818 21.881 37.8114 21.8258 37.802 21.7489C37.7792 21.706 37.7593 21.6849 37.7368 21.664C37.7342 21.6642 37.7328 21.6693 37.7433 21.6519C37.74 21.5214 37.7262 21.4082 37.7089 21.263C37.5401 20.7626 37.3747 20.2941 37.2022 19.7924C37.1272 19.6452 37.0593 19.5313 36.9826 19.3965C36.944 19.3277 36.9143 19.2799 36.8804 19.2035C36.7698 19.0199 36.6632 18.8649 36.5519 18.6864C36.5071 18.6171 36.4672 18.5714 36.4245 18.525C36.4216 18.5244 36.425 18.5273 36.4245 18.525C36.424 18.5227 36.4292 18.521 36.4158 18.488C36.3174 18.3927 36.2323 18.3305 36.1422 18.2669C36.137 18.2655 36.1359 18.255 36.1583 18.2289C35.9893 17.9731 35.7978 17.7433 35.6064 17.5134Z" fill="#090909"/>
<path d="M37.4928 25.501C37.6039 25.5624 37.7152 25.6238 37.8586 25.6933C37.5855 26.4404 37.2803 27.1796 36.961 27.9428C36.7161 27.9461 36.4852 27.9254 36.222 27.9046C36.1895 27.9044 36.1799 27.895 36.1832 27.8619C36.622 27.0529 37.0574 26.277 37.4928 25.501Z" fill="#020202"/>
<path d="M37.494 25.4631C37.058 26.2714 36.6224 27.0474 36.1789 27.8517C36.1708 27.88 36.1343 27.8859 36.0845 27.8926C35.9736 27.9886 35.9124 28.0779 35.8512 28.1672C35.8459 28.1836 35.8406 28.1999 35.7837 28.2286C35.6174 28.271 35.5025 28.301 35.3877 28.331C35.433 28.3852 35.4782 28.4394 35.5235 28.4936C35.5272 28.5299 35.531 28.5662 35.5619 28.6087C35.589 28.6148 35.5856 28.6099 35.5856 28.6099C35.5191 28.625 35.4396 28.6218 35.3879 28.6582C34.988 28.9395 34.5934 29.2284 34.1914 29.5502C34.1856 29.5854 34.174 29.5889 34.174 29.5889C33.8062 29.7354 33.4383 29.882 33.0174 30.0386C32.9232 30.0752 32.8822 30.1015 32.8411 30.1279C32.2713 30.2167 31.7033 30.3685 31.1316 30.3835C28.2853 30.4586 26.1516 29.2011 24.7269 26.7723C22.7206 23.3519 23.7371 18.8648 27.057 16.7276C29.5919 15.0956 32.1879 15.1972 34.7682 16.8423C34.9533 16.9735 35.0975 17.0757 35.2417 17.1777C35.3464 17.2785 35.4511 17.3794 35.58 17.4936C35.7957 17.7367 35.987 17.9665 36.1243 18.2314C36.0049 18.297 35.9398 18.3273 35.8746 18.3576C35.8959 18.3875 35.9172 18.4176 35.9386 18.4475C36.0074 18.3856 36.0763 18.3236 36.1451 18.2616C36.2301 18.3238 36.3152 18.3861 36.3727 18.4853C36.2771 18.5864 36.2089 18.6505 36.1408 18.7146C36.2787 18.7109 36.4166 18.7071 36.5545 18.7034C36.661 18.8584 36.7676 19.0133 36.855 19.2121C36.8311 19.3465 36.8263 19.437 36.8215 19.5275C36.8774 19.4886 36.9333 19.4498 36.9891 19.4109C37.057 19.5248 37.125 19.6386 37.1599 19.7879C36.8926 19.9009 36.6582 19.9784 36.4006 20.0355C36.1422 19.6979 35.9071 19.3807 35.6845 19.0378C35.772 18.9533 35.847 18.8946 35.9419 18.8204C35.6985 18.6227 35.5597 18.2426 35.1975 18.6302C32.0662 16.1835 28.2795 18.003 27.344 20.3998C28.7732 20.5114 29.7451 21.5127 29.7827 22.9121C29.8217 24.3644 28.8616 25.4274 27.3386 25.6122C27.343 25.6538 27.3364 25.7006 27.3533 25.7363C28.2267 27.5685 30.6008 28.7895 32.6179 28.475C33.6246 28.3179 34.498 27.8942 35.32 27.2923C35.6112 27.406 35.5529 27.2566 35.5074 27.082C36.1243 26.4592 36.5821 25.7662 36.8701 24.9656C37.2173 24.0001 37.3014 23.0084 37.1869 21.9783C37.3953 21.86 37.5663 21.7586 37.7371 21.6572C37.757 21.6783 37.7769 21.6994 37.761 21.7473C37.7537 21.8411 37.7822 21.9081 37.8108 21.9751C37.8404 22.1528 37.87 22.3306 37.8717 22.5457C37.8188 22.6106 37.7938 22.6381 37.7689 22.6655C37.8101 22.693 37.8512 22.7205 37.8924 22.7479C37.871 23.1141 37.8496 23.4804 37.7937 23.8946C37.7746 24.0309 37.7899 24.1191 37.8053 24.2075C37.7017 24.6153 37.5983 25.0231 37.494 25.4631ZM35.7274 27.7096C35.6935 27.7093 35.6597 27.7089 35.6259 27.7085C35.6257 27.7225 35.6257 27.7488 35.6257 27.7488C35.6593 27.7514 35.6931 27.7516 35.7274 27.7096ZM35.2124 27.7095C35.1785 27.7092 35.1446 27.7088 35.1107 27.7085C35.1106 27.7225 35.1104 27.7489 35.1104 27.7489C35.1441 27.7514 35.178 27.7516 35.2124 27.7095Z" fill="#FDFDFD"/>
<path d="M35.2447 17.1547C35.0968 17.0796 34.9525 16.9775 34.7988 16.8518C34.9694 16.8281 35.1497 16.8281 35.3996 16.8281C35.3147 16.996 35.2815 17.0619 35.2447 17.1547Z" fill="#090909"/>
<path d="M35.5486 28.4898C35.4774 28.444 35.432 28.3898 35.3867 28.3356C35.5016 28.3056 35.6162 28.2756 35.7597 28.2451C35.717 28.3237 35.6459 28.4025 35.5486 28.4898Z" fill="#F8F8F8"/>
<path d="M35.877 28.1591C35.9127 28.0792 35.9738 27.9899 36.0671 27.8994C36.0336 27.9821 35.968 28.0658 35.877 28.1591Z" fill="#F8F8F8"/>
<path d="M34.9434 16.0793C34.9429 16.0147 34.9604 15.9688 34.978 15.9229C35.0015 15.9345 35.025 15.946 35.0485 15.9576C35.0195 16.0044 34.9905 16.0512 34.9434 16.0793Z" fill="#090909"/>
<path d="M35.6245 16.3726C35.5797 16.4281 35.5299 16.4825 35.4799 16.5369C35.4534 16.5113 35.4269 16.4858 35.4004 16.4602C35.4537 16.4331 35.5069 16.406 35.589 16.3698C35.6177 16.3608 35.6192 16.3715 35.6245 16.3726Z" fill="#090909"/>
<path d="M32.8545 30.15C32.8819 30.1038 32.9231 30.0774 32.9891 30.0547C32.9655 30.0956 32.9168 30.1327 32.8545 30.15Z" fill="#090909"/>
<path d="M34.1711 30.6892C34.1671 30.6916 34.1751 30.6868 34.1711 30.6892V30.6892Z" fill="#090909"/>
<path d="M34.8532 29.923C34.8508 29.919 34.8557 29.9271 34.8532 29.923V29.923Z" fill="#090909"/>
<path d="M34.1876 29.585C34.2081 29.5948 34.227 29.6102 34.2457 29.6258C34.2293 29.6258 34.2128 29.6259 34.1854 29.6101C34.1744 29.5942 34.1859 29.5908 34.1876 29.585Z" fill="#090909"/>
<path d="M35.8719 29.4863C35.8522 29.4753 35.8343 29.4588 35.8164 29.4424C35.8329 29.4432 35.8495 29.4441 35.8754 29.4619C35.8848 29.4789 35.8737 29.4809 35.8719 29.4863Z" fill="#090909"/>
<path d="M35.7617 28.7598C35.7722 28.7722 35.7831 28.7845 35.7936 28.7968C35.7861 28.7926 35.7782 28.7883 35.7662 28.772C35.7616 28.7599 35.7617 28.7598 35.7617 28.7598Z" fill="#090909"/>
<path d="M35.7616 28.7611C35.7511 28.7489 35.7409 28.7369 35.7305 28.7246C35.7379 28.7288 35.745 28.7331 35.7571 28.7492C35.7617 28.7611 35.7616 28.7611 35.7616 28.7611Z" fill="#090909"/>
<path d="M35.5707 28.6293C35.5875 28.6147 35.5908 28.6198 35.5934 28.6182C35.5818 28.6257 35.5679 28.6347 35.5707 28.6293Z" fill="#090909"/>
<path d="M36.4219 20.055C36.6562 19.9775 36.8906 19.8999 37.1651 19.8203C37.3705 20.2866 37.5359 20.755 37.6732 21.2569C37.3855 21.4787 37.5506 21.5716 37.7286 21.6617C37.7286 21.6617 37.73 21.6566 37.7326 21.6564C37.5643 21.7576 37.3934 21.859 37.1774 21.9477C36.8954 21.3084 36.6587 20.6817 36.4219 20.055Z" fill="#F8F8F8"/>
<path d="M36.5496 18.6852C36.4166 18.7125 36.2785 18.7163 36.1406 18.72C36.2087 18.6559 36.2769 18.5918 36.3859 18.5238C36.4268 18.5198 36.4222 18.5216 36.3981 18.5246C36.3643 18.5346 36.3547 18.5416 36.345 18.5486C36.3717 18.5405 36.3983 18.5325 36.4249 18.5245C36.4648 18.5702 36.5049 18.6159 36.5496 18.6852Z" fill="#F8F8F8"/>
<path d="M37.7422 21.6485C37.5537 21.5758 37.3885 21.4828 37.6795 21.293C37.7249 21.4048 37.7389 21.5179 37.7422 21.6485Z" fill="#FDFDFD"/>
<path d="M36.9803 19.3933C36.9333 19.4532 36.8772 19.492 36.8213 19.5309C36.8261 19.4404 36.8309 19.3498 36.8589 19.2441C36.9118 19.2767 36.9418 19.3245 36.9803 19.3933Z" fill="#F8F8F8"/>
<path d="M37.812 24.1772C37.7896 24.1196 37.7742 24.0312 37.7845 23.9219C37.8132 23.9828 37.8162 24.0647 37.812 24.1772Z" fill="#F8F8F8"/>
<path d="M37.8187 21.9596C37.7844 21.9154 37.7555 21.8484 37.7658 21.7764C37.811 21.8265 37.8178 21.8816 37.8187 21.9596Z" fill="#F8F8F8"/>
<path d="M37.898 22.7231C37.8501 22.7241 37.8087 22.6966 37.7676 22.6692C37.7925 22.6417 37.8173 22.6143 37.8662 22.583C37.8949 22.6176 37.9 22.6561 37.898 22.7231Z" fill="#F8F8F8"/>
<path d="M36.4239 18.5216C36.4001 18.5302 36.3733 18.5382 36.3467 18.5463C36.3563 18.5393 36.3661 18.5323 36.4004 18.5246C36.4251 18.5239 36.421 18.5209 36.4239 18.5216Z" fill="#FDFDFD"/>
<path d="M36.4008 20.0433C36.6608 20.6905 36.8974 21.3171 37.1417 21.9734C37.3013 23.0162 37.2175 24.0079 36.8703 24.9734C36.5823 25.7739 36.1243 26.4669 35.4818 27.0995C35.3948 27.1873 35.3451 27.2393 35.2953 27.2912C34.498 27.9019 33.6249 28.3257 32.6181 28.4827C30.601 28.7973 28.2269 27.5762 27.3536 25.7441C27.3366 25.7084 27.3432 25.6616 27.3389 25.6199C28.8618 25.4351 29.8219 24.3722 29.7829 22.9199C29.7453 21.5205 28.7734 20.5192 27.3443 20.4075C28.2797 18.0108 32.0662 16.1913 35.2086 18.6643C35.3898 18.8208 35.5309 18.9461 35.6719 19.0714C35.9071 19.3885 36.1424 19.7056 36.4008 20.0433Z" fill="#010101"/>
<path d="M35.6852 19.0427C35.5317 18.9433 35.3906 18.818 35.2383 18.6665C35.5605 18.2476 35.6992 18.6277 35.9426 18.8254C35.8477 18.8996 35.7727 18.9583 35.6852 19.0427Z" fill="#F8F8F8"/>
<path d="M36.1425 18.2662C36.0788 18.3295 36.0097 18.3915 35.9409 18.4535C35.9196 18.4235 35.8983 18.3935 35.877 18.3635C35.9421 18.3332 36.0072 18.3029 36.1041 18.2634C36.136 18.2543 36.1374 18.2649 36.1425 18.2662Z" fill="#F8F8F8"/>
<path d="M35.3203 27.2985C35.3454 27.2376 35.3953 27.1857 35.4705 27.124C35.5533 27.2628 35.6114 27.4121 35.3203 27.2985Z" fill="#F8F8F8"/>
<path d="M35.7259 27.7362C35.6918 27.757 35.6581 27.7568 35.6244 27.7542C35.6244 27.7542 35.6245 27.7279 35.6246 27.7139C35.6585 27.7142 35.6922 27.7146 35.7259 27.7362Z" fill="#F8F8F8"/>
<path d="M35.2117 27.7362C35.1776 27.7571 35.1435 27.7568 35.1097 27.7543C35.1097 27.7543 35.1099 27.7279 35.1101 27.7139C35.144 27.7142 35.178 27.7146 35.2117 27.7362Z" fill="#F8F8F8"/>
<path d="M36.3234 19.5329C36.3194 19.5353 36.3274 19.5305 36.3234 19.5329V19.5329Z" fill="#F8F8F8"/>
<path d="M36.9221 25.6306C36.9181 25.6329 36.926 25.6282 36.9221 25.6306V25.6306Z" fill="#F8F8F8"/>
<path d="M37.0949 25.8874C37.0909 25.8898 37.0989 25.885 37.0949 25.8874V25.8874Z" fill="#F8F8F8"/>
<path d="M26.4994 35.5984C33.4582 35.5984 39.0994 29.9572 39.0994 22.9984C39.0994 16.0396 33.4582 10.3984 26.4994 10.3984C19.5406 10.3984 13.8994 16.0396 13.8994 22.9984C13.8994 29.9572 19.5406 35.5984 26.4994 35.5984Z" fill="#FDFDFD"/>
<path d="M28.6008 32.8C34.0132 32.8 38.4008 28.2557 38.4008 22.65C38.4008 17.0443 34.0132 12.5 28.6008 12.5C23.1884 12.5 18.8008 17.0443 18.8008 22.65C18.8008 28.2557 23.1884 32.8 28.6008 32.8Z" fill="#020202"/>
<path d="M30.7002 30.6979C34.5662 30.6979 37.7002 27.2504 37.7002 22.9979C37.7002 18.7453 34.5662 15.2979 30.7002 15.2979C26.8342 15.2979 23.7002 18.7453 23.7002 22.9979C23.7002 27.2504 26.8342 30.6979 30.7002 30.6979Z" fill="#FDFDFD"/>
<path d="M31.751 28.5994C34.6505 28.5994 37.001 26.0922 37.001 22.9994C37.001 19.9066 34.6505 17.3994 31.751 17.3994C28.8515 17.3994 26.501 19.9066 26.501 22.9994C26.501 26.0922 28.8515 28.5994 31.751 28.5994Z" fill="#010101"/>
<path d="M27.1994 25.8021C28.7458 25.8021 29.9994 24.5485 29.9994 23.0021C29.9994 21.4558 28.7458 20.2021 27.1994 20.2021C25.653 20.2021 24.3994 21.4558 24.3994 23.0021C24.3994 24.5485 25.653 25.8021 27.1994 25.8021Z" fill="#FDFDFD"/>
</svg>
