<svg width="45" height="46" viewBox="0 0 45 46" fill="none" xmlns="http://www.w3.org/2000/svg">
<rect y="0.5" width="45" height="45" rx="22.5" fill="white"/>
<path fill-rule="evenodd" clip-rule="evenodd" d="M10.5623 23.6038C9.24882 24.5594 5.71693 27.2194 4.66052 28.4399C3.59725 29.6681 3.99452 30.5879 4.61906 30.9419C5.00022 31.1582 5.53588 31.0776 6.08974 30.9777C7.21922 30.7737 8.73822 30.2062 10.4663 29.4424C10.5743 29.3949 10.6801 29.3398 10.7923 29.2971C10.8746 29.266 10.9211 29.1959 10.9211 29.0701C10.9211 28.2153 10.9258 23.9071 10.9258 23.7388C10.9258 23.5853 10.7675 23.4546 10.5623 23.6038Z" fill="#41A057"/>
<path fill-rule="evenodd" clip-rule="evenodd" d="M25.6593 15.0869C25.5567 15.1292 25.453 15.1721 25.3477 15.2166C23.6372 15.936 21.6004 16.9306 19.4778 18.0798C19.3773 18.1341 19.2768 18.1893 19.1757 18.2438C19.1041 18.2826 19.043 18.3524 19.043 18.4642C19.043 19.4285 19.043 24.7896 19.043 24.8534C19.043 25.0584 19.1971 25.1516 19.3791 25.0678C19.4594 25.0305 19.4868 25.0187 19.5654 24.9793C21.6918 23.9142 23.7389 22.9222 25.4887 22.2074C25.606 22.1593 25.7232 22.1158 25.8365 22.0675C25.9033 22.0385 25.9722 21.992 25.9722 21.8196C25.9722 20.7268 25.9722 15.3917 25.9722 15.2581C25.9722 15.1089 25.8099 15.0252 25.6593 15.0869Z" fill="#F9BF41"/>
<path fill-rule="evenodd" clip-rule="evenodd" d="M11.8097 28.8306C13.8513 27.8758 16.1014 26.7258 18.3179 25.6065C18.3606 25.5847 18.4462 25.5283 18.4462 25.3933C18.4462 24.4392 18.4462 19.2021 18.4462 19.0044C18.4462 18.7867 18.2197 18.7557 18.105 18.8371C15.892 20.0832 13.6834 21.4429 11.6661 22.8304C11.6311 22.8542 11.5166 22.9094 11.5166 23.0633C11.5166 23.9086 11.5166 28.4533 11.5166 28.6182C11.5166 28.8512 11.7116 28.8765 11.8097 28.8306Z" fill="#055DA0"/>
<path fill-rule="evenodd" clip-rule="evenodd" d="M33.3824 15.5812C32.0348 14.6253 30.6587 13.999 29.392 13.999C28.8669 13.999 28.0464 14.2033 27.0216 14.5645C26.9258 14.5982 26.8286 14.6337 26.729 14.6698C26.6488 14.699 26.5694 14.7548 26.5685 14.8902C26.5616 15.9066 26.5685 21.3948 26.5685 21.475C26.5685 21.6008 26.6768 21.7544 26.8817 21.6754C27.1209 21.583 27.3275 21.5269 27.5518 21.4588C28.3076 21.2301 28.9574 21.0995 29.4672 21.0995C30.5471 21.0995 31.8267 21.8475 33.1691 22.7897C33.2783 22.866 33.4978 22.8359 33.4978 22.6286C33.4978 21.1353 33.4978 15.9072 33.4978 15.799C33.4978 15.6731 33.4209 15.6087 33.3824 15.5812Z" fill="#E1563D"/>
<path fill-rule="evenodd" clip-rule="evenodd" d="M34.0957 16.5704C34.0957 16.6256 34.0957 22.3211 34.0957 23.3091C34.0957 23.4031 34.1375 23.4836 34.2225 23.5477C34.3301 23.6294 34.4405 23.7085 34.5496 23.789C36.4191 25.1681 38.3201 26.5603 39.9065 26.5603C40.2692 26.5603 41.0249 26.2123 40.9999 25.243C40.9999 24.1261 38.0914 19.5684 34.6865 16.6095C34.6004 16.5347 34.5187 16.455 34.4274 16.3882C34.2693 16.2722 34.0952 16.3948 34.0957 16.5704Z" fill="#055DA0"/>
</svg>
