<svg width="26" height="26" viewBox="0 0 26 26" fill="none" xmlns="http://www.w3.org/2000/svg">
<g filter="url(#filter0_d_4380_584)">
<rect x="2.59961" y="1" width="21.6" height="21.6" rx="2.08401" fill="url(#paint0_linear_4380_584)" shape-rendering="crispEdges"/>
<rect x="2.09961" y="0.5" width="22.6" height="22.6" rx="2.58401" stroke="black" stroke-opacity="0.8" shape-rendering="crispEdges"/>
<path d="M16.5937 5.58838H14.7631L16.2878 8.26775L12.9324 5.58838H11.1017L12.7794 8.86481L9.27109 5.58838H7.44043L9.27109 9.75793L7.44043 18.097H9.27109L12.7794 9.16087L11.1017 18.097H12.9324L16.2878 8.56875L14.7631 18.097H16.5937L19.9491 7.67069L16.5937 5.58838Z" fill="white" fill-opacity="0.1"/>
<path d="M14.8955 17.9841L16.3993 8.58659L16.1813 8.53124L12.8525 17.9841H11.2378L12.8904 9.1817L12.6743 9.11961L9.19412 17.9841H7.58081L9.38136 9.78214L9.38925 9.74622L9.37446 9.71254L7.61331 5.70128H9.22656L12.7024 8.94732L12.8799 8.81335L11.2864 5.70128H12.8928L16.2173 8.35598L16.3859 8.21191L14.9572 5.70128H16.5615L19.8146 7.72009L16.5114 17.9841H14.8955Z" stroke="url(#paint1_linear_4380_584)" stroke-opacity="0.2" stroke-width="0.225808"/>
</g>
<defs>
<filter id="filter0_d_4380_584" x="0.878085" y="0" width="25.0427" height="25.7647" filterUnits="userSpaceOnUse" color-interpolation-filters="sRGB">
<feFlood flood-opacity="0" result="BackgroundImageFix"/>
<feColorMatrix in="SourceAlpha" type="matrix" values="0 0 0 0 0 0 0 0 0 0 0 0 0 0 0 0 0 0 127 0" result="hardAlpha"/>
<feOffset dy="1.44305"/>
<feGaussianBlur stdDeviation="0.360762"/>
<feComposite in2="hardAlpha" operator="out"/>
<feColorMatrix type="matrix" values="0 0 0 0 0.0215191 0 0 0 0 0.00697913 0 0 0 0 0.111667 0 0 0 0.4 0"/>
<feBlend mode="normal" in2="BackgroundImageFix" result="effect1_dropShadow_4380_584"/>
<feBlend mode="normal" in="SourceGraphic" in2="effect1_dropShadow_4380_584" result="shape"/>
</filter>
<linearGradient id="paint0_linear_4380_584" x1="13.3996" y1="3.5" x2="13.3996" y2="29.5" gradientUnits="userSpaceOnUse">
<stop stop-color="#100934"/>
<stop offset="1" stop-color="#140B3F"/>
</linearGradient>
<linearGradient id="paint1_linear_4380_584" x1="13.6948" y1="18.097" x2="13.6948" y2="5.58838" gradientUnits="userSpaceOnUse">
<stop stop-color="white"/>
<stop offset="1" stop-color="white" stop-opacity="0"/>
</linearGradient>
</defs>
</svg>
