<svg width="26" height="26" viewBox="0 0 26 26" fill="none" xmlns="http://www.w3.org/2000/svg">
<g filter="url(#filter0_d_4380_605)">
<rect x="2.2002" y="1.2002" width="21.6" height="21.6" rx="2.08401" fill="url(#paint0_linear_4380_605)" shape-rendering="crispEdges"/>
<rect x="1.7002" y="0.700195" width="22.6" height="22.6" rx="2.58401" stroke="black" stroke-opacity="0.8" shape-rendering="crispEdges"/>
<path d="M13.1172 14.0748C12.0354 14.0748 11.1681 13.2497 11.1681 12.2403C11.1681 11.231 12.0447 10.4059 13.1172 10.4059C14.1896 10.4059 15.0663 11.231 15.0663 12.2403C15.0663 13.2497 14.199 14.0748 13.1172 14.0748ZM19.9717 11.5645H15.7937L19.4121 9.59839L18.694 8.43102L15.0756 10.3971L17.1646 6.99155L15.9243 6.3157L13.8353 9.72127V5.78906H12.3991V9.72127L10.3101 6.3157L9.06977 6.99155L11.1588 10.3971L7.54033 8.43102L6.82224 9.59839L10.4407 11.5645H6.2627V12.9162H10.4407L6.82224 14.8823L7.54033 16.0497L11.1588 14.0836L9.06977 17.4891L10.3101 18.165L12.3991 14.7594V18.6916H13.8353V14.6804L15.9616 18.1474L17.1273 17.5155L15.001 14.0397L18.694 16.0497L19.4121 14.8823L15.7937 12.9162H19.9717V11.5645Z" fill="white" fill-opacity="0.1"/>
<path d="M20.0759 11.5645V11.4603H19.9717H16.2037L19.4619 9.68995L19.5585 9.63745L19.5009 9.54379L18.7828 8.37642L18.731 8.29231L18.6443 8.33946L15.3681 10.1196L17.2534 7.04603L17.3108 6.95253L17.2144 6.90005L15.9741 6.2242L15.8872 6.17684L15.8354 6.26121L13.9395 9.35211V5.78906V5.68486H13.8353H12.3991H12.2949V5.78906V9.35211L10.3989 6.26121L10.3472 6.17684L10.2602 6.2242L9.01991 6.90005L8.92359 6.95253L8.98095 7.04603L10.8663 10.1196L7.59008 8.33946L7.50332 8.29231L7.45158 8.37642L6.73349 9.54379L6.67588 9.63745L6.7725 9.68995L10.0306 11.4603H6.2627H6.15849V11.5645V12.9162V13.0204H6.2627H10.0306L6.7725 14.7907L6.67588 14.8432L6.73349 14.9369L7.45158 16.1043L7.50332 16.1884L7.59008 16.1412L10.8663 14.3611L8.98095 17.4347L8.92359 17.5282L9.01991 17.5806L10.2602 18.2565L10.3472 18.3038L10.3989 18.2195L12.2949 15.1286V18.6916V18.7958H12.3991H13.8353H13.9395V18.6916V15.0496L15.8727 18.2019L15.9244 18.2861L16.0112 18.239L17.1769 17.6071L17.2735 17.5547L17.2162 17.4611L15.2929 14.3172L18.6442 16.1412L18.731 16.1884L18.7828 16.1043L19.5009 14.9369L19.5585 14.8432L19.4619 14.7907L16.2037 13.0204H19.9717H20.0759V12.9162V11.5645ZM13.1172 13.9706C12.0872 13.9706 11.2723 13.1866 11.2723 12.2403C11.2723 11.2944 12.0962 10.5101 13.1172 10.5101C14.1381 10.5101 14.9621 11.2944 14.9621 12.2403C14.9621 13.1866 14.1471 13.9706 13.1172 13.9706Z" stroke="url(#paint1_linear_4380_605)" stroke-opacity="0.2" stroke-width="0.208401"/>
</g>
<defs>
<filter id="filter0_d_4380_605" x="0.478671" y="0.200195" width="25.0427" height="25.7647" filterUnits="userSpaceOnUse" color-interpolation-filters="sRGB">
<feFlood flood-opacity="0" result="BackgroundImageFix"/>
<feColorMatrix in="SourceAlpha" type="matrix" values="0 0 0 0 0 0 0 0 0 0 0 0 0 0 0 0 0 0 127 0" result="hardAlpha"/>
<feOffset dy="1.44305"/>
<feGaussianBlur stdDeviation="0.360762"/>
<feComposite in2="hardAlpha" operator="out"/>
<feColorMatrix type="matrix" values="0 0 0 0 0.0215191 0 0 0 0 0.00697913 0 0 0 0 0.111667 0 0 0 0.4 0"/>
<feBlend mode="normal" in2="BackgroundImageFix" result="effect1_dropShadow_4380_605"/>
<feBlend mode="normal" in="SourceGraphic" in2="effect1_dropShadow_4380_605" result="shape"/>
</filter>
<linearGradient id="paint0_linear_4380_605" x1="13.0002" y1="3.7002" x2="13.0002" y2="29.7002" gradientUnits="userSpaceOnUse">
<stop stop-color="#100934"/>
<stop offset="1" stop-color="#140B3F"/>
</linearGradient>
<linearGradient id="paint1_linear_4380_605" x1="13.1172" y1="18.6916" x2="13.1172" y2="5.78906" gradientUnits="userSpaceOnUse">
<stop stop-color="white"/>
<stop offset="1" stop-color="white" stop-opacity="0"/>
</linearGradient>
</defs>
</svg>
