<svg width="40" height="40" viewBox="0 0 40 40" fill="none" xmlns="http://www.w3.org/2000/svg">
<rect width="40" height="40" rx="5" fill="#95DFFF"/>
<path d="M25.1667 12.3333C25.1667 15.0027 23.0027 17.1667 20.3333 17.1667V18.1667C23.555 18.1667 26.1667 15.555 26.1667 12.3333H25.1667ZM20.3333 17.1667C17.664 17.1667 15.5 15.0027 15.5 12.3333H14.5C14.5 15.555 17.1117 18.1667 20.3333 18.1667V17.1667ZM15.5 12.3333C15.5 9.66396 17.664 7.5 20.3333 7.5V6.5C17.1117 6.5 14.5 9.11167 14.5 12.3333H15.5ZM20.3333 7.5C23.0027 7.5 25.1667 9.66396 25.1667 12.3333H26.1667C26.1667 9.11167 23.555 6.5 20.3333 6.5V7.5ZM16.3333 22.1667H24.3333V21.1667H16.3333V22.1667ZM24.3333 31.8333H16.3333V32.8333H24.3333V31.8333ZM16.3333 31.8333C13.664 31.8333 11.5 29.6694 11.5 27H10.5C10.5 30.2217 13.1117 32.8333 16.3333 32.8333V31.8333ZM29.1667 27C29.1667 29.6694 27.0027 31.8333 24.3333 31.8333V32.8333C27.555 32.8333 30.1667 30.2217 30.1667 27H29.1667ZM24.3333 22.1667C27.0027 22.1667 29.1667 24.3306 29.1667 27H30.1667C30.1667 23.7783 27.555 21.1667 24.3333 21.1667V22.1667ZM16.3333 21.1667C13.1117 21.1667 10.5 23.7783 10.5 27H11.5C11.5 24.3306 13.664 22.1667 16.3333 22.1667V21.1667Z" fill="#150E3F"/>
</svg>
