<svg width="40" height="40" viewBox="0 0 40 40" fill="none" xmlns="http://www.w3.org/2000/svg">
<rect width="40" height="40" rx="5" fill="#FFEB9A"/>
<path d="M19.5 27.7C19.5 27.9761 19.7239 28.2 20 28.2C20.2761 28.2 20.5 27.9761 20.5 27.7H19.5ZM20.5 12.3C20.5 12.0239 20.2761 11.8 20 11.8C19.7239 11.8 19.5 12.0239 19.5 12.3H20.5ZM22.963 15.9344C23.101 16.1736 23.4068 16.2555 23.646 16.1174C23.8851 15.9794 23.9671 15.6736 23.829 15.4344L22.963 15.9344ZM22.9829 14.9689L22.5498 15.2189V15.2189L22.9829 14.9689ZM19.0431 19.648L19.2157 19.1787L19.2157 19.1787L19.0431 19.648ZM20.9572 20.352L21.1298 19.8828L21.1298 19.8828L20.9572 20.352ZM17.0174 25.0311L16.5844 25.2811L17.0174 25.0311ZM17.0373 24.0656C16.8992 23.8264 16.5934 23.7445 16.3543 23.8826C16.1151 24.0206 16.0332 24.3264 16.1713 24.5656L17.0373 24.0656ZM21.4607 26.2217L21.2107 25.7887L21.4607 26.2217ZM18.5396 13.7783L18.7896 14.2113L18.5396 13.7783ZM30.5 20C30.5 25.799 25.799 30.5 20 30.5V31.5C26.3513 31.5 31.5 26.3513 31.5 20H30.5ZM20 30.5C14.201 30.5 9.5 25.799 9.5 20H8.5C8.5 26.3513 13.6487 31.5 20 31.5V30.5ZM9.5 20C9.5 14.201 14.201 9.5 20 9.5V8.5C13.6487 8.5 8.5 13.6487 8.5 20H9.5ZM20 9.5C25.799 9.5 30.5 14.201 30.5 20H31.5C31.5 13.6487 26.3513 8.5 20 8.5V9.5ZM23.829 15.4344L23.4159 14.7189L22.5498 15.2189L22.963 15.9344L23.829 15.4344ZM17.4504 24.7811L17.0373 24.0656L16.1713 24.5656L16.5844 25.2811L17.4504 24.7811ZM20.7846 20.8213C22.975 21.627 23.2318 24.6218 21.2107 25.7887L21.7107 26.6547C24.4661 25.0639 24.1159 20.9811 21.1298 19.8828L20.7846 20.8213ZM18.2896 13.3453C15.5342 14.9361 15.8844 19.0189 18.8705 20.1172L19.2157 19.1787C17.0253 18.3731 16.7684 15.3782 18.7896 14.2113L18.2896 13.3453ZM20.5 27.7V26.6539H19.5V27.7H20.5ZM20.5 26.6539V20H19.5V26.6539H20.5ZM21.2107 25.7887C20.8189 26.0149 20.3961 26.1334 19.9749 26.1546L20.0251 27.1533C20.6009 27.1244 21.1785 26.962 21.7107 26.6547L21.2107 25.7887ZM19.9749 26.1546C18.9747 26.2048 17.9845 25.7062 17.4504 24.7811L16.5844 25.2811C17.3133 26.5437 18.6647 27.2216 20.0251 27.1533L19.9749 26.1546ZM18.8704 20.1172L19.8274 20.4693L20.1726 19.5307L19.2157 19.1787L18.8704 20.1172ZM19.8274 20.4693L20.7846 20.8213L21.1298 19.8828L20.1726 19.5307L19.8274 20.4693ZM20.5 20L20.5 13.3461L19.5 13.3461L19.5 20H20.5ZM20.5 13.3461V12.3H19.5V13.3461H20.5ZM23.4159 14.7189C22.6869 13.4563 21.3353 12.7783 19.9749 12.8467L20.0251 13.8454C21.0254 13.7952 22.0157 14.2938 22.5498 15.2189L23.4159 14.7189ZM19.9749 12.8467C19.3992 12.8756 18.8217 13.0381 18.2896 13.3453L18.7896 14.2113C19.1812 13.9852 19.604 13.8666 20.0251 13.8454L19.9749 12.8467Z" fill="#150E3F"/>
</svg>
