<svg width="30" height="30" viewBox="0 0 30 30" fill="none" xmlns="http://www.w3.org/2000/svg">
<path d="M30 15C30 23.286 23.286 30 15 30C6.714 30 0 23.286 0 15C0 6.714 6.714 0 15 0C23.286 0 30 6.72 30 15Z" fill="#E4F8FF"/>
<path d="M21.492 12.552H17.616V12.372C17.616 11.712 17.748 11.166 18.012 10.74C18.276 10.308 18.732 9.93 19.392 9.594L19.692 9.444C20.226 9.174 20.364 8.93999 20.364 8.66399C20.364 8.33399 20.076 8.094 19.614 8.094C19.062 8.094 18.648 8.382 18.36 8.96399L17.616 8.21999C17.778 7.87199 18.042 7.596 18.39 7.374C18.744 7.152 19.134 7.044 19.56 7.044C20.094 7.044 20.556 7.18199 20.934 7.47C21.324 7.75799 21.516 8.154 21.516 8.652C21.516 9.45 21.066 9.936 20.226 10.368L19.752 10.608C19.248 10.86 19.002 11.088 18.93 11.49H21.492V12.552ZM21.15 13.776H16.908L14.79 17.448H19.032L21.156 21.12L23.274 17.448L21.15 13.776ZM15.156 19.902C12.456 19.902 10.26 17.706 10.26 15.006C10.26 12.306 12.456 10.11 15.156 10.11L16.836 6.59999C16.29 6.49199 15.732 6.43799 15.156 6.43799C10.422 6.43799 6.582 10.278 6.582 15.006C6.582 19.74 10.416 23.58 15.156 23.58C17.04 23.58 18.786 22.968 20.202 21.936L18.342 18.72C17.49 19.452 16.374 19.902 15.156 19.902Z" fill="#F2683C"/>
</svg>
