<svg width="40" height="40" viewBox="0 0 40 40" fill="none" xmlns="http://www.w3.org/2000/svg">
<rect width="40" height="40" rx="5" fill="#EEEEEE"/>
<path d="M13.0307 32.0478L13.1852 31.5723L13.0307 32.0478ZM9.2855 28.3026L9.76103 28.1481L9.2855 28.3026ZM29.7145 28.3026L29.239 28.1481L29.7145 28.3026ZM25.9693 32.0478L25.8148 31.5723L25.9693 32.0478ZM25.9693 16.2855L25.8148 16.761L25.9693 16.2855ZM29.7145 20.0307L29.239 20.1852L29.7145 20.0307ZM13.0307 16.2855L13.1852 16.761L13.0307 16.2855ZM9.2855 20.0307L9.76103 20.1852L9.2855 20.0307ZM17.1667 16.5H21.8333V15.5H17.1667V16.5ZM21.8333 31.8333H17.1667V32.8333H21.8333V31.8333ZM17.1667 31.8333C14.9563 31.8333 13.9696 31.8272 13.1852 31.5723L12.8762 32.5234C13.8492 32.8395 15.0341 32.8333 17.1667 32.8333V31.8333ZM8.5 24.1667C8.5 26.2992 8.49383 27.4841 8.80998 28.4571L9.76103 28.1481C9.50617 27.3637 9.5 26.3771 9.5 24.1667H8.5ZM13.1852 31.5723C11.5616 31.0447 10.2886 29.7718 9.76103 28.1481L8.80998 28.4571C9.43646 30.3852 10.9481 31.8969 12.8762 32.5234L13.1852 31.5723ZM29.5 24.1667C29.5 26.3771 29.4938 27.3637 29.239 28.1481L30.19 28.4571C30.5062 27.4841 30.5 26.2992 30.5 24.1667H29.5ZM21.8333 32.8333C23.9659 32.8333 25.1508 32.8395 26.1238 32.5234L25.8148 31.5723C25.0304 31.8272 24.0437 31.8333 21.8333 31.8333V32.8333ZM29.239 28.1481C28.7114 29.7718 27.4384 31.0447 25.8148 31.5723L26.1238 32.5234C28.0519 31.8969 29.5635 30.3852 30.19 28.4571L29.239 28.1481ZM30.5 24.1667C30.5 22.0341 30.5062 20.8492 30.19 19.8762L29.239 20.1852C29.4938 20.9696 29.5 21.9563 29.5 24.1667H30.5ZM25.8148 16.761C27.4384 17.2886 28.7114 18.5616 29.239 20.1852L30.19 19.8762C29.5635 17.9481 28.0519 16.4365 26.1238 15.81L25.8148 16.761ZM9.5 24.1667C9.5 21.9563 9.50617 20.9696 9.76103 20.1852L8.80998 19.8762C8.49383 20.8492 8.5 22.0341 8.5 24.1667H9.5ZM12.8762 15.81C10.9481 16.4365 9.43646 17.9481 8.80998 19.8762L9.76103 20.1852C10.2886 18.5616 11.5616 17.2886 13.1852 16.761L12.8762 15.81ZM24.8333 14.8333V16H25.8333V14.8333H24.8333ZM14.1667 16V14.8333H13.1667V16H14.1667ZM19.5 9.5C22.4455 9.5 24.8333 11.8878 24.8333 14.8333H25.8333C25.8333 11.3355 22.9978 8.5 19.5 8.5V9.5ZM19.5 8.5C16.0022 8.5 13.1667 11.3355 13.1667 14.8333H14.1667C14.1667 11.8878 16.5545 9.5 19.5 9.5V8.5ZM16.6667 24.1667C16.6667 25.7315 17.9352 27 19.5 27V26C18.4875 26 17.6667 25.1792 17.6667 24.1667H16.6667ZM19.5 27C21.0648 27 22.3333 25.7315 22.3333 24.1667H21.3333C21.3333 25.1792 20.5125 26 19.5 26V27ZM22.3333 24.1667C22.3333 22.6019 21.0648 21.3333 19.5 21.3333V22.3333C20.5125 22.3333 21.3333 23.1541 21.3333 24.1667H22.3333ZM19.5 21.3333C17.9352 21.3333 16.6667 22.6019 16.6667 24.1667H17.6667C17.6667 23.1541 18.4875 22.3333 19.5 22.3333V21.3333ZM17.1667 15.5C15.5049 15.5 14.4227 15.4983 13.5836 15.6396L13.7497 16.6257C14.4856 16.5017 15.4646 16.5 17.1667 16.5V15.5ZM13.5836 15.6396C13.3336 15.6817 13.1007 15.737 12.8762 15.81L13.1852 16.761C13.3569 16.7053 13.5413 16.6608 13.7497 16.6257L13.5836 15.6396ZM13.1667 16V16.1327H14.1667V16H13.1667ZM21.8333 16.5C23.5354 16.5 24.5144 16.5017 25.2503 16.6257L25.4164 15.6396C24.5773 15.4983 23.4951 15.5 21.8333 15.5V16.5ZM25.2503 16.6257C25.4587 16.6608 25.6431 16.7053 25.8148 16.761L26.1238 15.81C25.8993 15.737 25.6664 15.6817 25.4164 15.6396L25.2503 16.6257ZM24.8333 16V16.1327H25.8333V16H24.8333Z" fill="#A2A6B4"/>
</svg>
