<svg width="28" height="28" viewBox="0 0 28 28" fill="none" xmlns="http://www.w3.org/2000/svg">
<g clip-path="url(#clip0_4632_286)">
<mask id="mask0_4632_286" style="mask-type:luminance" maskUnits="userSpaceOnUse" x="3" y="3" width="22" height="22">
<path d="M24.0286 3.70508H3.34961V24.2951H24.0286V3.70508Z" fill="white"/>
</mask>
<g mask="url(#mask0_4632_286)">
<path d="M23.6243 14.1923C23.6243 13.3487 23.556 12.7331 23.4085 12.0947H13.8125V15.9022H19.4451C19.3316 16.8484 18.7184 18.2733 17.3556 19.2308L17.3365 19.3583L20.3706 21.7177L20.5808 21.7388C22.5113 19.949 23.6243 17.3157 23.6243 14.1923Z" fill="#4C8BF3"/>
<path d="M13.814 24.2247C16.5735 24.2247 18.8901 23.3126 20.5823 21.7395L17.3571 19.2316C16.494 19.8357 15.3357 20.2575 13.814 20.2575C11.1112 20.2575 8.81731 18.4679 7.99958 15.9941L7.87972 16.0044L4.72485 18.4553L4.68359 18.5704C6.36429 21.9219 9.81658 24.2247 13.814 24.2247Z" fill="#34A853"/>
<path d="M7.99599 15.9941C7.78023 15.3557 7.65536 14.6717 7.65536 13.9649C7.65536 13.2581 7.78023 12.5742 7.98465 11.9358L7.97893 11.7998L4.78453 9.30957L4.68001 9.35948C3.98731 10.7503 3.58984 12.312 3.58984 13.9649C3.58984 15.6179 3.98731 17.1796 4.68001 18.5703L7.99599 15.9941Z" fill="#FFD584"/>
<path d="M13.814 7.67211C15.7331 7.67211 17.0277 8.50428 17.7659 9.1997L20.6504 6.37258C18.8789 4.71965 16.5735 3.70508 13.814 3.70508C9.81657 3.70508 6.36429 6.00778 4.68359 9.35923L7.98822 11.9356C8.8173 9.46187 11.1112 7.67211 13.814 7.67211Z" fill="#EA4335"/>
</g>
</g>
<defs>
<clipPath id="clip0_4632_286">
<rect width="21.3" height="21.3" fill="white" transform="translate(3.09961 3.34961)"/>
</clipPath>
</defs>
</svg>
