<svg width="135" height="135" viewBox="0 0 135 135" fill="none" xmlns="http://www.w3.org/2000/svg">
<circle cx="67.5" cy="67.5" r="67.5" fill="#F9F8FF"/>
<rect x="17" y="17" width="100" height="100" rx="50" fill="#EFEDFF"/>
<path d="M47 72C47 66.3431 47 63.5147 48.7574 61.7574C50.5147 60 53.3431 60 59 60H75C80.6569 60 83.4853 60 85.2426 61.7574C87 63.5147 87 66.3431 87 72C87 77.6569 87 80.4853 85.2426 82.2426C83.4853 84 80.6569 84 75 84H59C53.3431 84 50.5147 84 48.7574 82.2426C47 80.4853 47 77.6569 47 72Z" fill="#C7BDFF" stroke="#150E3F" stroke-width="1.5"/>
<path d="M55 60V56C55 49.3726 60.3726 44 67 44C73.6274 44 79 49.3726 79 56V60" stroke="#150E3F" stroke-width="1.5" stroke-linecap="round"/>
<path d="M60.7596 71.2485H60.0096V71.2485L60.7596 71.2485ZM60.7596 72.4982L60.2313 73.0307C60.5237 73.3208 60.9954 73.3208 61.2878 73.0307L60.7596 72.4982ZM62.5474 71.781C62.8414 71.4892 62.8433 71.0143 62.5515 70.7203C62.2598 70.4263 61.7849 70.4244 61.4909 70.7161L62.5474 71.781ZM60.0282 70.7161C59.7342 70.4244 59.2593 70.4263 58.9676 70.7203C58.6759 71.0143 58.6777 71.4892 58.9718 71.781L60.0282 70.7161ZM71.7989 68.3921C72.0158 68.745 72.4778 68.8551 72.8306 68.6382C73.1835 68.4213 73.2937 67.9594 73.0768 67.6065L71.7989 68.3921ZM67.0574 64.25C63.1705 64.25 60.0096 67.3778 60.0096 71.2485H61.5096C61.5096 68.2173 63.9878 65.75 67.0574 65.75V64.25ZM60.0096 71.2485L60.0096 72.4982L61.5096 72.4982L61.5096 71.2485L60.0096 71.2485ZM61.2878 73.0307L62.5474 71.781L61.4909 70.7161L60.2313 71.9658L61.2878 73.0307ZM61.2878 71.9658L60.0282 70.7161L58.9718 71.781L60.2313 73.0307L61.2878 71.9658ZM73.0768 67.6065C71.8393 65.5937 69.6055 64.25 67.0574 64.25V65.75C69.0666 65.75 70.825 66.8078 71.7989 68.3921L73.0768 67.6065Z" fill="#150E3F"/>
<path d="M73.2346 70.999L73.7619 70.4656C73.4697 70.1768 72.9996 70.1768 72.7074 70.4656L73.2346 70.999ZM71.443 71.7153C71.1484 72.0065 71.1457 72.4814 71.4368 72.776C71.728 73.0706 72.2029 73.0733 72.4975 72.7821L71.443 71.7153ZM73.9718 72.7821C74.2664 73.0733 74.7412 73.0706 75.0324 72.776C75.3236 72.4814 75.3208 72.0065 75.0262 71.7153L73.9718 72.7821ZM62.15 75.1041C61.9324 74.7516 61.4703 74.6422 61.1178 74.8597C60.7653 75.0773 60.6559 75.5394 60.8735 75.8919L62.15 75.1041ZM66.9127 79.2473C70.8102 79.2473 73.9846 76.1221 73.9846 72.2487H72.4846C72.4846 75.2773 69.9983 77.7473 66.9127 77.7473V79.2473ZM73.9846 72.2487V70.999H72.4846V72.2487H73.9846ZM72.7074 70.4656L71.443 71.7153L72.4975 72.7821L73.7619 71.5324L72.7074 70.4656ZM72.7074 71.5324L73.9718 72.7821L75.0262 71.7153L73.7619 70.4656L72.7074 71.5324ZM60.8735 75.8919C62.1158 77.9049 64.3572 79.2473 66.9127 79.2473V77.7473C64.8934 77.7473 63.1275 76.6882 62.15 75.1041L60.8735 75.8919Z" fill="#150E3F"/>
</svg>
