<svg width="121" height="21" viewBox="0 0 121 21" fill="none" xmlns="http://www.w3.org/2000/svg">
<path fill-rule="evenodd" clip-rule="evenodd" d="M9.41751 12.8745C9.18443 12.8311 8.95119 12.7847 8.71849 12.7357C9.48367 13.7679 10.2198 14.7977 10.7736 15.6535C11.5462 16.8473 11.9651 17.8847 11.9058 18.7599C11.8736 19.2344 11.6992 19.6661 11.3729 20.0012C11.0586 20.324 10.6672 20.4921 10.303 20.5738C9.598 20.7318 8.80353 20.6119 8.15128 20.4122C7.49507 20.2113 6.81663 19.8784 6.35471 19.4534C5.709 18.8593 4.63587 17.4581 3.61356 16.0503C2.56484 14.6062 1.49212 13.045 0.823438 12.0467L0.817216 12.0374L0.811212 12.028C0.633462 11.7487 0.43606 11.4078 0.28286 11.0638C0.145393 10.7552 -0.0219134 10.3048 0.00236765 9.85521C0.0157462 9.60748 0.0917458 9.28595 0.338834 9.01017C0.59169 8.72796 0.920152 8.60879 1.21297 8.57445C1.73174 8.51359 2.33003 8.69369 2.94478 8.95722C3.15406 9.04694 3.40084 9.13173 3.65137 9.22941C3.57723 9.13346 3.52197 9.05565 3.46491 8.98081C3.39984 8.89544 3.32906 8.82522 3.28518 8.76513L3.27846 8.74774C3.25063 8.70965 3.18423 8.6399 3.14068 8.5626C3.14121 8.56355 3.14143 8.56409 3.14143 8.56409C3.14143 8.56409 3.13277 8.56742 3.12981 8.56314C3.12259 8.55271 3.11302 8.52324 3.0816 8.48045C3.02899 8.40881 2.95968 8.31761 2.87078 8.20061L2.87057 8.20033L2.87018 8.19982C2.69559 7.97005 2.46308 7.66395 2.21376 7.31235C1.7222 6.61914 1.12908 5.69964 0.756803 4.75702C0.40231 3.85943 0.14091 2.6699 0.730621 1.64146C1.34238 0.574571 2.62018 0.0931946 4.3223 0.0185417C11.0427 -0.276207 15.5784 3.01575 17.0371 4.72809C17.7102 5.51828 18.5726 6.72436 18.8385 8.07948C18.9755 8.77806 18.9582 9.53803 18.6553 10.2923C18.3523 11.0468 17.7934 11.7211 16.9702 12.2973C16.0278 12.9569 14.7794 13.2027 13.5169 13.2474C12.2334 13.2929 10.8114 13.1341 9.41751 12.8745ZM2.25804 10.7376C3.14946 11.1161 4.37787 11.5643 5.75616 11.9767C6.96418 13.5534 8.31288 15.3612 9.17255 16.6896C9.89852 17.8114 10.0185 18.4027 10.0031 18.6308C10.0023 18.6415 10.0009 18.65 9.99962 18.6572C9.99843 18.6641 9.99743 18.6698 9.99743 18.6753C9.99743 18.6867 9.94692 18.6992 9.88576 18.7129C9.63413 18.7693 9.20406 18.7401 8.70967 18.5887C8.21925 18.4385 7.82895 18.2183 7.6459 18.0499C7.16981 17.6119 6.21435 16.3863 5.15667 14.9298C4.1287 13.5142 3.0735 11.9789 2.41428 10.9949C2.36092 10.9108 2.30826 10.8244 2.25804 10.7376ZM15.5853 5.96475C14.4639 4.64824 10.474 1.65763 4.40586 1.92377C2.91085 1.98934 2.49893 2.39141 2.385 2.59009C2.24903 2.82722 2.22599 3.28537 2.53054 4.0565C2.8173 4.78258 3.30391 5.55281 3.76939 6.20923C3.9986 6.53246 4.21394 6.81616 4.38861 7.04603L4.39689 7.05692C4.47923 7.16528 4.55662 7.26713 4.61866 7.35159C4.66572 7.41568 4.73385 7.5094 4.78802 7.60175C4.79277 7.60853 4.80099 7.6201 4.81366 7.63746C4.84596 7.6817 4.89297 7.74433 4.9554 7.82623C5.07971 7.98932 5.2529 8.21276 5.46579 8.48656C5.53947 8.58133 5.6177 8.68186 5.69996 8.78756C6.03933 9.22365 6.4473 9.74791 6.88791 10.3197C7.81255 10.5803 8.79243 10.8182 9.76666 10.9997C11.0831 11.2448 12.3554 11.3803 13.4493 11.3416C14.5643 11.3021 15.3764 11.085 15.8766 10.7349C16.4557 10.3296 16.7452 9.93127 16.8856 9.58157C17.0261 9.23163 17.0474 8.85582 16.9671 8.44666C16.7983 7.58629 16.2023 6.689 15.5853 5.96475Z" fill="#FDFDFF"/>
<path d="M28.1426 17.1648V3.66734H34.4192C35.925 3.66734 37.1162 4.06233 37.9925 4.8523C38.8813 5.62993 39.3256 6.70997 39.3256 8.09242C39.3256 9.47487 38.8689 10.5549 37.9555 11.3325C37.0545 12.1102 35.8386 12.499 34.3081 12.499H31.0679V17.1648H28.1426ZM34.2895 6.16686H31.0679V10.0735H34.2895C34.882 10.0735 35.3696 9.91306 35.7522 9.59213C36.1472 9.2712 36.3447 8.78364 36.3447 8.12945C36.3447 7.49994 36.1596 7.01855 35.7893 6.68528C35.4313 6.33967 34.9314 6.16686 34.2895 6.16686Z" fill="#FDFDFF"/>
<path d="M39.9587 17.1648V6.50013H42.5879L42.7175 8.24054C43.2853 6.99386 44.1308 6.37053 45.254 6.37053C45.612 6.37053 45.9144 6.41373 46.1613 6.50013V9.16629H46.0502C45.8403 9.09223 45.5564 9.0552 45.1985 9.0552C44.5443 9.0552 44.0135 9.22183 43.6062 9.5551C43.1989 9.87603 42.9458 10.3266 42.8471 10.9067V17.1648H39.9587Z" fill="#FDFDFF"/>
<path d="M47.1514 17.1648V6.50013H50.0212V17.1648H47.1514ZM47.1329 5.01893V2.46387H50.0397V5.01893H47.1329Z" fill="#FDFDFF"/>
<path d="M51.7946 17.1648V6.50013H54.3682L54.5718 7.98133C54.9421 7.40119 55.3865 6.98152 55.9049 6.72231C56.4357 6.45076 56.9849 6.31498 57.5527 6.31498C58.2563 6.31498 58.892 6.48162 59.4598 6.81489C60.0276 7.13581 60.4596 7.62337 60.7558 8.27757C61.0644 7.67275 61.5088 7.19753 62.0889 6.85191C62.669 6.49396 63.3232 6.31498 64.0515 6.31498C65.2118 6.31498 66.1005 6.64825 66.7177 7.31479C67.3472 7.98133 67.6619 8.8577 67.6619 9.94391V17.1648H64.7736V10.6845C64.7736 10.1167 64.644 9.66619 64.3848 9.33292C64.1256 8.99965 63.7182 8.83302 63.1628 8.83302C62.5703 8.83302 62.0889 9.01199 61.7186 9.36995C61.3483 9.72791 61.1632 10.2648 61.1632 10.9808V17.1648H58.2933V10.7401C58.2933 10.1723 58.1637 9.71556 57.9045 9.36995C57.6453 9.01199 57.2318 8.83302 56.664 8.83302C56.0469 8.83302 55.5593 9.03051 55.2013 9.4255C54.8557 9.82048 54.6829 10.3266 54.6829 10.9437V17.1648H51.7946Z" fill="#FDFDFF"/>
<path d="M73.8563 17.3499C72.8195 17.3499 71.8937 17.1339 71.0791 16.7019C70.2644 16.2699 69.6226 15.6465 69.1535 14.8319C68.6968 14.0172 68.4685 13.0297 68.4685 11.8695C68.4685 10.7462 68.6845 9.77111 69.1165 8.94411C69.5609 8.10476 70.178 7.45674 70.968 7.00003C71.7703 6.54333 72.7084 6.31498 73.7823 6.31498C74.8808 6.31498 75.8251 6.56185 76.6151 7.05558C77.405 7.54931 77.9913 8.26522 78.374 9.20332C78.7566 10.1414 78.8862 11.2893 78.7628 12.6471H71.3568C71.4556 13.5235 71.7209 14.1592 72.153 14.5541C72.5973 14.9491 73.1774 15.1466 73.8934 15.1466C74.5229 15.1466 75.0413 15.0108 75.4486 14.7393C75.8683 14.4554 76.1275 14.0666 76.2262 13.5728L78.7072 14.2024C78.5591 14.8319 78.2629 15.3811 77.8185 15.8502C77.3742 16.3192 76.8126 16.6895 76.1337 16.9611C75.4548 17.2203 74.6957 17.3499 73.8563 17.3499ZM73.7267 8.48123C73.0972 8.48123 72.5788 8.67255 72.1715 9.0552C71.7641 9.43784 71.4988 10.0056 71.3753 10.7586H75.8559C75.8436 10.0303 75.6461 9.4687 75.2635 9.07371C74.8932 8.67873 74.3809 8.48123 73.7267 8.48123Z" fill="#FDFDFF"/>
<path d="M88.3567 17.3499C87.0483 17.3499 85.9189 17.0845 84.9685 16.5538C84.0181 16.023 83.2836 15.2392 82.7652 14.2024C82.2591 13.1655 82.0061 11.9003 82.0061 10.4068C82.0061 8.98731 82.2468 7.76532 82.7282 6.74083C83.2219 5.70399 83.944 4.90784 84.8944 4.35239C85.8449 3.7846 87.0113 3.50071 88.3938 3.50071C89.554 3.50071 90.5662 3.70437 91.4302 4.1117C92.2943 4.50669 92.9793 5.06831 93.4854 5.79656C94.0038 6.51247 94.3186 7.35182 94.4296 8.3146L91.4858 8.72193C91.35 7.88258 91.0167 7.24073 90.486 6.79637C89.9552 6.33967 89.2516 6.11132 88.3753 6.11132C87.3261 6.11132 86.5114 6.47544 85.9313 7.2037C85.3635 7.91961 85.0796 8.98731 85.0796 10.4068C85.0796 11.7892 85.3573 12.8569 85.9128 13.6099C86.4682 14.3628 87.289 14.7393 88.3753 14.7393C89.2763 14.7393 89.9984 14.5109 90.5415 14.0542C91.0846 13.5975 91.4179 12.9495 91.5413 12.1102L94.4852 12.4434C94.3741 13.4803 94.047 14.369 93.5039 15.1096C92.9608 15.8378 92.2449 16.3933 91.3562 16.7759C90.4798 17.1586 89.48 17.3499 88.3567 17.3499Z" fill="#FDFDFF"/>
<path d="M95.3554 17.1648V2.53793H98.2437V17.1648H95.3554Z" fill="#FDFDFF"/>
<path d="M103.268 17.3499C102.12 17.3499 101.212 17.0228 100.546 16.3686C99.8918 15.7144 99.5647 14.7887 99.5647 13.5914V6.50013H102.434V13.0544C102.434 14.2517 103.002 14.8504 104.138 14.8504C104.73 14.8504 105.212 14.6652 105.582 14.2949C105.965 13.9246 106.181 13.4432 106.23 12.8508V6.50013H109.1V17.1648H106.452L106.341 15.7206C105.983 16.276 105.539 16.6895 105.008 16.9611C104.49 17.2203 103.91 17.3499 103.268 17.3499Z" fill="#FDFDFF"/>
<path d="M110.41 17.1648V2.53793H113.298V7.9443C113.607 7.38885 114.032 6.98152 114.576 6.72231C115.119 6.45076 115.73 6.31498 116.409 6.31498C117.347 6.31498 118.155 6.54333 118.834 7.00003C119.525 7.45674 120.056 8.10476 120.426 8.94411C120.809 9.77111 121 10.7524 121 11.888C121 12.9989 120.815 13.9678 120.445 14.7948C120.074 15.6095 119.55 16.239 118.871 16.6834C118.204 17.1277 117.408 17.3499 116.483 17.3499C115.767 17.3499 115.112 17.2018 114.52 16.9055C113.927 16.597 113.495 16.1649 113.224 15.6095L113.057 17.1648H110.41ZM113.298 12.2398C113.298 13.1161 113.508 13.795 113.927 14.2764C114.347 14.7578 114.933 14.9985 115.686 14.9985C116.452 14.9985 117.038 14.7269 117.445 14.1838C117.865 13.6407 118.075 12.8693 118.075 11.8695C118.075 10.8326 117.871 10.0427 117.464 9.49956C117.057 8.94411 116.464 8.66638 115.686 8.66638C114.921 8.66638 114.329 8.91942 113.909 9.4255C113.502 9.91923 113.298 10.6166 113.298 11.5177V12.2398Z" fill="#FDFDFF"/>
</svg>
