<svg width="135" height="135" viewBox="0 0 135 135" fill="none" xmlns="http://www.w3.org/2000/svg">
<circle cx="67.5" cy="67.5" r="67.5" fill="#F6FFF6"/>
<rect x="18" y="17" width="100" height="100" rx="50" fill="#EEFFEE"/>
<path d="M65 86V82M73 86V82" stroke="#1C274C" stroke-width="1.5" stroke-linecap="round"/>
<path d="M48 64.5C48 58.701 52.0294 54 57 54C61.9706 54 66 58.701 66 64.5V82H52.4651C49.9991 82 48 79.6677 48 76.7907V64.5Z" fill="#BFF2C1"/>
<path d="M66 64.5V82H72H74H83.5862C86.0239 82 88 79.6945 88 76.8506V64.5C88 58.701 83.9706 54 79 54H58H57C61.9706 54 66 58.701 66 64.5Z" fill="#BFF2C1"/>
<path d="M62 81.25C61.5858 81.25 61.25 81.5858 61.25 82C61.25 82.4142 61.5858 82.75 62 82.75V81.25ZM65.25 64.5V82H66.75V64.5H65.25ZM66 81.25H52.4651V82.75H66V81.25ZM48.75 76.7907V64.5H47.25V76.7907H48.75ZM52.4651 81.25C50.5176 81.25 48.75 79.3661 48.75 76.7907H47.25C47.25 79.9693 49.4806 82.75 52.4651 82.75V81.25ZM57 54.75C61.452 54.75 65.25 59.0026 65.25 64.5H66.75C66.75 58.3994 62.4891 53.25 57 53.25V54.75ZM57 53.25C51.5109 53.25 47.25 58.3994 47.25 64.5H48.75C48.75 59.0026 52.548 54.75 57 54.75V53.25ZM87.25 64.5V76.8506H88.75V64.5H87.25ZM83.5862 81.25H72V82.75H83.5862V81.25ZM87.25 76.8506C87.25 79.3929 85.5054 81.25 83.5862 81.25V82.75C86.5424 82.75 88.75 79.9961 88.75 76.8506H87.25ZM88.75 64.5C88.75 58.3994 84.4891 53.25 79 53.25V54.75C83.452 54.75 87.25 59.0026 87.25 64.5H88.75ZM58 54.75H80V53.25H58V54.75ZM62 82.75H74V81.25H62V82.75ZM58 53.25H57V54.75H58V53.25ZM66 82.75H72V81.25H66V82.75ZM72 82.75H74V81.25H72V82.75ZM74 82.75H83.5862V81.25H74V82.75ZM79 53.25H58V54.75H79V53.25Z" fill="#1C274C"/>
<path d="M54 74H60" stroke="#1C274C" stroke-width="1.5" stroke-linecap="round"/>
<path d="M76 45.2704V50.8224L77.771 50.4812C78.9476 50.2544 80.1642 50.3627 81.2823 50.7936C82.4939 51.2605 83.819 51.3477 85.0813 51.0437L85.2145 51.0116C85.6753 50.9006 86 50.4884 86 50.0145V45.5715C86 45.0034 85.4687 44.5848 84.9163 44.7178C83.7614 44.996 82.5492 44.9162 81.4407 44.489L81.2823 44.428C80.1642 43.9971 78.9476 43.8889 77.771 44.1156L76.7989 44.3029C76.3351 44.3922 76 44.7981 76 45.2704Z" fill="white"/>
<path d="M76 59.7686V50.8224M76 50.8224V45.2704C76 44.7981 76.3351 44.3922 76.7989 44.3029L77.771 44.1156C78.9476 43.8889 80.1642 43.9971 81.2823 44.428L81.4407 44.489C82.5492 44.9162 83.7614 44.996 84.9163 44.7178C85.4687 44.5848 86 45.0034 86 45.5715V50.0145C86 50.4884 85.6753 50.9006 85.2145 51.0116L85.0813 51.0437C83.819 51.3477 82.4939 51.2605 81.2823 50.7936C80.1642 50.3627 78.9476 50.2544 77.771 50.4812L76 50.8224Z" stroke="#1C274C" stroke-width="1.5" stroke-linecap="round"/>
</svg>
