<svg width="29" height="27" viewBox="0 0 29 27" fill="none" xmlns="http://www.w3.org/2000/svg">
<path d="M23.5652 16.8809V5.0247C23.5652 4.26844 23.2651 3.54308 22.7308 3.00785C22.1965 2.47262 21.4717 2.17126 20.7155 2.16992H8.55107C7.79393 2.16992 7.06781 2.47069 6.53243 3.00607C5.99706 3.54144 5.69629 4.26757 5.69629 5.0247V16.8809C5.69696 17.6376 5.99802 18.363 6.53333 18.8979C7.06863 19.4327 7.79437 19.7331 8.55107 19.7331H11.5271L9.10434 20.491L11.0421 26.6478L20.1571 23.7627L18.894 19.7205H20.7155C21.4691 19.7192 22.1916 19.4199 22.7255 18.8879C23.2593 18.356 23.5612 17.6345 23.5652 16.8809Z" fill="white"/>
<path d="M14.5499 13.3428C10.3865 13.3428 6.94811 14.4746 5.16704 16.0662C5.16462 16.5679 5.26234 17.0651 5.45447 17.5286C5.64659 17.9921 5.92926 18.4126 6.28593 18.7655C6.64259 19.1184 7.06608 19.3966 7.5316 19.5838C7.99711 19.771 8.4953 19.8634 8.99699 19.8557H20.1129C22.3184 19.8557 23.9606 18.2136 23.9681 16.1521C22.1845 14.563 18.7234 13.3504 14.5575 13.3504" fill="#E06154"/>
<path d="M13.7863 9.32762C13.905 8.86025 13.7661 8.42066 13.4756 8.3474C13.185 8.27413 12.8541 8.60003 12.7353 9.06235C12.6166 9.52468 12.7581 9.96932 13.0486 10.0426C13.3391 10.1158 13.6701 9.78994 13.7863 9.32762ZM15.4638 9.34531C15.5977 9.80763 15.9388 10.1184 16.2217 10.035C16.5047 9.95163 16.636 9.50952 16.5021 9.04467C16.3682 8.57982 16.0297 8.28676 15.7442 8.35498C15.4588 8.42319 15.3299 8.88046 15.4613 9.34531M11.5732 16.7677C11.1816 16.1008 10.5273 15.7572 10.1105 16.0098C9.69361 16.2625 9.67593 16.9926 10.07 17.6621C10.4642 18.3315 11.116 18.6726 11.5303 18.4326C11.9446 18.1926 11.9648 17.4498 11.5732 16.7804M19.4984 17.7C19.89 17.0178 19.8723 16.2902 19.4529 16.0376C19.0335 15.785 18.3843 16.1412 17.9927 16.8082C17.6011 17.4751 17.6188 18.2179 18.0331 18.4604C18.4474 18.7029 19.1043 18.3593 19.4959 17.7025M23.3056 16.7753C23.3009 17.5644 22.9843 18.3197 22.4249 18.8763C21.8655 19.4329 21.1086 19.7456 20.3195 19.7463H8.80181C8.40924 19.747 8.02039 19.6702 7.65751 19.5204C7.29463 19.3707 6.96484 19.1508 6.68702 18.8735C6.40919 18.5961 6.18878 18.2667 6.0384 17.9041C5.88802 17.5414 5.81061 17.1527 5.81061 16.7602V15.5576C7.71043 14.2389 10.8381 13.342 14.5442 13.342C18.2504 13.342 21.3982 14.3045 23.3031 15.6359L23.3056 16.7753ZM23.3056 14.7113C21.3856 13.3546 18.2201 12.5411 14.5467 12.5411C10.9138 12.5411 7.7458 13.3673 5.81314 14.7088V5.24251C5.81314 4.85015 5.89046 4.46164 6.04069 4.09918C6.19091 3.73672 6.4111 3.40741 6.68865 3.13009C6.96621 2.85277 7.2957 2.63286 7.65829 2.48294C8.02087 2.33302 8.40945 2.25603 8.80181 2.25636H20.3195C21.1117 2.25636 21.8715 2.57089 22.4319 3.13083C22.9923 3.69077 23.3075 4.4503 23.3081 5.24251L23.3056 14.7113ZM9.78962 21.1434L12.6116 22.5682L11.1488 25.4154L9.78962 21.1434ZM11.7829 25.9611L13.3391 22.9295L15.1076 23.8188L16.1181 22.0175L19.2356 23.5914L11.7829 25.9611ZM15.9716 20.585L14.7716 22.7501L10.4844 20.585H15.9716ZM19.5085 22.836L16.492 21.3202L16.9038 20.585H18.7986L19.5085 22.836ZM28.9924 6.03326L22.2875 2.14268C21.6754 1.71726 20.9555 1.47376 20.2108 1.44035C19.0462 -1.33864 18.0761 0.619285 17.7653 1.42267H11.3837C10.2191 -1.33611 9.25403 0.626864 8.94329 1.42519C8.10056 1.43388 7.28199 1.70792 6.60389 2.20836L0 6.0282C0 6.0282 2.6552 8.15287 4.97691 6.98317V16.4999C4.97757 17.5387 5.37443 18.5382 6.08658 19.2944C6.79872 20.0507 7.77251 20.5069 8.80939 20.5699V20.585C8.80686 20.6229 8.80686 20.6609 8.80939 20.6987C8.81539 20.738 8.82383 20.7768 8.83465 20.8149V20.8579L10.5627 26.287C10.5901 26.3689 10.6293 26.4463 10.6789 26.5169C10.7047 26.549 10.7326 26.5794 10.7623 26.6079C10.7864 26.6374 10.8126 26.6653 10.8406 26.6912C10.9921 26.8162 11.1823 26.885 11.3787 26.8858C11.4644 26.8842 11.5494 26.8706 11.6313 26.8453L19.9102 24.2331C20.0323 24.1947 20.1443 24.1293 20.2379 24.0419C20.3315 23.9544 20.4042 23.8471 20.4508 23.7278C20.4808 23.6467 20.4986 23.5616 20.5039 23.4752C20.5039 23.4752 20.5039 23.4499 20.5039 23.4348C20.5053 23.3492 20.4933 23.264 20.4685 23.1821L19.655 20.585H20.1047C21.1697 20.5744 22.1875 20.1438 22.9369 19.3869C23.6862 18.63 24.1065 17.608 24.1065 16.5429L24.0206 6.98317C26.3423 8.15792 29 6.03073 29 6.03073" fill="#384257"/>
</svg>
