<svg width="21" height="21" viewBox="0 0 21 21" fill="none" xmlns="http://www.w3.org/2000/svg">
<path d="M8.40343 4.43175C9.32114 2.14392 9.77999 1 10.569 1C11.3581 1 11.8169 2.14392 12.7346 4.43175L12.7774 4.53828C13.2958 5.8308 13.5551 6.47705 14.0834 6.86985C14.6117 7.26266 15.3052 7.32477 16.6923 7.44899L16.9431 7.47145C19.2132 7.67476 20.3483 7.77641 20.5911 8.49856C20.834 9.22071 19.9911 9.98761 18.3052 11.5214L17.7425 12.0333C16.8891 12.8097 16.4624 13.198 16.2635 13.7068C16.2264 13.8017 16.1955 13.8989 16.1712 13.9979C16.0404 14.5283 16.1654 15.0915 16.4153 16.2179L16.4931 16.5685C16.9524 18.6386 17.182 19.6736 16.7811 20.12C16.6312 20.2869 16.4365 20.407 16.2202 20.466C15.6413 20.624 14.8194 19.9542 13.1756 18.6148C12.0962 17.7353 11.5566 17.2955 10.9369 17.1966C10.6932 17.1576 10.4449 17.1576 10.2011 17.1966C9.58152 17.2955 9.04183 17.7353 7.96247 18.6148C6.31869 19.9542 5.4968 20.624 4.9179 20.466C4.70158 20.407 4.50685 20.2869 4.35702 20.12C3.95606 19.6736 4.1857 18.6386 4.64499 16.5685L4.72278 16.2179C4.97269 15.0915 5.09765 14.5283 4.96692 13.9979C4.94253 13.8989 4.91169 13.8017 4.87459 13.7068C4.6757 13.198 4.24899 12.8097 3.39556 12.0333L2.8329 11.5214C1.14702 9.98761 0.304075 9.22071 0.54695 8.49856C0.789825 7.77641 1.92488 7.67476 4.195 7.47145L4.44576 7.44899C5.83283 7.32477 6.52636 7.26266 7.05469 6.86985C7.58301 6.47705 7.84224 5.83079 8.3607 4.53828L8.40343 4.43175Z" fill="#D9DBDD"/>
<mask id="mask0_4415_342" style="mask-type:alpha" maskUnits="userSpaceOnUse" x="0" y="0" width="22" height="21">
<path d="M8.40343 4.43175C9.32114 2.14392 9.77999 1 10.569 1C11.3581 1 11.8169 2.14392 12.7346 4.43175L12.7774 4.53828C13.2958 5.8308 13.5551 6.47705 14.0834 6.86985C14.6117 7.26266 15.3052 7.32477 16.6923 7.44899L16.9431 7.47145C19.2132 7.67476 20.3483 7.77641 20.5911 8.49856C20.834 9.22071 19.9911 9.98761 18.3052 11.5214L17.7425 12.0333C16.8891 12.8097 16.4624 13.198 16.2635 13.7068C16.2264 13.8017 16.1955 13.8989 16.1712 13.9979C16.0404 14.5283 16.1654 15.0915 16.4153 16.2179L16.4931 16.5685C16.9524 18.6386 17.182 19.6736 16.7811 20.12C16.6312 20.2869 16.4365 20.407 16.2202 20.466C15.6413 20.624 14.8194 19.9542 13.1756 18.6148C12.0962 17.7353 11.5566 17.2955 10.9369 17.1966C10.6932 17.1576 10.4449 17.1576 10.2011 17.1966C9.58152 17.2955 9.04183 17.7353 7.96247 18.6148C6.31869 19.9542 5.4968 20.624 4.9179 20.466C4.70158 20.407 4.50685 20.2869 4.35702 20.12C3.95606 19.6736 4.1857 18.6386 4.64499 16.5685L4.72278 16.2179C4.97269 15.0915 5.09765 14.5283 4.96692 13.9979C4.94253 13.8989 4.91169 13.8017 4.87459 13.7068C4.6757 13.198 4.24899 12.8097 3.39556 12.0333L2.8329 11.5214C1.14702 9.98761 0.304075 9.22071 0.54695 8.49856C0.789825 7.77641 1.92488 7.67476 4.195 7.47145L4.44576 7.44899C5.83283 7.32477 6.52636 7.26266 7.05469 6.86985C7.58301 6.47705 7.84224 5.83079 8.3607 4.53828L8.40343 4.43175Z" fill="#0057FF" stroke="#2E2E2E"/>
</mask>
<g mask="url(#mask0_4415_342)">
<rect x="-5.43066" y="-4.30078" width="16" height="34" fill="#FFEB9A"/>
</g>
</svg>
