<svg width="135" height="135" viewBox="0 0 135 135" fill="none" xmlns="http://www.w3.org/2000/svg">
<circle cx="67.5" cy="67.5" r="67.5" fill="#FFF9F7"/>
<rect x="18" y="17" width="100" height="100" rx="50" fill="#FFEFEB"/>
<path d="M48 72C48 66.3431 48 63.5147 49.7574 61.7574C51.5147 60 54.3431 60 60 60H76C81.6569 60 84.4853 60 86.2426 61.7574C88 63.5147 88 66.3431 88 72C88 77.6569 88 80.4853 86.2426 82.2426C84.4853 84 81.6569 84 76 84H60C54.3431 84 51.5147 84 49.7574 82.2426C48 80.4853 48 77.6569 48 72Z" fill="#FFAD9B" stroke="#150E3F" stroke-width="1.5"/>
<path d="M56 60V56C56 49.3726 61.3726 44 68 44C74.6274 44 80 49.3726 80 56V60" stroke="#150E3F" stroke-width="1.5" stroke-linecap="round"/>
<path d="M65.1992 67.8C65.1992 66.2536 66.4528 65 67.9993 65C69.5457 65 70.7993 66.2536 70.7993 67.8C70.7993 68.8266 70.2468 69.7242 69.423 70.2116C68.7131 70.6316 67.9993 71.2687 67.9993 72.0934V73.9601" stroke="#150E3F" stroke-width="1.5" stroke-linecap="round"/>
<ellipse cx="68.0012" cy="77.5065" rx="1.49335" ry="1.49335" fill="#150E3F"/>
</svg>
