<svg width="136" height="135" viewBox="0 0 136 135" fill="none" xmlns="http://www.w3.org/2000/svg">
<circle cx="68" cy="67.5" r="67.5" fill="#F6FDFF"/>
<rect x="18.5" y="17" width="100" height="100" rx="50" fill="#E4F8FF"/>
<path d="M48.5 72C48.5 66.3431 48.5 63.5147 50.2574 61.7574C52.0147 60 54.8431 60 60.5 60H76.5C82.1569 60 84.9853 60 86.7426 61.7574C88.5 63.5147 88.5 66.3431 88.5 72C88.5 77.6569 88.5 80.4853 86.7426 82.2426C84.9853 84 82.1569 84 76.5 84H60.5C54.8431 84 52.0147 84 50.2574 82.2426C48.5 80.4853 48.5 77.6569 48.5 72Z" fill="#95DFFF" stroke="#150E3F" stroke-width="1.5"/>
<path d="M56.5 60V56C56.5 49.3726 61.8726 44 68.5 44C75.1274 44 80.5 49.3726 80.5 56V60" stroke="#150E3F" stroke-width="1.5" stroke-linecap="round"/>
<path d="M63 71.16L67 75L75 67" stroke="#150E3F" stroke-width="1.5" stroke-linecap="round" stroke-linejoin="round"/>
</svg>
