<svg width="40" height="40" viewBox="0 0 40 40" fill="none" xmlns="http://www.w3.org/2000/svg">
<rect width="40" height="40" rx="5" fill="#EEEEEE"/>
<path d="M23.0033 17.3531L20.6398 20.2863C19.7033 21.4486 19.235 22.0297 18.619 22.0297C18.0029 22.0297 17.5347 21.4486 16.5981 20.2863L15.9884 19.5296M27.5501 24.368C29.4228 20.9551 29.9036 17.0606 29.9982 14.5903C30.0524 13.1753 28.8834 12.092 27.4673 12.092H26.7783C25.6483 12.092 24.7323 11.176 24.7323 10.046C24.7323 8.91602 23.8163 8 22.6863 8H16.6465C15.3282 8 14.2595 9.0687 14.2595 10.387C14.2595 11.7053 13.1908 12.774 11.8725 12.774H11.5114C10.099 12.774 8.93188 13.8482 9.0031 15.2588C9.11824 17.5397 9.62505 21.0573 11.4417 24.368C11.9358 25.2684 12.6069 26.172 13.3521 27.033C15.6669 29.7074 16.8243 31.0446 19.4959 31.0446C22.1675 31.0446 23.3249 29.7074 25.6397 27.033C26.3849 26.172 27.056 25.2684 27.5501 24.368Z" stroke="#A2A6B4" stroke-linecap="round"/>
</svg>
