<svg width="19" height="20" viewBox="0 0 19 20" fill="none" xmlns="http://www.w3.org/2000/svg">
<path d="M6.19444 9.97222C6.19444 9.97222 7.43403 11.3889 9.5 11.3889C11.566 11.3889 12.8056 9.97222 12.8056 9.97222M12.0972 5.25H12.1067M6.90278 5.25H6.91222M4.77778 15.1667V17.3724C4.77778 17.8757 4.77778 18.1273 4.88094 18.2565C4.97065 18.3689 5.1067 18.4343 5.25051 18.4342C5.41587 18.434 5.61236 18.2768 6.00533 17.9624L8.25826 16.1601C8.71849 15.7919 8.9486 15.6078 9.20485 15.4769C9.43219 15.3607 9.67418 15.2758 9.92426 15.2245C10.2061 15.1667 10.5008 15.1667 11.0902 15.1667H13.4667C15.0535 15.1667 15.8469 15.1667 16.453 14.8579C16.9861 14.5862 17.4195 14.1528 17.6912 13.6196C18 13.0136 18 12.2201 18 10.6333V5.53333C18 3.94652 18 3.15311 17.6912 2.54703C17.4195 2.0139 16.9861 1.58046 16.453 1.30881C15.8469 1 15.0535 1 13.4667 1H5.53333C3.94652 1 3.15311 1 2.54703 1.30881C2.0139 1.58046 1.58046 2.0139 1.30881 2.54703C1 3.15311 1 3.94652 1 5.53333V11.3889C1 12.2672 1 12.7063 1.09654 13.0667C1.35853 14.0444 2.12225 14.8081 3.10001 15.0701C3.46032 15.1667 3.89947 15.1667 4.77778 15.1667ZM12.5694 5.25C12.5694 5.5108 12.358 5.72222 12.0972 5.72222C11.8364 5.72222 11.625 5.5108 11.625 5.25C11.625 4.9892 11.8364 4.77778 12.0972 4.77778C12.358 4.77778 12.5694 4.9892 12.5694 5.25ZM7.375 5.25C7.375 5.5108 7.16358 5.72222 6.90278 5.72222C6.64198 5.72222 6.43056 5.5108 6.43056 5.25C6.43056 4.9892 6.64198 4.77778 6.90278 4.77778C7.16358 4.77778 7.375 4.9892 7.375 5.25Z" stroke="#615D75" stroke-width="1.4" stroke-linecap="round" stroke-linejoin="round"/>
</svg>
