<svg width="24" height="24" viewBox="0 0 24 24" fill="none" xmlns="http://www.w3.org/2000/svg">
<path d="M12 23C18.0751 23 23 18.0751 23 12C23 5.92487 18.0751 1 12 1C5.92487 1 1 5.92487 1 12C1 18.0751 5.92487 23 12 23Z" fill="#FFEB9A"/>
<path d="M15.85 8.7C15.85 9.00376 15.6038 9.25 15.3 9.25C14.9962 9.25 14.75 9.00376 14.75 8.7C14.75 8.39624 14.9962 8.15 15.3 8.15C15.6038 8.15 15.85 8.39624 15.85 8.7Z" fill="#FFEB9A"/>
<path d="M9.25 8.7C9.25 9.00376 9.00376 9.25 8.7 9.25C8.39624 9.25 8.15 9.00376 8.15 8.7C8.15 8.39624 8.39624 8.15 8.7 8.15C9.00376 8.15 9.25 8.39624 9.25 8.7Z" fill="#FFEB9A"/>
<path d="M15.3 8.7H15.311M8.7 8.7H8.711M23 12C23 18.0751 18.0751 23 12 23C5.92487 23 1 18.0751 1 12C1 5.92487 5.92487 1 12 1C18.0751 1 23 5.92487 23 12ZM15.85 8.7C15.85 9.00376 15.6038 9.25 15.3 9.25C14.9962 9.25 14.75 9.00376 14.75 8.7C14.75 8.39624 14.9962 8.15 15.3 8.15C15.6038 8.15 15.85 8.39624 15.85 8.7ZM9.25 8.7C9.25 9.00376 9.00376 9.25 8.7 9.25C8.39624 9.25 8.15 9.00376 8.15 8.7C8.15 8.39624 8.39624 8.15 8.7 8.15C9.00376 8.15 9.25 8.39624 9.25 8.7Z" stroke="#150E3F" stroke-linecap="round" stroke-linejoin="round"/>
<path d="M7.59961 14.2002C7.59961 14.2002 9.24961 16.4002 11.9996 16.4002C14.7496 16.4002 16.3996 14.2002 16.3996 14.2002" stroke="#150E3F" stroke-linecap="round" stroke-linejoin="round"/>
</svg>
