<svg width="18" height="20" viewBox="0 0 18 20" fill="none" xmlns="http://www.w3.org/2000/svg">
<path d="M8.7 4.9H9.6C10.5941 4.9 11.4 5.70589 11.4 6.7M8.7 4.9H7.8C6.80589 4.9 6 5.70589 6 6.7C6 7.69411 6.80589 8.5 7.8 8.5H8.7M8.7 4.9V4M8.7 4.9V8.5M8.7 8.5H9.6C10.5941 8.5 11.4 9.30589 11.4 10.3C11.4 11.2941 10.5941 12.1 9.6 12.1H8.7M8.7 8.5V12.1M8.7 12.1H7.8C6.80589 12.1 6 11.2941 6 10.3M8.7 12.1V13M17 19V5.8C17 4.11984 17 3.27976 16.673 2.63803C16.3854 2.07354 15.9265 1.6146 15.362 1.32698C14.7202 1 13.8802 1 12.2 1H5.8C4.11984 1 3.27976 1 2.63803 1.32698C2.07354 1.6146 1.6146 2.07354 1.32698 2.63803C1 3.27976 1 4.11984 1 5.8V19L3.75 17L6.25 19L9 17L11.75 19L14.25 17L17 19Z" stroke="#615D75" stroke-width="1.4" stroke-linecap="round" stroke-linejoin="round"/>
</svg>
