<svg width="18" height="18" viewBox="0 0 18 18" fill="none" xmlns="http://www.w3.org/2000/svg">
<path fill-rule="evenodd" clip-rule="evenodd" d="M9 0C8.49372 0 8.02754 0.125821 7.51712 0.336911C7.02425 0.54074 6.45181 0.841151 5.73899 1.21523L4.00804 2.12359C3.13319 2.58268 2.43306 2.95008 1.89249 3.31109C1.33245 3.68509 0.901105 4.07889 0.586986 4.61234C0.273919 5.14399 0.133081 5.71968 0.0655437 6.40526C-1.22196e-05 7.07072 -6.74524e-06 7.88915 1.40699e-07 8.91843V9.08156C-6.74524e-06 10.1108 -1.22196e-05 10.9293 0.0655437 11.5947C0.133081 12.2803 0.273919 12.856 0.586986 13.3877C0.901105 13.9211 1.33245 14.3149 1.89249 14.6889C2.43306 15.0499 3.13318 15.4173 4.00803 15.8764L5.73891 16.7847C6.45177 17.1588 7.02423 17.4593 7.51712 17.6631C8.02754 17.8742 8.49372 18 9 18C9.50628 18 9.97246 17.8742 10.4829 17.6631C10.9757 17.4593 11.5482 17.1589 12.261 16.7848L13.9919 15.8764C14.8668 15.4173 15.5669 15.0499 16.1075 14.6889C16.6675 14.3149 17.0989 13.9211 17.413 13.3877C17.7261 12.856 17.8669 12.2803 17.9345 11.5947C18 10.9293 18 10.1109 18 9.08159V8.91841C18 7.88914 18 7.07071 17.9345 6.40526C17.8669 5.71968 17.7261 5.14399 17.413 4.61234C17.0989 4.07889 16.6675 3.68509 16.1075 3.31109C15.5669 2.95008 14.8668 2.58268 13.9919 2.12358L12.261 1.21524C11.5482 0.841158 10.9758 0.540742 10.4829 0.336911C9.97246 0.125821 9.50628 0 9 0ZM6.29648 2.3409C7.04136 1.95001 7.56335 1.67676 7.99705 1.4974C8.41917 1.32283 8.71573 1.25581 9 1.25581C9.28427 1.25581 9.58082 1.32283 10.003 1.4974C10.4367 1.67676 10.9586 1.95001 11.7035 2.3409L13.3779 3.2196C14.2902 3.69835 14.9312 4.03562 15.4101 4.35543C15.6463 4.51321 15.832 4.65972 15.9819 4.80704L13.1934 6.20128L6.07726 2.45594L6.29648 2.3409ZM4.76762 3.14321L4.62207 3.21959C3.70976 3.69835 3.06882 4.03562 2.58992 4.35543C2.35366 4.51322 2.168 4.65972 2.01812 4.80704L9 8.29798L11.8107 6.89265L4.94011 3.27658C4.87336 3.24145 4.81556 3.19599 4.76762 3.14321ZM1.41294 5.90849C1.37066 6.08756 1.3387 6.2909 1.31531 6.52837C1.25652 7.12515 1.25581 7.88183 1.25581 8.95103V9.04897C1.25581 10.1182 1.25652 10.8749 1.31531 11.4716C1.37281 12.0553 1.48204 12.4327 1.66912 12.7504C1.85515 13.0664 2.12423 13.3336 2.58992 13.6446C3.06882 13.9644 3.70976 14.3016 4.62207 14.7804L6.29648 15.6591C7.04136 16.05 7.56335 16.3232 7.99705 16.5026C8.13399 16.5592 8.25771 16.6045 8.37209 16.6399V9.38807L1.41294 5.90849ZM9.6279 16.6399C9.74228 16.6045 9.86601 16.5592 10.003 16.5026C10.4367 16.3232 10.9586 16.05 11.7035 15.6591L13.3779 14.7804C14.2902 14.3016 14.9312 13.9644 15.4101 13.6446C15.8758 13.3336 16.1449 13.0664 16.3309 12.7504C16.518 12.4327 16.6272 12.0553 16.6847 11.4716C16.7435 10.8749 16.7442 10.1182 16.7442 9.04897V8.95103C16.7442 7.88183 16.7435 7.12515 16.6847 6.52837C16.6613 6.29089 16.6293 6.08756 16.5871 5.90849L13.8139 7.29504V9.83721C13.8139 10.184 13.5328 10.4651 13.186 10.4651C12.8393 10.4651 12.5581 10.184 12.5581 9.83721V7.92295L9.6279 9.38807V16.6399Z" fill="#55526B"/>
</svg>
