<svg width="26" height="21" viewBox="0 0 26 21" fill="none" xmlns="http://www.w3.org/2000/svg">
<rect x="4.19933" y="8.61327" width="13.5088" height="10" rx="1" transform="rotate(-30.8518 4.19933 8.61327)" fill="#BFF2C1" stroke="#150E3F"/>
<rect x="2.60611" y="7.54192" width="17" height="10" rx="1" transform="rotate(-14 2.60611 7.54192)" fill="#BFF2C1" stroke="#150E3F"/>
<path fill-rule="evenodd" clip-rule="evenodd" d="M22.9292 6.21866C22.858 6.2143 22.7806 6.21433 22.7003 6.21436L22.6802 6.21437H19.5309C16.9351 6.21437 14.7139 8.19843 14.7139 10.7858C14.7139 13.3731 16.935 15.3572 19.5309 15.3572H22.6802L22.7003 15.3572C22.7806 15.3572 22.858 15.3573 22.9292 15.3529C23.9836 15.2883 24.9161 14.4871 24.9945 13.368C24.9997 13.2946 24.9996 13.2155 24.9996 13.1422L24.9996 13.1223V8.44928L24.9996 8.42938C24.9996 8.35607 24.9997 8.27697 24.9945 8.20359C24.9161 7.08452 23.9836 6.28331 22.9292 6.21866ZM19.2517 12.0048C19.92 12.0048 20.4618 11.459 20.4618 10.7858C20.4618 10.1125 19.92 9.56673 19.2517 9.56673C18.5834 9.56673 18.0416 10.1125 18.0416 10.7858C18.0416 11.459 18.5834 12.0048 19.2517 12.0048Z" fill="#95DFFF"/>
<path d="M20.4618 10.7858C20.4618 11.459 19.92 12.0048 19.2517 12.0048C18.5834 12.0048 18.0416 11.459 18.0416 10.7858C18.0416 10.1125 18.5834 9.56673 19.2517 9.56673C19.92 9.56673 20.4618 10.1125 20.4618 10.7858Z" fill="#95DFFF"/>
<path d="M22.9292 6.21866L22.8986 6.71773H22.8986L22.9292 6.21866ZM22.7003 6.21436L22.7004 6.71436H22.7005L22.7003 6.21436ZM24.9945 8.20359L24.4957 8.23854V8.23854L24.9945 8.20359ZM24.9996 8.42938L24.4996 8.42908V8.42914L24.9996 8.42938ZM24.9996 8.44928L24.4996 8.44904V8.44928H24.9996ZM24.9996 13.1223H24.4996V13.1225L24.9996 13.1223ZM24.9996 13.1422L24.4996 13.1424V13.1425L24.9996 13.1422ZM24.9945 13.368L24.4957 13.333V13.333L24.9945 13.368ZM22.9292 15.3529L22.9598 15.852H22.9598L22.9292 15.3529ZM22.7003 15.3572L22.7005 14.8572H22.7004L22.7003 15.3572ZM22.6802 15.3572L22.6804 14.8572H22.6802V15.3572ZM22.6802 6.21437V6.71437L22.6804 6.71437L22.6802 6.21437ZM22.9598 5.7196C22.8704 5.71412 22.7768 5.71433 22.7001 5.71436L22.7005 6.71436C22.7845 6.71433 22.8457 6.71449 22.8986 6.71773L22.9598 5.7196ZM25.4933 8.16864C25.3954 6.77135 24.2356 5.79782 22.9598 5.7196L22.8986 6.71773C23.7317 6.7688 24.4368 7.39768 24.4957 8.23854L25.4933 8.16864ZM25.4996 8.42968C25.4996 8.35995 25.4999 8.26276 25.4933 8.16864L24.4957 8.23854C24.4994 8.29118 24.4996 8.35219 24.4996 8.42908L25.4996 8.42968ZM25.4996 13.1223V8.44928H24.4996V13.1223H25.4996ZM25.4933 13.4029C25.4999 13.3088 25.4996 13.2116 25.4996 13.1419L24.4996 13.1425C24.4996 13.2194 24.4994 13.2804 24.4957 13.333L25.4933 13.4029ZM22.9598 15.852C24.2356 15.7737 25.3954 14.8002 25.4933 13.4029L24.4957 13.333C24.4368 14.1739 23.7317 14.8028 22.8986 14.8538L22.9598 15.852ZM22.7001 15.8572C22.7767 15.8572 22.8704 15.8575 22.9598 15.852L22.8986 14.8538C22.8457 14.8571 22.7845 14.8572 22.7005 14.8572L22.7001 15.8572ZM19.5309 15.8572H22.6802V14.8572H19.5309V15.8572ZM14.2139 10.7858C14.2139 13.6821 16.693 15.8572 19.5309 15.8572V14.8572C17.1771 14.8572 15.2139 13.0641 15.2139 10.7858H14.2139ZM19.5309 5.71437C16.693 5.71437 14.2139 7.88942 14.2139 10.7858H15.2139C15.2139 8.50744 17.1771 6.71437 19.5309 6.71437V5.71437ZM22.6802 5.71437H19.5309V6.71437H22.6802V5.71437ZM19.9618 10.7858C19.9618 11.1864 19.6404 11.5048 19.2517 11.5048V12.5048C20.1996 12.5048 20.9618 11.7317 20.9618 10.7858H19.9618ZM19.2517 11.5048C18.863 11.5048 18.5416 11.1864 18.5416 10.7858H17.5416C17.5416 11.7317 18.3038 12.5048 19.2517 12.5048V11.5048ZM18.5416 10.7858C18.5416 10.3852 18.863 10.0667 19.2517 10.0667V9.06673C18.3038 9.06673 17.5416 9.83986 17.5416 10.7858H18.5416ZM19.2517 10.0667C19.6404 10.0667 19.9618 10.3852 19.9618 10.7858H20.9618C20.9618 9.83986 20.1996 9.06673 19.2517 9.06673V10.0667ZM22.7002 5.71436L22.6801 5.71437L22.6804 6.71437L22.7004 6.71436L22.7002 5.71436ZM22.6801 15.8572L22.7002 15.8572L22.7004 14.8572L22.6804 14.8572L22.6801 15.8572ZM25.4996 13.1419L25.4996 13.122L24.4996 13.1225L24.4996 13.1424L25.4996 13.1419ZM25.4996 8.44952L25.4996 8.42962L24.4996 8.42914L24.4996 8.44904L25.4996 8.44952Z" fill="#150E3F"/>
<path fill-rule="evenodd" clip-rule="evenodd" d="M19.2521 12.0045C19.9204 12.0045 20.4622 11.4587 20.4622 10.7855C20.4622 10.1122 19.9204 9.56641 19.2521 9.56641C18.5838 9.56641 18.042 10.1122 18.042 10.7855C18.042 11.4587 18.5838 12.0045 19.2521 12.0045Z" fill="white"/>
<path d="M20.4622 10.7855C20.4622 11.4587 19.9204 12.0045 19.2521 12.0045C18.5838 12.0045 18.042 11.4587 18.042 10.7855C18.042 10.1122 18.5838 9.56641 19.2521 9.56641C19.9204 9.56641 20.4622 10.1122 20.4622 10.7855Z" fill="white"/>
<path fill-rule="evenodd" clip-rule="evenodd" d="M19.2521 12.0045C19.9204 12.0045 20.4622 11.4587 20.4622 10.7855C20.4622 10.1122 19.9204 9.56641 19.2521 9.56641C18.5838 9.56641 18.042 10.1122 18.042 10.7855C18.042 11.4587 18.5838 12.0045 19.2521 12.0045Z" stroke="#150E3F" stroke-linecap="round"/>
<path d="M20.4622 10.7855C20.4622 11.4587 19.9204 12.0045 19.2521 12.0045C18.5838 12.0045 18.042 11.4587 18.042 10.7855C18.042 10.1122 18.5838 9.56641 19.2521 9.56641C19.9204 9.56641 20.4622 10.1122 20.4622 10.7855Z" stroke="#150E3F" stroke-linecap="round"/>
<path d="M22.8736 6.21603C22.8736 4.86675 22.8246 3.4194 21.962 2.3818C21.8788 2.28164 21.7901 2.18439 21.6957 2.08999C20.8405 1.23472 19.7559 0.855158 18.416 0.675012C17.1141 0.499969 15.4505 0.499983 13.3502 0.5H10.9355C8.83524 0.499983 7.17164 0.49997 5.86969 0.675013C4.52978 0.855159 3.44527 1.23472 2.58999 2.08999C1.73472 2.94527 1.35516 4.02978 1.17501 5.36969C0.999969 6.67164 0.999983 8.33522 1 10.4355V10.5645C0.999983 12.6648 0.999969 14.3284 1.17501 15.6303C1.35516 16.9702 1.73472 18.0547 2.58999 18.91C3.44527 19.7653 4.52978 20.1448 5.86969 20.325C7.17164 20.5 8.83521 20.5 10.9355 20.5H13.3502C15.4505 20.5 17.1141 20.5 18.416 20.325C19.7559 20.1448 20.8405 19.7653 21.6957 18.91C21.9295 18.6763 22.128 18.425 22.2967 18.1555C22.8115 17.3333 22.8736 16.3255 22.8736 15.3554C22.8185 15.3572 22.7604 15.3572 22.7008 15.3571L19.5313 15.3571C16.9355 15.3571 14.7143 13.3731 14.7143 10.7857C14.7143 8.19836 16.9355 6.2143 19.5313 6.2143L22.7007 6.21429C22.7604 6.21427 22.8185 6.21425 22.8736 6.21603Z" fill="#95DFFF" stroke="#150E3F" stroke-linecap="round" stroke-linejoin="round"/>
<path d="M4.68182 5.5C4.30526 5.5 4 5.72386 4 6C4 6.27614 4.30526 6.5 4.68182 6.5H8.31818C8.69474 6.5 9 6.27614 9 6C9 5.72386 8.69474 5.5 8.31818 5.5H4.68182Z" fill="#150E3F"/>
</svg>
