<svg width="22" height="26" viewBox="0 0 22 26" fill="none" xmlns="http://www.w3.org/2000/svg">
<path d="M18.8909 5.8C19.4527 5.8 19.7336 5.8 19.8817 5.67241C20.0106 5.56138 20.0874 5.39253 20.0908 5.21247C20.0947 5.00556 19.9262 4.75837 19.5891 4.264L17.8873 1.768C17.6953 1.4864 17.5993 1.3456 17.4776 1.24405C17.3699 1.15411 17.2478 1.087 17.1178 1.04613C16.9709 1 16.8109 1 16.4909 1H5.14545C4.82546 1 4.66546 1 4.5186 1.04613C4.38854 1.087 4.26651 1.15411 4.15875 1.24405C4.03709 1.3456 3.94109 1.4864 3.74909 1.768L2.04727 4.264C1.7102 4.75837 1.54166 5.00556 1.54557 5.21247C1.54898 5.39253 1.62573 5.56138 1.75464 5.67241C1.90277 5.8 2.18366 5.8 2.74546 5.8H18.8909Z" fill="#C7BDFF"/>
<path d="M17.1455 25C18.3674 25 18.9784 25 19.4451 24.7384C19.8556 24.5083 20.1894 24.1412 20.3986 23.6896C20.6364 23.1762 20.6364 22.5041 20.6364 21.16V7.08C20.6364 6.60508 20.6364 6.36762 20.5958 6.13955C20.5599 5.93718 20.5003 5.74075 20.4187 5.55511C20.3268 5.34591 20.1972 5.15594 19.9382 4.776L17.8873 1.768C17.6953 1.4864 17.5993 1.3456 17.4776 1.24405C17.3699 1.15411 17.2478 1.087 17.1178 1.04613C16.9709 1 16.8109 1 16.4909 1H5.14545C4.82546 1 4.66546 1 4.5186 1.04613C4.38854 1.087 4.26651 1.15411 4.15875 1.24405C4.03709 1.3456 3.94109 1.4864 3.74909 1.768L1.69818 4.776C1.43913 5.15594 1.30961 5.3459 1.21763 5.55511C1.13602 5.74074 1.0765 5.93718 1.04053 6.13955C1 6.36762 1 6.60508 1 7.08L1 21.16C1 22.5041 1 23.1762 1.2378 23.6896C1.44698 24.1412 1.78076 24.5083 2.19129 24.7384C2.65801 25 3.26898 25 4.49091 25L17.1455 25Z" fill="#C7BDFF"/>
<path d="M15.1818 10.6C15.1818 11.873 14.7221 13.0939 13.9037 13.9941C13.0854 14.8943 11.9755 15.4 10.8182 15.4C9.66087 15.4 8.55097 14.8943 7.73263 13.9941C6.91428 13.0939 6.45455 11.873 6.45455 10.6" fill="#C7BDFF"/>
<path d="M3.74909 1.768L2.04727 4.264C1.7102 4.75837 1.54166 5.00556 1.54557 5.21247C1.54898 5.39253 1.62573 5.56138 1.75464 5.67241C1.90277 5.8 2.18366 5.8 2.74546 5.8H18.8909C19.4527 5.8 19.7336 5.8 19.8817 5.67241C20.0106 5.56138 20.0874 5.39253 20.0908 5.21247C20.0947 5.00556 19.9262 4.75837 19.5891 4.264L17.8873 1.768M3.74909 1.768C3.94109 1.4864 4.03709 1.3456 4.15875 1.24405C4.26651 1.15411 4.38854 1.087 4.5186 1.04613C4.66546 1 4.82546 1 5.14545 1H16.4909C16.8109 1 16.9709 1 17.1178 1.04613C17.2478 1.087 17.3699 1.15411 17.4776 1.24405C17.5993 1.3456 17.6953 1.4864 17.8873 1.768M3.74909 1.768L1.69818 4.776C1.43913 5.15594 1.30961 5.3459 1.21763 5.55511C1.13602 5.74074 1.0765 5.93718 1.04053 6.13955C1 6.36762 1 6.60508 1 7.08L1 21.16C1 22.5041 1 23.1762 1.2378 23.6896C1.44698 24.1412 1.78076 24.5083 2.19129 24.7384C2.65801 25 3.26898 25 4.49091 25L17.1455 25C18.3674 25 18.9784 25 19.4451 24.7384C19.8556 24.5083 20.1894 24.1412 20.3986 23.6896C20.6364 23.1762 20.6364 22.5041 20.6364 21.16V7.08C20.6364 6.60508 20.6364 6.36762 20.5958 6.13955C20.5599 5.93718 20.5003 5.74075 20.4187 5.55511C20.3268 5.34591 20.1972 5.15594 19.9382 4.776L17.8873 1.768M15.1818 10.6C15.1818 11.873 14.7221 13.0939 13.9037 13.9941C13.0854 14.8943 11.9755 15.4 10.8182 15.4C9.66087 15.4 8.55097 14.8943 7.73262 13.9941C6.91428 13.0939 6.45455 11.873 6.45455 10.6" stroke="#150E3F" stroke-linecap="round" stroke-linejoin="round"/>
<rect x="6" y="7" width="10" height="12" rx="1.5" fill="#FFEB9A" stroke="#150E3F"/>
<path d="M1.54557 5.21254C1.54166 5.00563 1.7102 4.75844 2.04727 4.26406L1.69818 4.77606C1.43913 5.156 1.30961 5.34597 1.21763 5.55517C1.13602 5.74081 1.0765 5.93724 1.04053 6.13962C1 6.36768 1 6.60514 1 7.08006V21.1601C1 22.5042 1 23.1763 1.2378 23.6896C1.44698 24.1412 1.78076 24.5084 2.19129 24.7385C2.65801 25.0001 3.26897 25.0001 4.49088 25.0001H4.49091L17.1455 25.0001C18.3674 25.0001 18.9784 25.0001 19.4451 24.7385C19.8556 24.5084 20.1894 24.1412 20.3986 23.6896C20.6364 23.1763 20.6364 22.5042 20.6364 21.1601V7.08007C20.6364 6.60515 20.6364 6.36768 20.5958 6.13962C20.5599 5.93724 20.5003 5.74081 20.4187 5.55518C20.3268 5.34598 20.1972 5.15602 19.9382 4.7761L19.9382 4.77607L19.5902 4.26566C19.9265 4.75897 20.0947 5.00585 20.0908 5.21254C20.0874 5.39259 20.0106 5.56145 19.8817 5.67248C19.7336 5.80006 19.4527 5.80007 18.8909 5.80007H2.74546C2.18366 5.80007 1.90277 5.80006 1.75464 5.67248C1.62573 5.56145 1.54898 5.39259 1.54557 5.21254Z" fill="#C7BDFF"/>
<path d="M2.04727 4.26406L3.74909 1.76807L1.69818 4.77606M2.04727 4.26406C1.7102 4.75844 1.54166 5.00563 1.54557 5.21254C1.54898 5.39259 1.62573 5.56145 1.75464 5.67248C1.90277 5.80006 2.18366 5.80007 2.74546 5.80007H18.8909C19.4527 5.80007 19.7336 5.80006 19.8817 5.67248C20.0106 5.56145 20.0874 5.39259 20.0908 5.21254C20.0947 5.00563 19.9262 4.75844 19.5891 4.26407M2.04727 4.26406L1.69818 4.77606M19.5891 4.26407L17.8873 1.76807L19.9382 4.77607M19.5891 4.26407L19.9382 4.77607M1.69818 4.77606C1.43913 5.156 1.30961 5.34597 1.21763 5.55517C1.13602 5.74081 1.0765 5.93724 1.04053 6.13962C1 6.36768 1 6.60514 1 7.08006L1 21.1601C1 22.5042 1 23.1763 1.2378 23.6896C1.44698 24.1412 1.78076 24.5084 2.19129 24.7385C2.65801 25.0001 3.26898 25.0001 4.49091 25.0001L17.1455 25.0001C18.3674 25.0001 18.9784 25.0001 19.4451 24.7385C19.8556 24.5084 20.1894 24.1412 20.3986 23.6896C20.6364 23.1763 20.6364 22.5042 20.6364 21.1601V7.08007C20.6364 6.60515 20.6364 6.36768 20.5958 6.13962C20.5599 5.93724 20.5003 5.74081 20.4187 5.55518C20.3268 5.34597 20.1972 5.156 19.9382 4.77607" stroke="#150E3F" stroke-linecap="round" stroke-linejoin="round"/>
<path d="M15.1814 10.6001C15.1814 11.8731 14.7216 13.094 13.9033 13.9942C13.085 14.8944 11.975 15.4001 10.8177 15.4001C9.66043 15.4001 8.55052 14.8944 7.73218 13.9942C6.91384 13.094 6.4541 11.8731 6.4541 10.6001" fill="#C7BDFF"/>
<path d="M15.1814 10.6001C15.1814 11.8731 14.7216 13.094 13.9033 13.9942C13.085 14.8944 11.975 15.4001 10.8177 15.4001C9.66043 15.4001 8.55052 14.8944 7.73218 13.9942C6.91384 13.094 6.4541 11.8731 6.4541 10.6001" stroke="#150E3F" stroke-linecap="round" stroke-linejoin="round"/>
</svg>
