<svg width="19" height="19" viewBox="0 0 19 19" fill="none" xmlns="http://www.w3.org/2000/svg">
<path d="M13.75 11.3889H13.7594M1 2.88889V16.1111C1 17.1543 1.84568 18 2.88889 18H16.1111C17.1543 18 18 17.1543 18 16.1111V6.66667C18 5.62346 17.1543 4.77778 16.1111 4.77778L2.88889 4.77778C1.84568 4.77778 1 3.93209 1 2.88889ZM1 2.88889C1 1.84568 1.84568 1 2.88889 1H14.2222M14.2222 11.3889C14.2222 11.6497 14.0108 11.8611 13.75 11.8611C13.4892 11.8611 13.2778 11.6497 13.2778 11.3889C13.2778 11.1281 13.4892 10.9167 13.75 10.9167C14.0108 10.9167 14.2222 11.1281 14.2222 11.3889Z" stroke="#615D75" stroke-width="1.4" stroke-linecap="round" stroke-linejoin="round"/>
</svg>
