<svg width="40" height="40" viewBox="0 0 40 40" fill="none" xmlns="http://www.w3.org/2000/svg">
<rect width="40" height="40" rx="5" fill="#C7BDFF"/>
<path d="M24.8617 22.5641L24.863 22.5575L25.3523 22.6603M24.8617 22.5641L25.3523 22.6603M24.8617 22.5641C24.4771 24.5256 22.7169 26.0829 20.6966 26.208L20.6933 26.2082C18.5445 26.3554 16.5518 25.2321 15.791 23.1423L15.791 23.1423L15.7893 23.1378C15.563 22.5342 15.5 21.8859 15.5 21.1615V21.1573V21.1531V21.1489V21.1447V21.1405V21.1363V21.1321V21.1279V21.1237V21.1195V21.1153V21.1111V21.1069V21.1028V21.0986V21.0944V21.0902V21.086V21.0818V21.0776V21.0734V21.0692V21.065V21.0609V21.0567V21.0525V21.0483V21.0441V21.0399V21.0358V21.0316V21.0274V21.0232V21.019V21.0149V21.0107V21.0065V21.0023V20.9981V20.994V20.9898V20.9856V20.9814V20.9773V20.9731V20.9689V20.9648V20.9606V20.9564V20.9522V20.9481V20.9439V20.9397V20.9356V20.9314V20.9272V20.9231V20.9189V20.9147V20.9106V20.9064V20.9022V20.8981V20.8939V20.8898V20.8856V20.8814V20.8773V20.8731V20.869V20.8648V20.8606V20.8565V20.8523V20.8482V20.844V20.8399V20.8357V20.8316V20.8274V20.8233V20.8191V20.8149V20.8108V20.8066V20.8025V20.7983V20.7942V20.79V20.7859V20.7817V20.7776V20.7735V20.7693V20.7652V20.761V20.7569V20.7527V20.7486V20.7444V20.7403V20.7362V20.732V20.7279V20.7237V20.7196V20.7154V20.7113V20.7072V20.703V20.6989V20.6947V20.6906V20.6865V20.6823V20.6782V20.6741V20.6699V20.6658V20.6617V20.6575V20.6534V20.6492V20.6451V20.641V20.6368V20.6327V20.6286V20.6244V20.6203V20.6162V20.6121V20.6079V20.6038V20.5997V20.5955V20.5914V20.5873V20.5831V20.579V20.5749V20.5708V20.5666V20.5625V20.5584V20.5543V20.5501V20.546V20.5419V20.5378V20.5336V20.5295V20.5254V20.5213V20.5171V20.513V20.5089V20.5048V20.5006V20.4965V20.4924V20.4883V20.4842V20.48V20.4759V20.4718V20.4677V20.4636V20.4594V20.4553V20.4512V20.4471V20.443V20.4388V20.4347V20.4306V20.4265V20.4224V20.4183V20.4141V20.41V20.4059V20.4018V20.3977V20.3936V20.3894V20.3853V20.3812V20.3771V20.373V20.3689V20.3647V20.3606V20.3565V20.3524V20.3483V20.3442V20.3401V20.3359V20.3318V20.3277V20.3236V20.3195V20.3154V20.3113V20.3072V20.303V20.2989V20.2948V20.2907V20.2866V20.2825V20.2784V20.2743V20.2702V20.266V20.2619V20.2578V20.2537V20.2496V20.2455V20.2414V20.2373V20.2332V20.229V20.2249V20.2208V20.2167V20.2126V20.2085V20.2044V20.2003V20.1962V20.1921V20.188V20.1838V20.1797V20.1756V20.1715V20.1674V20.1633V20.1592V20.1551V20.151V20.1469V20.1428V20.1386V20.1345V20.1304V20.1263V20.1222V20.1181V20.114V20.1099V20.1058V20.1017V20.0976V20.0934V20.0893V20.0852V20.0811V20.077V20.0729V20.0688V20.0647V20.0606V20.0565V20.0524V20.0483V20.0441V20.04V20.0359V20.0318V20.0277V20.0236V20.0195V20.0154V20.0113V20.0072V20.0031V19.9989V19.9948V19.9907V19.9866V19.9825V19.9784V19.9743V19.9702V19.9661V19.962V19.9578V19.9537V19.9496V19.9455V19.9414V19.9373V19.9332V19.9291V19.925V19.9208V19.9167V19.9126V19.9085V19.9044V19.9003V19.8962V19.8921V19.8879V19.8838V19.8797V19.8756V19.8715V19.8674V19.8633V19.8592V19.855V19.8509V19.8468V19.8427V19.8386V19.8345V19.8304V19.8262V19.8221V19.818V19.8139V19.8098V19.8057V19.8015V19.7974V19.7933V19.7892V19.7851V19.781V19.7768V19.7727V19.7686V19.7645V19.7604V19.7563V19.7521V19.748V19.7439V19.7398V19.7357V19.7315V19.7274V19.7233V19.7192V19.7151V19.7109V19.7068V19.7027V19.6986V19.6944V19.6903V19.6862V19.6821V19.6779V19.6738V19.6697V19.6656V19.6614V19.6573V19.6532V19.6491V19.6449V19.6408V19.6367V19.6326V19.6284V19.6243V19.6202V19.6161V19.6119V19.6078V19.6037V19.5995V19.5954V19.5913V19.5871V19.583V19.5789V19.5747V19.5706V19.5665V19.5624V19.5582V19.5541V19.5499V19.5458V19.5417V19.5375V19.5334V19.5293V19.5251V19.521V19.5169V19.5127V19.5086V19.5044V19.5003V19.4962V19.492V19.4879V19.4837V19.4796V19.4755V19.4713V19.4672V19.463V19.4589V19.4547V19.4506V19.4465V19.4423V19.4382V19.434V19.4299V19.4257V19.4216V19.4174V19.4133V19.4091V19.405V19.4008V19.3967V19.3925V19.3884V19.3842V19.3801V19.3759V19.3718V19.3676V19.3635V19.3593V19.3552V19.351V19.3468V19.3427V19.3385V19.3344V19.3302V19.3261V19.3219V19.3177V19.3136V19.3094V19.3052V19.3011V19.2969V19.2928V19.2886V19.2844V19.2803V19.2761V19.2719V19.2678V19.2636V19.2594V19.2553V19.2511V19.2469V19.2428V19.2386V19.2344V19.2302V19.2261V19.2219V19.2177V19.2135V19.2094V19.2052V19.201V19.1968V19.1927V19.1885V19.1843V19.1801V19.1759V19.1718V19.1676V19.1634V19.1592V19.155V19.1508V19.1467V19.1425V19.1383V19.1341V19.1299V19.1257V19.1215V19.1173V19.1132V19.109V19.1048V19.1006V19.0964V19.0922V19.088V19.0838V19.0796V19.0754V19.0712V19.067V19.0628V19.0586V19.0544V19.0502V19.046V19.0418C15.5 18.7902 15.5412 18.721 15.5477 18.7117C15.557 18.7051 15.6262 18.664 15.8779 18.664H15.8851H15.8924H15.8997H15.907H15.9142H15.9215H15.9288H15.9361H15.9433H15.9506H15.9579H15.9652H15.9724H15.9797H15.987H15.9943H16.0015H16.0088H16.0161H16.0233H16.0306H16.0379H16.0452H16.0524H16.0597H16.067H16.0742H16.0815H16.0888H16.096H16.1033H16.1106H16.1178H16.1251H16.1324H16.1396H16.1469H16.1542H16.1615H16.1687H16.176H16.1832H16.1905H16.1978H16.205H16.2123H16.2196H16.2268H16.2341H16.2414H16.2486H16.2559H16.2632H16.2704H16.2777H16.2849H16.2922H16.2995H16.3067H16.314H16.3212H16.3285H16.3358H16.343H16.3503H16.3575H16.3648H16.3721H16.3793H16.3866H16.3938H16.4011H16.4084H16.4156H16.4229H16.4301H16.4374H16.4446H16.4519H16.4592H16.4664H16.4737H16.4809H16.4882H16.4954H16.5027H16.5099H16.5172H16.5244H16.5317H16.5389H16.5462H16.5534H16.5607H16.5679H16.5752H16.5825H16.5897H16.597H16.6042H16.6115H16.6187H16.6259H16.6332H16.6404H16.6477H16.6549H16.6622H16.6694H16.6767H16.6839H16.6912H16.6984H16.7057H16.7129H16.7202H16.7274H16.7346H16.7419H16.7491H16.7564H16.7636H16.7709H16.7781H16.7853H16.7926H16.7998H16.8071H16.8143H16.8216H16.8288H16.836H16.8433H16.8505H16.8578H16.865H16.8722H16.8795H16.8867H16.8939H16.9012H16.9084H16.9157H16.9229H16.9301H16.9374H16.9446H16.9518H16.9591H16.9663H16.9735H16.9808H16.988H16.9952H17.0025H17.0097H17.0169H17.0242H17.0314H17.0386H17.0459H17.0531H17.0603H17.0676H17.0748H17.082H17.0892H17.0965H17.1037H17.1109H17.1182H17.1254H17.1326H17.1398H17.1471H17.1543H17.1615H17.1687H17.176H17.1832H17.1904H17.1976H17.2049H17.2121H17.2193H17.2265H17.2338H17.241H17.2482H17.2554H17.2626H17.2699H17.2771H17.2843H17.2915H17.2987H17.306H17.3132H17.3204H17.3276H17.3348H17.342H17.3493H17.3565H17.3637H17.3709H17.3781H17.3853H17.3926H17.3998H17.407H17.4142H17.4214H17.4286H17.4358H17.4431H17.4503H17.4575H17.4647H17.4719H17.4791H17.4863H17.4935H17.5007H17.508H17.5152H17.5224H17.5296H17.5368H17.544H17.5512H17.5584H17.5656H17.5728H17.58H17.5872H17.5944H17.6016H17.6088H17.6161H17.6233H17.6305H17.6377H17.6449H17.6521H17.6593H17.6665H17.6737H17.6809H17.6881H17.6953H17.7025H17.7097H17.7169H17.7241H17.7313H17.7385H17.7457H17.7529H17.7601H17.7673H17.7744H17.7816H17.7888H17.796H17.8032H17.8104H17.8176H17.8248H17.832H17.8392H17.8464H17.8536H17.8608H17.868H17.8752H17.8823H17.8895H17.8967H17.9039H17.9111H17.9183H17.9255H17.9327H17.9399H17.947H17.9542H17.9614H17.9686H17.9758H17.983H17.9902H17.9973H18.0045H18.0117H18.0189H18.0261H18.0333H18.0404H18.0476H18.0548H18.062H18.0692H18.0763H18.0835H18.0907H18.0979H18.1051H18.1122H18.1194H18.1266H18.1338H18.1409H18.1481H18.1553H18.1625H18.1696H18.1768H18.184H18.1912H18.1983H18.2055H18.2127H18.2199H18.227H18.2342H18.2414H18.2485H18.2557H18.2629H18.2701H18.2772H18.2844H18.2916H18.2987H18.3059H18.3131H18.3202H18.3274H18.3346H18.3417H18.3489H18.3561H18.3632H18.3704H18.3775H18.3847H18.3919H18.399H18.4062H18.4134H18.4205H18.4277H18.4348H18.442H18.4492H18.4563H18.4635H18.4706H18.4778H18.4849H18.4921H18.4993H18.5064H18.5136H18.5207H18.5279H18.535H18.5422H18.5493H18.5565H18.5636H18.5708H18.5779H18.5851H18.5922H18.5994H18.6065H18.6137H18.6208H18.628H18.6351H18.6423H18.6494H18.6566H18.6637H18.6709H18.678H18.6852H18.6923H18.6995H18.7066H18.7137H18.7209H18.728H18.7352H18.7423H18.7495H18.7566H18.7637H18.7709H18.778H18.7852H18.7923H18.7994H18.8066H18.8137H18.8208H18.828H18.8351H18.8423H18.8494H18.8565H18.8637H18.8708H18.8779H18.8851H18.8922H18.8993H18.9065H18.9136H18.9207H18.9278H18.935H18.9421H18.9492H18.9564H18.9635H18.9706H18.9777H18.9849H18.992H18.9991H19.0062H19.0134H19.0205H19.0276H19.0347H19.0419H19.049H19.0561H19.0632H19.0704H19.0775H19.0846H19.0917H19.0988H19.106H19.1131H19.1202H19.1273H19.1344H19.1415H19.1487H19.1558H19.1629H19.17H19.1771H19.1842H19.1913H19.1985H19.2056H19.2127H19.2198H19.2269H19.234H19.2411H19.2482H19.2553H19.2625H19.2696H19.2767H19.2838H19.2909H19.298H19.3051H19.3122H19.3193H19.3264H19.3335H19.3406H19.3477H19.3548H19.3619H19.369H19.3761H19.3832H19.3903H19.3974H19.4045H19.4116H19.4187H19.4258H19.4329H19.44H19.4471H19.4542H19.4613H19.4684H19.4755H19.4826H19.4897H19.4968H19.5039H19.511H19.518H19.5251H19.5322H19.5393H19.5464H19.5535H19.5606H20.0606V18.6318M24.8617 22.5641L20.0606 18.6318M25.3523 22.6603C25.559 21.6766 25.5231 20.6737 25.4861 19.6418C25.4752 19.3373 25.4642 19.0304 25.4594 18.7206L15.8779 18.164C15.2248 18.164 15 18.3888 15 19.0418V21.1615C15 21.9109 15.0642 22.6282 15.3212 23.3133C16.1669 25.6365 18.383 26.8676 20.7275 26.707C22.9757 26.5678 24.9241 24.8442 25.3523 22.6603ZM20.0606 18.6318H20.0633H20.0704H20.0774H20.0845H20.0916H20.0987H20.1057H20.1128H20.1199H20.1269H20.134H20.1411H20.1482H20.1552H20.1623H20.1694H20.1764H20.1835H20.1906H20.1977H20.2047H20.2118H20.2189H20.2259H20.233H20.2401H20.2471H20.2542H20.2613H20.2683H20.2754H20.2825H20.2896H20.2966H20.3037H20.3108H20.3178H20.3249H20.332H20.339H20.3461H20.3532H20.3602H20.3673H20.3744H20.3814H20.3885H20.3956H20.4026H20.4097H20.4168H20.4238H20.4309H20.438H20.445H20.4521H20.4591H20.4662H20.4733H20.4803H20.4874H20.4945H20.5015H20.5086H20.5157H20.5227H20.5298H20.5369H20.5439H20.551H20.558H20.5651H20.5722H20.5792H20.5863H20.5934H20.6004H20.6075H20.6145H20.6216H20.6287H20.6357H20.6428H20.6499H20.6569H20.664H20.671H20.6781H20.6852H20.6922H20.6993H20.7063H20.7134H20.7205H20.7275H20.7346H20.7417H20.7487H20.7558H20.7628H20.7699H20.777H20.784H20.7911H20.7981H20.8052H20.8123H20.8193H20.8264H20.8334H20.8405H20.8476H20.8546H20.8617H20.8687H20.8758H20.8829H20.8899H20.897H20.904H20.9111H20.9181H20.9252H20.9323H20.9393H20.9464H20.9534H20.9605H20.9676H20.9746H20.9817H20.9887H20.9958H21.0028H21.0099H21.017H21.024H21.0311H21.0381H21.0452H21.0523H21.0593H21.0664H21.0734H21.0805H21.0875H21.0946H21.1017H21.1087H21.1158H21.1228H21.1299H21.1369H21.144H21.1511H21.1581H21.1652H21.1722H21.1793H21.1863H21.1934H21.2005H21.2075H21.2146H21.2216H21.2287H21.2357H21.2428H21.2499H21.2569H21.264H21.271H21.2781H21.2851H21.2922H21.2993H21.3063H21.3134H21.3204H21.3275H21.3345H21.3416H21.3487H21.3557H21.3628H21.3698H21.3769H21.3839H21.391H21.3981H21.4051H21.4122H21.4192H21.4263H21.4333H21.4404H21.4475H21.4545H21.4616H21.4686H21.4757H21.4827H21.4898H21.4969H21.5039H21.511H21.518H21.5251H21.5321H21.5392H21.5463H21.5533H21.5604H21.5674H21.5745H21.5815H21.5886H21.5957H21.6027H21.6098H21.6168H21.6239H21.6309H21.638H21.6451H21.6521H21.6592H21.6662H21.6733H21.6803H21.6874H21.6945H21.7015H21.7086H21.7156H21.7227H21.7298H21.7368H21.7439H21.7509H21.758H21.765H21.7721H21.7792H21.7862H21.7933H21.8003H21.8074H21.8145H21.8215H21.8286H21.8356H21.8427H21.8498H21.8568H21.8639H21.8709H21.878H21.885H21.8921H21.8992H21.9062H21.9133H21.9203H21.9274H21.9345H21.9415H21.9486H21.9556H21.9627H21.9698H21.9768H21.9839H21.9909H21.998H22.0051H22.0121H22.0192H22.0263H22.0333H22.0404H22.0474H22.0545H22.0616H22.0686H22.0757H22.0827H22.0898H22.0969H22.1039H22.111H22.1181H22.1251H22.1322H22.1392H22.1463H22.1534H22.1604H22.1675H22.1746H22.1816H22.1887H22.1957H22.2028H22.2099H22.2169H22.224H22.2311H22.2381H22.2452H22.2523H22.2593H22.2664H22.2734H22.2805H22.2876H22.2946H22.3017H22.3088H22.3158H22.3229H22.33H22.337H22.3441H22.3512H22.3582H22.3653H22.3724H22.3794H22.3865H22.3936H22.4006H22.4077H22.4148H22.4218H22.4289H22.436H22.443H22.4501H22.4572H22.4642H22.4713H22.4784H22.4855H22.4925H22.4996H22.5067H22.5137H22.5208H22.5279H22.5349H22.542H22.5491H22.5561H22.5632H22.5703H22.5774H22.5844H22.5915H22.5986H22.6056H22.6127H22.6198H22.6269H22.6339H22.641H22.6481H22.6551H22.6622H22.6693H22.6764H22.6834H22.6905H22.6976H22.7047H22.7117H22.7188H22.7259H22.733H22.74H22.7471H22.7542H22.7613H22.7683H22.7754H22.7825H22.7896H22.7966H22.8037H22.8108H22.8179H22.8249H22.832H22.8391H22.8462H22.8533H22.8603H22.8674H22.8745H22.8816H22.8887H22.8957H22.9028H22.9099H22.917H22.924H22.9311H22.9382H22.9453H22.9524H22.9595H22.9665H22.9736H22.9807H22.9878H22.9949H23.0019H23.009H23.0161H23.0232H23.0303H23.0374H23.0444H23.0515H23.0586H23.0657H23.0728H23.0799H23.0869H23.094H23.1011H23.1082H23.1153H23.1224H23.1295H23.1366H23.1436H23.1507H23.1578H23.1649H23.172H23.1791C23.449 18.6318 23.7201 18.6396 23.9983 18.6477L24.0058 18.6479C24.2791 18.6558 24.5595 18.664 24.8384 18.664L20.0606 18.6318ZM24.9593 18.7206H24.9594H24.9593ZM24.9593 18.7206L24.9594 18.7285M24.9593 18.7206L24.9594 18.7285M24.9594 18.7285C24.9647 19.0632 24.9761 19.386 24.9872 19.6996L24.9594 18.7285Z" stroke="#150E3F"/>
<path fill-rule="evenodd" clip-rule="evenodd" d="M17.3613 14.4068C17.3934 14.0428 17.629 13.7859 17.9823 13.7859H18.5389C18.8387 13.7859 19.0956 14.0214 19.0956 14.3426C19.1278 15.2311 19.1278 16.0769 19.0956 16.9547C19.0635 17.4472 18.8066 17.5436 18.0251 17.5114C17.6397 17.4793 17.4042 17.2759 17.3613 16.9226V14.4068Z" fill="#150E3F"/>
<path fill-rule="evenodd" clip-rule="evenodd" d="M22.1041 17.5106C22.8535 17.5106 23.1425 17.3821 23.1425 16.9218V14.3096C23.1425 13.9885 22.8856 13.785 22.5537 13.7529H22.0291C21.633 13.7529 21.4082 13.9777 21.4082 14.3739V16.8897C21.451 17.2751 21.6758 17.5106 22.1041 17.5106ZM22.1041 16.8897V17.5106V16.8897Z" fill="#150E3F"/>
<circle cx="20" cy="20" r="10.5" stroke="#150E3F"/>
</svg>
