<svg width="22" height="22" viewBox="0 0 22 22" fill="none" xmlns="http://www.w3.org/2000/svg">
<path opacity="0.5" d="M4.3163 18.0849C4.92462 16.6517 6.34492 15.6465 8 15.6465H14C15.6551 15.6465 17.0754 16.6517 17.6837 18.0849M15 8.14648C15 10.3556 13.2091 12.1465 11 12.1465C8.79086 12.1465 7 10.3556 7 8.14648C7 5.93735 8.79086 4.14648 11 4.14648C13.2091 4.14648 15 5.93735 15 8.14648ZM21 10.6465C21 16.1693 16.5228 20.6465 11 20.6465C5.47715 20.6465 1 16.1693 1 10.6465C1 5.12364 5.47715 0.646484 11 0.646484C16.5228 0.646484 21 5.12364 21 10.6465Z" stroke="#A2A6B4" stroke-linecap="round" stroke-linejoin="round"/>
</svg>
