<svg width="22" height="20" viewBox="0 0 22 20" fill="none" xmlns="http://www.w3.org/2000/svg">
<path opacity="0.5" d="M9.58669 2.7388C9.99311 2.67872 10.4124 2.64648 10.8442 2.64648C15.9492 2.64648 19.299 7.15133 20.4244 8.93331C20.5607 9.14899 20.6288 9.25683 20.6669 9.42316C20.6955 9.54807 20.6955 9.74515 20.6668 9.87006C20.6287 10.0364 20.5601 10.1449 20.4229 10.3621C20.1231 10.8366 19.6659 11.5036 19.0602 12.2269M5.56807 4.36152C3.406 5.82819 1.9382 7.86586 1.26486 8.93177C1.12803 9.14836 1.05962 9.25665 1.02149 9.42297C0.992847 9.54788 0.992836 9.74493 1.02146 9.86984C1.05958 10.0362 1.12768 10.144 1.26388 10.3597C2.38929 12.1416 5.73916 16.6465 10.8442 16.6465C12.9026 16.6465 14.6756 15.9141 16.1326 14.9231M1.84417 0.646484L19.8442 18.6465M8.72285 7.52516C8.17995 8.06806 7.84417 8.81806 7.84417 9.64648C7.84417 11.3033 9.18731 12.6465 10.8442 12.6465C11.6726 12.6465 12.4226 12.3107 12.9655 11.7678" stroke="#A2A6B4" stroke-linecap="round" stroke-linejoin="round"/>
</svg>
