<svg width="20" height="22" viewBox="0 0 20 22" fill="none" xmlns="http://www.w3.org/2000/svg">
<path opacity="0.5" d="M15.625 8.52148V6.27148C15.625 3.16488 13.1066 0.646484 10 0.646484C6.8934 0.646484 4.375 3.16488 4.375 6.27148V8.52148M10 13.584V15.834M6.4 20.8965H13.6C15.4902 20.8965 16.4353 20.8965 17.1572 20.5286C17.7923 20.2051 18.3086 19.6887 18.6321 19.0537C19 18.3317 19 17.3867 19 15.4965V13.9215C19 12.0313 19 11.0862 18.6321 10.3643C18.3086 9.72922 17.7923 9.21291 17.1572 8.88934C16.4353 8.52148 15.4902 8.52148 13.6 8.52148H6.4C4.50982 8.52148 3.56473 8.52148 2.84278 8.88934C2.20774 9.21291 1.69143 9.72922 1.36785 10.3643C1 11.0862 1 12.0313 1 13.9215V15.4965C1 17.3867 1 18.3317 1.36785 19.0537C1.69143 19.6887 2.20774 20.2051 2.84278 20.5286C3.56473 20.8965 4.50982 20.8965 6.4 20.8965Z" stroke="#A2A6B4" stroke-linecap="round" stroke-linejoin="round"/>
</svg>
