<svg width="16" height="16" viewBox="0 0 16 16" fill="none" xmlns="http://www.w3.org/2000/svg">
<path d="M8.00005 10.88V8.00005M8.00005 5.12005H8.00725M0.800049 5.49642V10.5037C0.800049 10.6798 0.800049 10.7678 0.819942 10.8507C0.83758 10.9242 0.866671 10.9944 0.906148 11.0588C0.950674 11.1315 1.01294 11.1937 1.13746 11.3183L4.68184 14.8626C4.80636 14.9872 4.86862 15.0494 4.94128 15.0939C5.0057 15.1334 5.07594 15.1625 5.1494 15.1802C5.23226 15.2 5.32032 15.2 5.49642 15.2H10.5037C10.6798 15.2 10.7678 15.2 10.8507 15.1802C10.9242 15.1625 10.9944 15.1334 11.0588 15.0939C11.1315 15.0494 11.1937 14.9872 11.3183 14.8626L14.8626 11.3183C14.9872 11.1937 15.0494 11.1315 15.0939 11.0588C15.1334 10.9944 15.1625 10.9242 15.1802 10.8507C15.2 10.7678 15.2 10.6798 15.2 10.5037V5.49642C15.2 5.32032 15.2 5.23226 15.1802 5.1494C15.1625 5.07594 15.1334 5.0057 15.0939 4.94128C15.0494 4.86862 14.9872 4.80636 14.8626 4.68184L11.3183 1.13746C11.1937 1.01294 11.1315 0.950674 11.0588 0.906148C10.9944 0.866671 10.9242 0.83758 10.8507 0.819942C10.7678 0.800049 10.6798 0.800049 10.5037 0.800049H5.49642C5.32032 0.800049 5.23226 0.800049 5.1494 0.819942C5.07594 0.83758 5.0057 0.866671 4.94128 0.906148C4.86862 0.950674 4.80636 1.01294 4.68184 1.13746L1.13746 4.68184C1.01294 4.80636 0.950674 4.86862 0.906148 4.94128C0.866671 5.0057 0.83758 5.07594 0.819942 5.1494C0.800049 5.23226 0.800049 5.32032 0.800049 5.49642Z" stroke="#150E3F" stroke-width="0.8" stroke-linecap="round" stroke-linejoin="round"/>
</svg>
