<svg width="18" height="20" viewBox="0 0 18 20" fill="none" xmlns="http://www.w3.org/2000/svg">
<path d="M11 9.1H5M7 12.7H5M13 5.5H5M17 5.32V14.68C17 16.1921 17 16.9482 16.673 17.5258C16.3854 18.0338 15.9265 18.4469 15.362 18.7057C14.7202 19 13.8802 19 12.2 19H5.8C4.11984 19 3.27976 19 2.63803 18.7057C2.07354 18.4469 1.6146 18.0338 1.32698 17.5258C1 16.9482 1 16.1921 1 14.68V5.32C1 3.80786 1 3.05179 1.32698 2.47423C1.6146 1.96619 2.07354 1.55314 2.63803 1.29428C3.27976 1 4.11984 1 5.8 1H12.2C13.8802 1 14.7202 1 15.362 1.29428C15.9265 1.55314 16.3854 1.96619 16.673 2.47423C17 3.05179 17 3.80786 17 5.32Z" stroke="#150E3F" stroke-width="1.5" stroke-linecap="round" stroke-linejoin="round"/>
</svg>
