<svg width="22" height="20" viewBox="0 0 22 20" fill="none" xmlns="http://www.w3.org/2000/svg">
<path d="M1 7H21V5.2C21 4.0799 21 3.51984 20.782 3.09202C20.5903 2.7157 20.2843 2.40974 19.908 2.21799C19.4802 2 18.9201 2 17.8 2H4.2C3.0799 2 2.51984 2 2.09202 2.21799C1.7157 2.40973 1.40973 2.71569 1.21799 3.09202C1 3.51984 1 4.0799 1 5.2V12.8C1 13.9201 1 14.4802 1.21799 14.908C1.40973 15.2843 1.71569 15.5903 2.09202 15.782C2.51984 16 3.0799 16 4.2 16H10M13.5 18L15.525 17.595C15.7015 17.5597 15.7898 17.542 15.8721 17.5097C15.9452 17.4811 16.0147 17.4439 16.079 17.399C16.1516 17.3484 16.2152 17.2848 16.3426 17.1574L20.5 13C21.0523 12.4477 21.0523 11.5523 20.5 11C19.9477 10.4477 19.0523 10.4477 18.5 11L14.3426 15.1574C14.2152 15.2848 14.1516 15.3484 14.101 15.421C14.0561 15.4853 14.0189 15.5548 13.9903 15.6279C13.958 15.7102 13.9403 15.7985 13.905 15.975L13.5 18Z" stroke="#615D75" stroke-width="1.5" stroke-linecap="round" stroke-linejoin="round"/>
</svg>
