<svg width="40" height="40" viewBox="0 0 40 40" fill="none" xmlns="http://www.w3.org/2000/svg">
<rect width="40" height="40" rx="5" fill="#95DFFF"/>
<path d="M21.1677 25.143H25.0407C26.6833 25.143 28.1702 24.4917 29.2479 23.4428M21.1677 25.143L28.7465 14.7632C29.4439 15.305 30.0145 15.9966 30.4064 16.7919C30.7868 17.5584 31 18.4172 31 19.322C31 20.93 30.3315 22.3881 29.2479 23.4428M21.1677 25.143L20.3321 30.9524L21.1677 25.143ZM29.2479 23.4428L28.9173 23.1031L26.6948 9.05751L26.3575 9.39632C27.5359 10.5751 28.2725 12.2104 28.2725 14.0197C28.2725 14.2455 28.2611 14.4685 28.2387 14.6882C28.2302 14.772 28.2201 14.8552 28.2084 14.938M29.2479 23.4428L28.9173 23.1031C29.9067 22.1388 30.526 20.8018 30.526 19.322C30.526 18.4868 30.3281 17.7028 29.985 17.0038L29.9838 17.0016L29.9833 17.0006C29.9833 17.0005 29.9833 17.0005 29.9833 17.0004C29.699 16.4319 29.3182 15.9103 28.851 15.4751L28.4696 15.1197L28.4284 15.0814L28.3955 15.0508L28.2425 14.9082L28.229 14.9586M28.229 14.9586L28.2084 14.938M28.229 14.9586L28.1698 15.1797M28.229 14.9586L28.3584 15.0879C28.3762 15.1057 28.3925 15.1198 28.4053 15.1302C28.4072 15.1318 28.4091 15.1333 28.4109 15.1347L28.4151 15.1389L28.4398 15.1581C28.5763 15.2642 28.7075 15.3765 28.8329 15.4946C29.2942 15.9291 29.6767 16.4422 29.9579 17.0129L29.958 17.0132L29.9585 17.0142C29.9588 17.0149 29.9592 17.0156 29.9595 17.0163C30.306 17.7153 30.5 18.4974 30.5 19.322C30.5 20.7879 29.8912 22.1189 28.8992 23.0845L15.6838 28.1765L15.7382 27.7886L16.6931 20.9738L16.7504 20.5655H17.1622H17.2415V20.5597H21.7268C23.5342 20.5597 25.1688 19.8304 26.3539 18.6468C26.3548 18.6459 26.3558 18.6449 26.3567 18.6439C27.1529 17.8478 27.7475 16.8433 28.0496 15.7175C28.097 15.5411 28.1372 15.3617 28.1698 15.1797M28.2084 14.938L28.1914 14.9209L28.2143 14.6859C28.2358 14.4658 28.2465 14.2457 28.2465 14.0197C28.2465 12.2208 27.5189 10.589 26.3416 9.41145C26.3415 9.41132 26.3414 9.41119 26.3412 9.41106C25.1566 8.23215 23.5299 7.5 21.7268 7.5H16.436H13.8195H13.407L13.4065 7.50714L13.404 7.52484L13.3494 7.91375L10.5774 27.6532L10.5016 28.1932H10.9883V28.199H11.0473H15.0932H15.243H15.6549L15.655 28.1981L15.6585 28.1743L15.6587 28.173L15.713 27.785L16.6671 20.9702L16.7262 20.5474L16.2574 20.4804M28.2084 14.938C28.197 15.019 28.1841 15.0996 28.1698 15.1797M28.1698 15.1797L28.0273 15.7116C27.7284 16.827 27.1358 17.8271 26.3384 18.6255C26.3374 18.6265 26.3364 18.6275 26.3355 18.6284C25.1572 19.8067 23.5249 20.5395 21.7268 20.5395H17.2415V20.0655V20.0597H21.7268C23.3982 20.0597 24.9082 19.3854 26.0032 18.2904C27.0925 17.2011 27.7725 15.6911 27.7725 14.0197C27.7725 12.3484 27.0925 10.8384 26.0032 9.74911C24.9082 8.65408 23.3982 7.97977 21.7268 7.97977H16.436H13.8195L11.1175 27.2192H11.0473V27.7192L11.5425 27.7887L11.5522 27.7192H15.243L16.2574 20.4804M16.2574 20.4804C16.292 20.2384 16.4994 20.0655 16.7415 20.0655V20.5395H16.7274L16.7264 20.5462L16.2574 20.4804ZM16.1306 28.3589C16.0424 28.9562 15.9542 29.4922 15.8796 29.9222H15.7906V30.4222L16.2824 30.5122C16.2877 30.4831 16.2932 30.4531 16.2988 30.4222H19.4272L20.2687 24.5839C20.3022 24.3495 20.4978 24.1745 20.7248 24.169L16.1306 28.3589Z" fill="#150E3F" stroke="#150E3F"/>
</svg>
