<svg width="116" height="19" viewBox="0 0 116 19" fill="none" xmlns="http://www.w3.org/2000/svg">
<path d="M0.888672 18.2784V1.54611H8.66955C10.5364 1.54611 12.013 2.03576 13.0994 3.01506C14.2011 3.97907 14.7519 5.31796 14.7519 7.03174C14.7519 8.74552 14.1858 10.0844 13.0535 11.0484C11.9364 12.0124 10.4292 12.4944 8.53184 12.4944H4.51516V18.2784H0.888672ZM8.50888 4.64469H4.51516V9.48765H8.50888C9.24336 9.48765 9.84778 9.28873 10.3221 8.89089C10.8118 8.49305 11.0566 7.88863 11.0566 7.07765C11.0566 6.29726 10.8271 5.7005 10.368 5.28736C9.92428 4.85891 9.30457 4.64469 8.50888 4.64469Z" fill="#150E3F"/>
<path d="M15.5368 18.2784V5.05783H18.7961L18.9567 7.21536C19.6606 5.6699 20.7088 4.89717 22.1012 4.89717C22.545 4.89717 22.9199 4.95072 23.2259 5.05783V8.36298H23.0882C22.828 8.27117 22.4761 8.22527 22.0324 8.22527C21.2214 8.22527 20.5634 8.43184 20.0584 8.84499C19.5535 9.24283 19.2398 9.80134 19.1174 10.5205V18.2784H15.5368Z" fill="#150E3F"/>
<path d="M24.4533 18.2784V5.05783H28.0109V18.2784H24.4533ZM24.4303 3.22164V0.0541992H28.0339V3.22164H24.4303Z" fill="#150E3F"/>
<path d="M30.2093 18.2784V5.05783H33.3997L33.6522 6.89403C34.1113 6.17485 34.6621 5.6546 35.3048 5.33326C35.9628 4.99663 36.6437 4.82831 37.3476 4.82831C38.2197 4.82831 39.0078 5.03488 39.7117 5.44802C40.4155 5.84587 40.9511 6.45028 41.3183 7.26127C41.7009 6.51149 42.2517 5.92237 42.9709 5.49393C43.6901 5.05018 44.5011 4.82831 45.4039 4.82831C46.8422 4.82831 47.9439 5.24145 48.709 6.06774C49.4894 6.89403 49.8796 7.98044 49.8796 9.32699V18.2784H46.299V10.2451C46.299 9.54121 46.1383 8.9827 45.817 8.56956C45.4957 8.15641 44.9907 7.94984 44.3021 7.94984C43.5677 7.94984 42.9709 8.17171 42.5119 8.61546C42.0528 9.05921 41.8233 9.72483 41.8233 10.6123V18.2784H38.2657V10.3139C38.2657 9.61007 38.105 9.04391 37.7836 8.61546C37.4623 8.17171 36.9497 7.94984 36.2458 7.94984C35.4808 7.94984 34.8763 8.19467 34.4326 8.68432C34.0041 9.17397 33.7899 9.80134 33.7899 10.5664V18.2784H30.2093Z" fill="#150E3F"/>
<path d="M57.5586 18.508C56.2733 18.508 55.1257 18.2402 54.1157 17.7046C53.1058 17.1691 52.3102 16.3963 51.7287 15.3864C51.1625 14.3765 50.8795 13.1524 50.8795 11.714C50.8795 10.3216 51.1472 9.11276 51.6828 8.08755C52.2337 7.04704 52.9987 6.24371 53.978 5.67755C54.9726 5.11139 56.1356 4.82831 57.4668 4.82831C58.8287 4.82831 59.9992 5.13434 60.9785 5.74641C61.9578 6.35847 62.6847 7.24597 63.159 8.40889C63.6334 9.57181 63.794 10.9949 63.641 12.678H54.46C54.5824 13.7645 54.9114 14.5525 55.447 15.0421C55.9978 15.5318 56.717 15.7766 57.6045 15.7766C58.3849 15.7766 59.0276 15.6083 59.5325 15.2717C60.0528 14.9197 60.3741 14.4377 60.4965 13.8257L63.5722 14.606C63.3885 15.3864 63.0213 16.0674 62.4704 16.6488C61.9196 17.2303 61.2234 17.6893 60.3818 18.026C59.5402 18.3473 58.5991 18.508 57.5586 18.508ZM57.3979 7.51374C56.6176 7.51374 55.9749 7.75092 55.4699 8.22527C54.965 8.69962 54.636 9.40349 54.483 10.3369H60.0375C60.0222 9.4341 59.7774 8.73787 59.303 8.24822C58.844 7.75857 58.2089 7.51374 57.3979 7.51374Z" fill="#150E3F"/>
<path d="M75.5343 18.508C73.9124 18.508 72.5123 18.179 71.334 17.521C70.1558 16.863 69.2454 15.8914 68.6027 14.606C67.9753 13.3207 67.6616 11.7523 67.6616 9.9008C67.6616 8.14111 67.96 6.62625 68.5568 5.35621C69.1688 4.07088 70.064 3.08392 71.2422 2.39535C72.4204 1.69147 73.8664 1.33954 75.5802 1.33954C77.0186 1.33954 78.2733 1.59201 79.3444 2.09697C80.4155 2.58662 81.2648 3.28284 81.8922 4.18564C82.5348 5.07313 82.925 6.11364 83.0627 7.30717L79.4133 7.81212C79.245 6.77161 78.8318 5.97593 78.1739 5.42507C77.5159 4.85891 76.6437 4.57583 75.5573 4.57583C74.2566 4.57583 73.2467 5.02723 72.5276 5.93002C71.8237 6.81752 71.4717 8.14111 71.4717 9.9008C71.4717 11.6146 71.816 12.9382 72.5046 13.8716C73.1932 14.805 74.2107 15.2717 75.5573 15.2717C76.6743 15.2717 77.5694 14.9886 78.2427 14.4224C78.916 13.8563 79.3291 13.0529 79.4821 12.0124L83.1316 12.4256C82.9939 13.7109 82.5884 14.8126 81.9151 15.7307C81.2418 16.6335 80.3543 17.3221 79.2526 17.7964C78.1662 18.2708 76.9268 18.508 75.5343 18.508Z" fill="#150E3F"/>
<path d="M84.2104 18.2784V0.146009H87.7909V18.2784H84.2104Z" fill="#150E3F"/>
<path d="M94.0189 18.508C92.5959 18.508 91.4712 18.1025 90.6449 17.2915C89.8339 16.4805 89.4285 15.3329 89.4285 13.8486V5.05783H92.9861V13.183C92.9861 14.6673 93.6899 15.4094 95.0977 15.4094C95.8322 15.4094 96.4289 15.1799 96.888 14.7208C97.3623 14.2618 97.6301 13.665 97.6913 12.9305V5.05783H101.249V18.2784H97.9668L97.829 16.4881C97.3853 17.1767 96.8344 17.6893 96.1765 18.026C95.5338 18.3473 94.8146 18.508 94.0189 18.508Z" fill="#150E3F"/>
<path d="M102.873 18.2784V0.146009H106.453V6.84812C106.836 6.15955 107.364 5.6546 108.037 5.33326C108.71 4.99663 109.468 4.82831 110.309 4.82831C111.472 4.82831 112.474 5.11139 113.316 5.67755C114.173 6.24371 114.831 7.04704 115.29 8.08755C115.764 9.11276 116.001 10.3292 116.001 11.737C116.001 13.1141 115.772 14.3153 115.313 15.3405C114.854 16.3504 114.204 17.1308 113.362 17.6817C112.536 18.2325 111.549 18.508 110.401 18.508C109.514 18.508 108.703 18.3243 107.968 17.9571C107.234 17.5746 106.698 17.039 106.361 16.3504L106.155 18.2784H102.873ZM106.453 12.1731C106.453 13.2595 106.713 14.1011 107.234 14.6979C107.754 15.2946 108.481 15.593 109.414 15.593C110.363 15.593 111.09 15.2564 111.595 14.5831C112.115 13.9098 112.375 12.9535 112.375 11.714C112.375 10.4287 112.122 9.4494 111.618 8.77613C111.113 8.08755 110.378 7.74327 109.414 7.74327C108.465 7.74327 107.731 8.05695 107.211 8.68432C106.706 9.29638 106.453 10.1609 106.453 11.2779V12.1731Z" fill="#150E3F"/>
</svg>
