<svg width="131" height="22" viewBox="0 0 131 22" fill="none" xmlns="http://www.w3.org/2000/svg">
<path d="M0.539062 21.1158V2.1525H9.35739C11.4731 2.1525 13.1466 2.70744 14.3779 3.81732C15.6265 4.90985 16.2508 6.42726 16.2508 8.36955C16.2508 10.3118 15.6091 11.8292 14.3258 12.9218C13.0599 14.0143 11.3517 14.5606 9.20131 14.5606H4.64908V21.1158H0.539062ZM9.1753 5.66422H4.64908V11.1529H9.1753C10.0077 11.1529 10.6927 10.9275 11.2303 10.4766C11.7852 10.0257 12.0627 9.34069 12.0627 8.42158C12.0627 7.53714 11.8026 6.86081 11.2823 6.39258C10.7794 5.90701 10.0771 5.66422 9.1753 5.66422Z" fill="#FDFDFF"/>
<path d="M17.1403 21.1158V6.13245H20.8341L21.0162 8.57765C21.8139 6.82613 23.0018 5.95036 24.5799 5.95036C25.0829 5.95036 25.5077 6.01106 25.8546 6.13245V9.87829H25.6985C25.4037 9.77424 25.0048 9.72222 24.5019 9.72222C23.5828 9.72222 22.8371 9.95633 22.2648 10.4246C21.6925 10.8754 21.337 11.5084 21.1983 12.3235V21.1158H17.1403Z" fill="#FDFDFF"/>
<path d="M27.2456 21.1158V6.13245H31.2776V21.1158H27.2456ZM27.2196 4.05143V0.46167H31.3036V4.05143H27.2196Z" fill="#FDFDFF"/>
<path d="M33.7692 21.1158V6.13245H37.3849L37.6711 8.21348C38.1913 7.39841 38.8156 6.80878 39.544 6.44461C40.2897 6.06309 41.0614 5.87233 41.8591 5.87233C42.8476 5.87233 43.7407 6.10644 44.5384 6.57467C45.3362 7.02556 45.9431 7.71056 46.3593 8.62968C46.7929 7.77993 47.4172 7.11227 48.2323 6.6267C49.0473 6.12378 49.9664 5.87233 50.9896 5.87233C52.6197 5.87233 53.8684 6.34056 54.7354 7.27702C55.6199 8.21348 56.0621 9.44475 56.0621 10.9708V21.1158H52.0041V12.0113C52.0041 11.2136 51.822 10.5806 51.4578 10.1124C51.0937 9.64418 50.5214 9.41006 49.741 9.41006C48.9086 9.41006 48.2323 9.66152 47.712 10.1644C47.1917 10.6673 46.9316 11.4217 46.9316 12.4275V21.1158H42.8996V12.0894C42.8996 11.2917 42.7175 10.65 42.3534 10.1644C41.9892 9.66152 41.4082 9.41006 40.6105 9.41006C39.7434 9.41006 39.0584 9.68753 38.5555 10.2425C38.0699 10.7974 37.8271 11.5084 37.8271 12.3755V21.1158H33.7692Z" fill="#FDFDFF"/>
<path d="M64.765 21.3759C63.3083 21.3759 62.0076 21.0725 60.8631 20.4655C59.7185 19.8585 58.8167 18.9828 58.1577 17.8382C57.5161 16.6936 57.1953 15.3063 57.1953 13.6762C57.1953 12.098 57.4988 10.728 58.1057 9.56614C58.73 8.38689 59.5971 7.47645 60.707 6.8348C61.8342 6.19315 63.1522 5.87233 64.6609 5.87233C66.2044 5.87233 67.531 6.21916 68.6409 6.91284C69.7508 7.60651 70.5745 8.61234 71.1121 9.93032C71.6497 11.2483 71.8318 12.8611 71.6584 14.7687H61.2533C61.392 16 61.7649 16.8931 62.3718 17.448C62.9961 18.0029 63.8112 18.2804 64.817 18.2804C65.7015 18.2804 66.4298 18.0897 67.0021 17.7081C67.5917 17.3093 67.9559 16.763 68.0946 16.0693L71.5803 16.9538C71.3722 17.8382 70.956 18.6099 70.3317 19.2689C69.7074 19.9279 68.9184 20.4481 67.9646 20.8297C67.0108 21.1938 65.9442 21.3759 64.765 21.3759ZM64.5829 8.91582C63.6985 8.91582 62.9701 9.18462 62.3978 9.72222C61.8256 10.2598 61.4527 11.0575 61.2793 12.1154H67.5744C67.557 11.0922 67.2796 10.3032 66.742 9.74823C66.2217 9.19329 65.502 8.91582 64.5829 8.91582Z" fill="#FDFDFF"/>
<path d="M85.1375 21.3759C83.2992 21.3759 81.7124 21.0031 80.3771 20.2574C79.0418 19.5117 78.01 18.4105 77.2816 16.9538C76.5706 15.4971 76.2151 13.7195 76.2151 11.6211C76.2151 9.62684 76.5533 7.90999 77.2296 6.47062C77.9233 5.0139 78.9378 3.89536 80.2731 3.11497C81.6084 2.31725 83.2472 1.91838 85.1895 1.91838C86.8196 1.91838 88.2417 2.20453 89.4556 2.77681C90.6695 3.33174 91.632 4.1208 92.343 5.14397C93.0714 6.14979 93.5136 7.32904 93.6697 8.68171L89.5336 9.25399C89.3429 8.07474 88.8746 7.17296 88.1289 6.54866C87.3832 5.90701 86.3948 5.58619 85.1635 5.58619C83.6894 5.58619 82.5449 6.09777 81.7298 7.12094C80.9321 8.12677 80.5332 9.62684 80.5332 11.6211C80.5332 13.5634 80.9234 15.0635 81.7038 16.1214C82.4842 17.1792 83.6374 17.7081 85.1635 17.7081C86.4294 17.7081 87.4439 17.3873 88.207 16.7457C88.97 16.104 89.4382 15.1936 89.6117 14.0143L93.7477 14.4826C93.5916 15.9393 93.132 17.1879 92.369 18.2284C91.606 19.2516 90.6001 20.0319 89.3515 20.5695C88.1203 21.1071 86.7156 21.3759 85.1375 21.3759Z" fill="#FDFDFF"/>
<path d="M94.9703 21.1158V0.565721H99.0283V21.1158H94.9703Z" fill="#FDFDFF"/>
<path d="M106.087 21.3759C104.474 21.3759 103.199 20.9164 102.263 19.9973C101.344 19.0781 100.884 17.7775 100.884 16.0953V6.13245H104.916V15.341C104.916 17.0231 105.714 17.8642 107.309 17.8642C108.142 17.8642 108.818 17.6041 109.338 17.0838C109.876 16.5636 110.179 15.8872 110.249 15.0548V6.13245H114.281V21.1158H110.561L110.405 19.0868C109.902 19.8672 109.278 20.4481 108.532 20.8297C107.804 21.1938 106.988 21.3759 106.087 21.3759Z" fill="#FDFDFF"/>
<path d="M116.121 21.1158V0.565721H120.179V8.16145C120.612 7.38107 121.211 6.80878 121.974 6.44461C122.737 6.06309 123.595 5.87233 124.549 5.87233C125.867 5.87233 127.003 6.19315 127.957 6.8348C128.928 7.47645 129.674 8.38689 130.194 9.56614C130.731 10.728 131 12.1067 131 13.7022C131 15.2629 130.74 16.6243 130.22 17.7862C129.7 18.9307 128.963 19.8152 128.009 20.4395C127.072 21.0638 125.954 21.3759 124.653 21.3759C123.647 21.3759 122.728 21.1678 121.896 20.7516C121.063 20.3181 120.456 19.7111 120.075 18.9307L119.841 21.1158H116.121ZM120.179 14.1964C120.179 15.4277 120.474 16.3815 121.063 17.0578C121.653 17.7341 122.477 18.0723 123.535 18.0723C124.61 18.0723 125.433 17.6908 126.006 16.9278C126.595 16.1647 126.89 15.0808 126.89 13.6762C126.89 12.2194 126.604 11.1096 126.032 10.3465C125.459 9.56614 124.627 9.17595 123.535 9.17595C122.459 9.17595 121.627 9.53146 121.037 10.2425C120.465 10.9361 120.179 11.916 120.179 13.1819V14.1964Z" fill="#FDFDFF"/>
</svg>
