<svg width="17" height="17" viewBox="0 0 17 17" fill="none" xmlns="http://www.w3.org/2000/svg">
<path d="M6.31747 6.24999C6.4938 5.74874 6.84184 5.32607 7.29994 5.05684C7.75804 4.78761 8.29665 4.6892 8.82036 4.77903C9.34407 4.86886 9.81909 5.14114 10.1613 5.54764C10.5035 5.95414 10.6908 6.46863 10.69 6.99999C10.69 8.49999 8.43997 9.24999 8.43997 9.24999M8.5 12.25H8.5075M1 5.89206V11.1079C1 11.2914 1 11.3831 1.02072 11.4694C1.0391 11.546 1.0694 11.6191 1.11052 11.6862C1.1569 11.7619 1.22176 11.8268 1.35147 11.9565L5.04353 15.6485C5.17324 15.7782 5.2381 15.8431 5.31379 15.8895C5.38089 15.9306 5.45405 15.9609 5.53058 15.9793C5.61689 16 5.70861 16 5.89206 16H11.1079C11.2914 16 11.3831 16 11.4694 15.9793C11.546 15.9609 11.6191 15.9306 11.6862 15.8895C11.7619 15.8431 11.8268 15.7782 11.9565 15.6485L15.6485 11.9565C15.7782 11.8268 15.8431 11.7619 15.8895 11.6862C15.9306 11.6191 15.9609 11.546 15.9793 11.4694C16 11.3831 16 11.2914 16 11.1079V5.89206C16 5.70861 16 5.61689 15.9793 5.53058C15.9609 5.45405 15.9306 5.38089 15.8895 5.31379C15.8431 5.2381 15.7782 5.17324 15.6485 5.04353L11.9565 1.35147C11.8268 1.22176 11.7619 1.1569 11.6862 1.11052C11.6191 1.0694 11.546 1.0391 11.4694 1.02072C11.3831 1 11.2914 1 11.1079 1H5.89206C5.70861 1 5.61689 1 5.53058 1.02072C5.45405 1.0391 5.38089 1.0694 5.31379 1.11052C5.2381 1.1569 5.17324 1.22176 5.04353 1.35147L1.35147 5.04353C1.22176 5.17324 1.1569 5.2381 1.11052 5.31379C1.0694 5.38089 1.0391 5.45405 1.02072 5.53058C1 5.61689 1 5.70861 1 5.89206Z" stroke="#C7C5CD" stroke-linecap="round" stroke-linejoin="round"/>
</svg>
