<svg width="17" height="16" viewBox="0 0 17 16" fill="none" xmlns="http://www.w3.org/2000/svg">
<path d="M6.40482 5.84004C6.5741 5.35884 6.90821 4.95308 7.34799 4.69462C7.78777 4.43616 8.30483 4.34168 8.80759 4.42791C9.31035 4.51415 9.76637 4.77554 10.0949 5.16578C10.4234 5.55602 10.6032 6.04994 10.6024 6.56004C10.6024 8.00004 8.44242 8.72004 8.44242 8.72004M8.50005 11.6H8.50725M1.30005 5.49642V10.5037C1.30005 10.6798 1.30005 10.7678 1.31994 10.8507C1.33758 10.9242 1.36667 10.9944 1.40615 11.0588C1.45067 11.1315 1.51294 11.1937 1.63746 11.3183L5.18184 14.8626C5.30636 14.9872 5.36862 15.0494 5.44128 15.0939C5.5057 15.1334 5.57594 15.1625 5.6494 15.1802C5.73226 15.2 5.82032 15.2 5.99642 15.2H11.0037C11.1798 15.2 11.2678 15.2 11.3507 15.1802C11.4242 15.1625 11.4944 15.1334 11.5588 15.0939C11.6315 15.0494 11.6937 14.9872 11.8183 14.8626L15.3626 11.3183C15.4872 11.1937 15.5494 11.1315 15.5939 11.0588C15.6334 10.9944 15.6625 10.9242 15.6802 10.8507C15.7 10.7678 15.7 10.6798 15.7 10.5037V5.49642C15.7 5.32032 15.7 5.23226 15.6802 5.1494C15.6625 5.07594 15.6334 5.0057 15.5939 4.94128C15.5494 4.86862 15.4872 4.80636 15.3626 4.68184L11.8183 1.13746C11.6937 1.01294 11.6315 0.950674 11.5588 0.906148C11.4944 0.866671 11.4242 0.83758 11.3507 0.819942C11.2678 0.800049 11.1798 0.800049 11.0037 0.800049H5.99642C5.82032 0.800049 5.73226 0.800049 5.6494 0.819942C5.57594 0.83758 5.5057 0.866671 5.44128 0.906148C5.36862 0.950674 5.30636 1.01294 5.18184 1.13746L1.63746 4.68184C1.51294 4.80636 1.45067 4.86862 1.40615 4.94128C1.36667 5.0057 1.33758 5.07594 1.31994 5.1494C1.30005 5.23226 1.30005 5.32032 1.30005 5.49642Z" stroke="#150E3F" stroke-width="0.8" stroke-linecap="round" stroke-linejoin="round"/>
</svg>
