<svg width="70" height="70" viewBox="0 0 70 70" fill="none" xmlns="http://www.w3.org/2000/svg">
<rect width="70" height="70" rx="35" fill="#F8F9FA"/>
<path d="M27.5823 21.2803C26.5115 21.2803 25.9752 22.5523 26.7324 23.2962L46.6676 42.8823C47.4248 43.6263 48.7195 43.0994 48.7195 42.0473V22.4612C48.7195 21.809 48.1813 21.2803 47.5176 21.2803H27.5823Z" fill="#0137FC"/>
<path d="M33.9581 46.9294C34.526 47.4872 35.4971 47.0921 35.4971 46.303V35.1562C35.4971 34.6671 35.0934 34.2705 34.5956 34.2705H23.2499C22.4468 34.2705 22.0446 35.2246 22.6125 35.7824L33.9581 46.9294Z" fill="#0137FC"/>
<path d="M26.0568 48.6145C26.4354 48.9865 27.0827 48.723 27.0827 48.197V43.1276C27.0827 42.8015 26.8136 42.5371 26.4817 42.5371H21.3219C20.7865 42.5371 20.5184 43.1731 20.897 43.5451L26.0568 48.6145Z" fill="#0137FC"/>
</svg>
