<svg width="40" height="40" viewBox="0 0 40 40" fill="none" xmlns="http://www.w3.org/2000/svg">
<rect width="40" height="40" rx="5" fill="#FFEB9A"/>
<path d="M14.0356 15.9822L8 19L19.6394 24.8197C19.7977 24.8989 19.8769 24.9384 19.9599 24.954C20.0335 24.9678 20.109 24.9678 20.1825 24.954C20.2656 24.9384 20.3448 24.8989 20.5031 24.8197L32.1425 19L26.1069 15.9822M14.0356 22.0178L8 25.0356L19.6394 30.8553C19.7977 30.9345 19.8769 30.9741 19.9599 30.9897C20.0335 31.0035 20.109 31.0035 20.1825 30.9897C20.2656 30.9741 20.3448 30.9345 20.5031 30.8553L32.1425 25.0356L26.1069 22.0178M8 12.9644L19.6394 7.1447C19.7977 7.06552 19.8769 7.02593 19.9599 7.01035C20.0335 6.99655 20.109 6.99655 20.1825 7.01035C20.2656 7.02593 20.3448 7.06552 20.5031 7.1447L32.1425 12.9644L20.5031 18.7841C20.3448 18.8632 20.2656 18.9028 20.1825 18.9184C20.109 18.9322 20.0335 18.9322 19.9599 18.9184C19.8769 18.9028 19.7977 18.8632 19.6394 18.7841L8 12.9644Z" stroke="#150E3F" stroke-linecap="round" stroke-linejoin="round"/>
</svg>
