<svg width="21" height="20" viewBox="0 0 21 20" fill="none" xmlns="http://www.w3.org/2000/svg">
<path d="M7.89757 3.43175C8.81528 1.14392 9.27413 0 10.0632 0C10.8522 0 11.3111 1.14392 12.2288 3.43175L12.2715 3.53828C12.79 4.8308 13.0492 5.47705 13.5775 5.86985C14.1059 6.26266 14.7994 6.32477 16.1865 6.44899L16.4372 6.47145C18.7073 6.67476 19.8424 6.77641 20.0853 7.49856C20.3281 8.22071 19.4852 8.98761 17.7993 10.5214L17.2367 11.0333C16.3832 11.8097 15.9565 12.198 15.7576 12.7068C15.7205 12.8017 15.6897 12.8989 15.6653 12.9979C15.5346 13.5283 15.6595 14.0915 15.9094 15.2179L15.9872 15.5685C16.4465 17.6386 16.6762 18.6736 16.2752 19.12C16.1254 19.2869 15.9306 19.407 15.7143 19.466C15.1354 19.624 14.3135 18.9542 12.6698 17.6148C11.5904 16.7353 11.0507 16.2955 10.4311 16.1966C10.1874 16.1576 9.939 16.1576 9.69528 16.1966C9.07566 16.2955 8.53597 16.7353 7.45661 17.6148C5.81283 18.9542 4.99094 19.624 4.41204 19.466C4.19572 19.407 4.00099 19.2869 3.85116 19.12C3.4502 18.6736 3.67985 17.6386 4.13913 15.5685L4.21692 15.2179C4.46683 14.0915 4.59179 13.5283 4.46106 12.9979C4.43667 12.8989 4.40583 12.8017 4.36873 12.7068C4.16984 12.198 3.74313 11.8097 2.8897 11.0333L2.32704 10.5214C0.641158 8.98761 -0.201784 8.22071 0.0410909 7.49856C0.283966 6.77641 1.41902 6.67476 3.68914 6.47145L3.9399 6.44899C5.32697 6.32477 6.0205 6.26266 6.54883 5.86985C7.07715 5.47705 7.33638 4.83079 7.85484 3.53828L7.89757 3.43175Z" fill="#FFEB9A"/>
</svg>
