<svg width="79" height="15" viewBox="0 0 79 15" fill="none" xmlns="http://www.w3.org/2000/svg">
<path d="M11.2415 14.8159L7.00362 8.34758L8.96642 6.9647L13.7842 12.9869L11.2415 14.8159ZM4.59473 14.9497L2.00741 13.0761L6.8698 7.05392L8.8326 8.48141L4.59473 14.9497ZM7.44972 8.88289L0 6.83087L0.9814 3.84206L8.20807 6.60783L7.44972 8.88289ZM6.64675 7.76766L6.24527 0.050293H9.36791L9.01103 7.76766H6.64675ZM8.16346 8.9275L7.49432 6.65244L14.721 3.93128L15.6578 6.87548L8.16346 8.9275Z" fill="#150E3F"/>
<path d="M32.2722 14.8159L28.0344 8.34758L29.9972 6.9647L34.8149 12.9869L32.2722 14.8159ZM25.6255 14.9497L23.0381 13.0761L27.9005 7.05392L29.8633 8.48141L25.6255 14.9497ZM28.4805 8.88289L21.0307 6.83087L22.0121 3.84206L29.2388 6.60783L28.4805 8.88289ZM27.6775 7.76766L27.276 0.050293H30.3986L30.0418 7.76766H27.6775ZM29.1942 8.9275L28.5251 6.65244L35.7517 3.93128L36.6885 6.87548L29.1942 8.9275Z" fill="#150E3F"/>
<path d="M53.303 14.8159L49.0651 8.34758L51.0279 6.9647L55.8457 12.9869L53.303 14.8159ZM46.6562 14.9497L44.0689 13.0761L48.9313 7.05392L50.8941 8.48141L46.6562 14.9497ZM49.5112 8.88289L42.0615 6.83087L43.0429 3.84206L50.2695 6.60783L49.5112 8.88289ZM48.7082 7.76766L48.3067 0.050293H51.4294L51.0725 7.76766H48.7082ZM50.2249 8.9275L49.5558 6.65244L56.7825 3.93128L57.7193 6.87548L50.2249 8.9275Z" fill="#150E3F"/>
<path d="M74.3337 14.8159L70.0958 8.34758L72.0586 6.9647L76.8764 12.9869L74.3337 14.8159ZM67.687 14.9497L65.0996 13.0761L69.962 7.05392L71.9248 8.48141L67.687 14.9497ZM70.5419 8.88289L63.0922 6.83087L64.0736 3.84206L71.3003 6.60783L70.5419 8.88289ZM69.739 7.76766L69.3375 0.050293H72.4601L72.1032 7.76766H69.739ZM71.2557 8.9275L70.5865 6.65244L77.8132 3.93128L78.75 6.87548L71.2557 8.9275Z" fill="#150E3F"/>
</svg>
