<svg width="69" height="20" viewBox="0 0 69 20" fill="none" xmlns="http://www.w3.org/2000/svg">
<g filter="url(#filter0_d_4461_1338)">
<path d="M12.5997 11.7217L9.35777 6.77345L10.8593 5.71555L14.5449 10.3225L12.5997 11.7217ZM7.51497 11.8241L5.53567 10.3908L9.2554 5.7838L10.7569 6.87583L7.51497 11.8241ZM9.69903 7.18296L4 5.61317L4.75077 3.32673L10.2792 5.44254L9.69903 7.18296ZM9.08477 6.32981L8.77763 0.426025H11.1664L10.8934 6.32981H9.08477ZM10.245 7.21709L9.73316 5.47667L15.2616 3.39498L15.9782 5.64729L10.245 7.21709Z" fill="#150E3F"/>
<path d="M28.6883 11.7217L25.4463 6.77345L26.9478 5.71555L30.6334 10.3225L28.6883 11.7217ZM23.6035 11.8241L21.6242 10.3908L25.3439 5.7838L26.8455 6.87583L23.6035 11.8241ZM25.7875 7.18296L20.0885 5.61317L20.8393 3.32673L26.3677 5.44254L25.7875 7.18296ZM25.1733 6.32981L24.8661 0.426025H27.255L26.982 6.32981H25.1733ZM26.3336 7.21709L25.8217 5.47667L31.3501 3.39498L32.0667 5.64729L26.3336 7.21709Z" fill="#150E3F"/>
<path d="M44.7768 11.7217L41.5348 6.77345L43.0363 5.71555L46.7219 10.3225L44.7768 11.7217ZM39.692 11.8241L37.7127 10.3908L41.4324 5.7838L42.934 6.87583L39.692 11.8241ZM41.8761 7.18296L36.177 5.61317L36.9278 3.32673L42.4562 5.44254L41.8761 7.18296ZM41.2618 6.32981L40.9547 0.426025H43.3435L43.0705 6.32981H41.2618ZM42.4221 7.21709L41.9102 5.47667L47.4386 3.39498L48.1552 5.64729L42.4221 7.21709Z" fill="#150E3F"/>
<path d="M60.8653 11.7217L57.6233 6.77345L59.1249 5.71555L62.8105 10.3225L60.8653 11.7217ZM55.7805 11.8241L53.8012 10.3908L57.5209 5.7838L59.0225 6.87583L55.7805 11.8241ZM57.9646 7.18296L52.2655 5.61317L53.0163 3.32673L58.5447 5.44254L57.9646 7.18296ZM57.3503 6.32981L57.0432 0.426025H59.432L59.159 6.32981H57.3503ZM58.5106 7.21709L57.9987 5.47667L63.5271 3.39498L64.2438 5.64729L58.5106 7.21709Z" fill="#150E3F"/>
</g>
<defs>
<filter id="filter0_d_4461_1338" x="0" y="0.426025" width="68.2437" height="19.3979" filterUnits="userSpaceOnUse" color-interpolation-filters="sRGB">
<feFlood flood-opacity="0" result="BackgroundImageFix"/>
<feColorMatrix in="SourceAlpha" type="matrix" values="0 0 0 0 0 0 0 0 0 0 0 0 0 0 0 0 0 0 127 0" result="hardAlpha"/>
<feOffset dy="4"/>
<feGaussianBlur stdDeviation="2"/>
<feComposite in2="hardAlpha" operator="out"/>
<feColorMatrix type="matrix" values="0 0 0 0 0 0 0 0 0 0 0 0 0 0 0 0 0 0 0.25 0"/>
<feBlend mode="normal" in2="BackgroundImageFix" result="effect1_dropShadow_4461_1338"/>
<feBlend mode="normal" in="SourceGraphic" in2="effect1_dropShadow_4461_1338" result="shape"/>
</filter>
</defs>
</svg>
