<svg width="20" height="20" viewBox="0 0 20 20" fill="none" xmlns="http://www.w3.org/2000/svg">
<path fill-rule="evenodd" clip-rule="evenodd" d="M10 1C9.49372 1 9.02754 1.12582 8.51712 1.33691C8.02425 1.54074 7.45181 1.84115 6.73899 2.21523L5.00804 3.12359C4.13319 3.58268 3.43306 3.95008 2.89249 4.31109C2.33245 4.68509 1.90111 5.07889 1.58699 5.61234C1.27392 6.14399 1.13308 6.71968 1.06554 7.40526C0.999988 8.07072 0.999993 8.88915 1 9.91843V10.0816C0.999993 11.1108 0.999988 11.9293 1.06554 12.5947C1.13308 13.2803 1.27392 13.856 1.58699 14.3877C1.90111 14.9211 2.33245 15.3149 2.89249 15.6889C3.43306 16.0499 4.13318 16.4173 5.00803 16.8764L6.73891 17.7847C7.45177 18.1588 8.02423 18.4593 8.51712 18.6631C9.02754 18.8742 9.49372 19 10 19C10.5063 19 10.9725 18.8742 11.4829 18.6631C11.9757 18.4593 12.5482 18.1589 13.261 17.7848L14.9919 16.8764C15.8668 16.4173 16.5669 16.0499 17.1075 15.6889C17.6675 15.3149 18.0989 14.9211 18.413 14.3877C18.7261 13.856 18.8669 13.2803 18.9345 12.5947C19 11.9293 19 11.1109 19 10.0816V9.91841C19 8.88914 19 8.07071 18.9345 7.40526C18.8669 6.71968 18.7261 6.14399 18.413 5.61234C18.0989 5.07889 17.6675 4.68509 17.1075 4.31109C16.5669 3.95008 15.8668 3.58268 14.9919 3.12358L13.261 2.21524C12.5482 1.84116 11.9758 1.54074 11.4829 1.33691C10.9725 1.12582 10.5063 1 10 1ZM7.29648 3.3409C8.04136 2.95001 8.56335 2.67676 8.99705 2.4974C9.41917 2.32283 9.71573 2.25581 10 2.25581C10.2843 2.25581 10.5808 2.32283 11.003 2.4974C11.4367 2.67676 11.9586 2.95001 12.7035 3.3409L14.3779 4.2196C15.2902 4.69835 15.9312 5.03562 16.4101 5.35543C16.6463 5.51321 16.832 5.65972 16.9819 5.80704L14.1934 7.20128L7.07726 3.45594L7.29648 3.3409ZM5.76762 4.14321L5.62207 4.21959C4.70976 4.69835 4.06882 5.03562 3.58992 5.35543C3.35366 5.51322 3.168 5.65972 3.01812 5.80704L10 9.29798L12.8107 7.89265L5.94011 4.27658C5.87336 4.24145 5.81556 4.19599 5.76762 4.14321ZM2.41294 6.90849C2.37066 7.08756 2.3387 7.2909 2.31531 7.52837C2.25652 8.12515 2.25581 8.88183 2.25581 9.95103V10.049C2.25581 11.1182 2.25652 11.8749 2.31531 12.4716C2.37281 13.0553 2.48204 13.4327 2.66912 13.7504C2.85515 14.0664 3.12423 14.3336 3.58992 14.6446C4.06882 14.9644 4.70976 15.3016 5.62207 15.7804L7.29648 16.6591C8.04136 17.05 8.56335 17.3232 8.99705 17.5026C9.13399 17.5592 9.25771 17.6045 9.37209 17.6399V10.3881L2.41294 6.90849ZM10.6279 17.6399C10.7423 17.6045 10.866 17.5592 11.003 17.5026C11.4367 17.3232 11.9586 17.05 12.7035 16.6591L14.3779 15.7804C15.2902 15.3016 15.9312 14.9644 16.4101 14.6446C16.8758 14.3336 17.1449 14.0664 17.3309 13.7504C17.518 13.4327 17.6272 13.0553 17.6847 12.4716C17.7435 11.8749 17.7442 11.1182 17.7442 10.049V9.95103C17.7442 8.88183 17.7435 8.12515 17.6847 7.52837C17.6613 7.29089 17.6293 7.08756 17.5871 6.90849L14.8139 8.29504V10.8372C14.8139 11.184 14.5328 11.4651 14.186 11.4651C13.8393 11.4651 13.5581 11.184 13.5581 10.8372V8.92295L10.6279 10.3881V17.6399Z" fill="#2F80ED"/>
</svg>
