<svg width="20" height="20" viewBox="0 0 20 20" fill="none" xmlns="http://www.w3.org/2000/svg">
<path d="M17.6733 5.91619C17.681 5.86725 17.6835 5.81815 17.6809 5.76964C17.7268 5.83349 17.7696 5.89928 17.8098 5.96753C17.8791 6.08518 17.9387 6.20713 17.9898 6.33596C17.9566 6.31258 17.9211 6.29196 17.8837 6.27446C17.7797 6.22577 17.6667 6.20408 17.5548 6.20924C17.6153 6.12306 17.6564 6.02315 17.6733 5.91619ZM10.2125 18.2033C10.2513 18.2319 10.2926 18.2562 10.3356 18.276C10.223 18.292 10.112 18.3 10 18.3C9.88804 18.3 9.77703 18.292 9.66442 18.276C9.70743 18.2562 9.74871 18.2319 9.78754 18.2033C9.87891 18.1359 9.95117 18.0484 10 17.9493C10.0488 18.0484 10.1211 18.1359 10.2125 18.2033ZM2.11628 6.27446C2.07888 6.29197 2.04342 6.31258 2.01018 6.33596C2.06135 6.20714 2.12089 6.08518 2.19018 5.96753C2.23036 5.89929 2.27324 5.83348 2.31911 5.76964C2.31652 5.81815 2.31896 5.86725 2.32669 5.91619C2.34357 6.02315 2.3847 6.12306 2.4452 6.20924C2.33329 6.20408 2.22034 6.22578 2.11628 6.27446ZM6.2766 3.66264C6.16982 3.54951 6.03196 3.47837 5.88614 3.45332L6.44218 3.16152C6.40018 3.25208 6.37732 3.3521 6.37726 3.45552C6.3772 3.55894 6.39994 3.65899 6.44183 3.7496L6.2766 3.66264ZM13.5106 7.89994C13.5117 7.79412 13.4889 7.69164 13.4461 7.59899L13.8674 7.82072C13.9823 7.88121 14.11 7.90768 14.2361 7.89998C14.158 8.01424 14.1139 8.1513 14.1139 8.29504V8.49742C14.063 8.43079 13.9997 8.37294 13.9261 8.32749C13.7732 8.23299 13.5921 8.20214 13.4203 8.23665C13.4773 8.13566 13.5094 8.02028 13.5106 7.89994ZM9.95222 9.99635C9.98403 9.99852 10.016 9.99852 10.0478 9.99635C10.03 10.0227 10.014 10.0502 10 10.0787C9.98595 10.0502 9.96998 10.0227 9.95222 9.99635Z" stroke="#615D75" stroke-width="1.4" stroke-linecap="round" stroke-linejoin="round"/>
</svg>
