<svg width="112" height="38" viewBox="0 0 112 38" fill="none" xmlns="http://www.w3.org/2000/svg">
<mask id="path-1-inside-1_4341_261" fill="white">
<path fill-rule="evenodd" clip-rule="evenodd" d="M2.28291 0C1.02209 0 0 1.02209 0 2.2829V22.8291C0 24.0899 1.02209 25.112 2.2829 25.112H47.8476L54.8456 36.898C55.1404 37.3946 55.8594 37.3946 56.1542 36.898L63.1522 25.112H108.819C110.079 25.112 111.101 24.0899 111.101 22.8291V2.28291C111.101 1.02209 110.079 0 108.819 0H2.28291Z"/>
</mask>
<path fill-rule="evenodd" clip-rule="evenodd" d="M2.28291 0C1.02209 0 0 1.02209 0 2.2829V22.8291C0 24.0899 1.02209 25.112 2.2829 25.112H47.8476L54.8456 36.898C55.1404 37.3946 55.8594 37.3946 56.1542 36.898L63.1522 25.112H108.819C110.079 25.112 111.101 24.0899 111.101 22.8291V2.28291C111.101 1.02209 110.079 0 108.819 0H2.28291Z" fill="#31266B"/>
<path d="M47.8476 25.112L48.4938 24.7283L48.2754 24.3605H47.8476V25.112ZM54.8456 36.898L54.1994 37.2816H54.1994L54.8456 36.898ZM56.1542 36.898L56.8004 37.2816H56.8004L56.1542 36.898ZM63.1522 25.112V24.3605H62.7244L62.506 24.7283L63.1522 25.112ZM0.751469 2.2829C0.751469 1.43712 1.43712 0.751469 2.28291 0.751469V-0.751469C0.607068 -0.751469 -0.751469 0.607064 -0.751469 2.2829H0.751469ZM0.751469 22.8291V2.2829H-0.751469V22.8291H0.751469ZM2.2829 24.3605C1.43712 24.3605 0.751469 23.6749 0.751469 22.8291H-0.751469C-0.751469 24.5049 0.607063 25.8634 2.2829 25.8634V24.3605ZM47.8476 24.3605H2.2829V25.8634H47.8476V24.3605ZM47.2015 25.4956L54.1994 37.2816L55.4917 36.5143L48.4938 24.7283L47.2015 25.4956ZM54.1994 37.2816C54.7855 38.2687 56.2143 38.2687 56.8004 37.2816L55.5081 36.5143C55.5056 36.5184 55.5043 36.5195 55.5048 36.5191C55.5051 36.5188 55.5057 36.5183 55.5061 36.5181C55.5068 36.5177 55.5046 36.519 55.4999 36.519C55.4952 36.519 55.493 36.5177 55.4937 36.5181C55.4941 36.5183 55.4947 36.5188 55.495 36.5191C55.4955 36.5195 55.4942 36.5184 55.4917 36.5143L54.1994 37.2816ZM56.8004 37.2816L63.7983 25.4956L62.506 24.7283L55.5081 36.5143L56.8004 37.2816ZM108.819 24.3605H63.1522V25.8634H108.819V24.3605ZM110.35 22.8291C110.35 23.6749 109.664 24.3605 108.819 24.3605V25.8634C110.494 25.8634 111.853 24.5049 111.853 22.8291H110.35ZM110.35 2.28291V22.8291H111.853V2.28291H110.35ZM108.819 0.751469C109.664 0.751469 110.35 1.43712 110.35 2.28291H111.853C111.853 0.607068 110.494 -0.751469 108.819 -0.751469V0.751469ZM2.28291 0.751469H108.819V-0.751469H2.28291V0.751469Z" fill="url(#paint0_linear_4341_261)" fill-opacity="0.4" mask="url(#path-1-inside-1_4341_261)"/>
<defs>
<linearGradient id="paint0_linear_4341_261" x1="55.5507" y1="39.9741" x2="55.5507" y2="0" gradientUnits="userSpaceOnUse">
<stop stop-color="white"/>
<stop offset="1" stop-color="#999999" stop-opacity="0"/>
</linearGradient>
</defs>
</svg>
