<svg width="27" height="29" viewBox="0 0 27 29" fill="none" xmlns="http://www.w3.org/2000/svg">
<path fill-rule="evenodd" clip-rule="evenodd" d="M13.2312 18.0884C12.9037 18.0274 12.5761 17.9622 12.2491 17.8933C13.3242 19.3436 14.3584 20.7904 15.1364 21.9927C16.2219 23.67 16.8105 25.1275 16.7271 26.3572C16.6819 27.0238 16.4368 27.6303 15.9785 28.1011C15.5369 28.5547 14.987 28.7908 14.4752 28.9056C13.4848 29.1276 12.3686 28.9591 11.4522 28.6785C10.5303 28.3962 9.57709 27.9285 8.92811 27.3315C8.02092 26.4968 6.51321 24.5282 5.0769 22.5503C3.6035 20.5213 2.09637 18.328 1.1569 16.9254L1.14815 16.9123L1.13972 16.8991C0.889988 16.5066 0.612647 16.0277 0.397406 15.5445C0.204271 15.1109 -0.0307874 14.4781 0.00332646 13.8464C0.0221228 13.4984 0.128899 13.0466 0.476048 12.6592C0.831299 12.2627 1.29277 12.0952 1.70417 12.047C2.43302 11.9615 3.2736 12.2145 4.13729 12.5848C4.43132 12.7108 4.77804 12.8299 5.13002 12.9672C5.02587 12.8324 4.94822 12.7231 4.86806 12.6179C4.77664 12.498 4.67719 12.3993 4.61555 12.3149L4.6061 12.2905C4.567 12.2369 4.47371 12.1389 4.41253 12.0303C4.41327 12.0317 4.41358 12.0324 4.41358 12.0324C4.41358 12.0324 4.40141 12.0371 4.39725 12.0311C4.38711 12.0165 4.37367 11.975 4.32952 11.9149C4.2556 11.8143 4.15823 11.6861 4.03333 11.5218L4.03303 11.5214L4.03249 11.5207C3.78719 11.1978 3.46052 10.7678 3.11024 10.2738C2.41961 9.29986 1.58632 8.008 1.06328 6.68366C0.565229 5.42259 0.197973 3.75134 1.02649 2.30643C1.88599 0.807492 3.68124 0.131179 6.07265 0.0262944C15.5145 -0.387815 21.887 4.23725 23.9364 6.64302C24.8821 7.75319 26.0937 9.44769 26.4672 11.3516C26.6598 12.3331 26.6355 13.4008 26.2099 14.4605C25.7842 15.5205 24.999 16.4679 23.8424 17.2774C22.5183 18.2041 20.7644 18.5495 18.9907 18.6123C17.1874 18.6762 15.1895 18.4531 13.2312 18.0884ZM3.17245 15.0861C4.42486 15.6179 6.15073 16.2476 8.08716 16.827C9.78439 19.0422 11.6792 21.5821 12.8871 23.4484C13.907 25.0245 14.0756 25.8552 14.0539 26.1758C14.0529 26.1908 14.0508 26.2027 14.0491 26.2128C14.0474 26.2225 14.046 26.2306 14.046 26.2383C14.046 26.2542 13.975 26.2719 13.8891 26.2911C13.5355 26.3704 12.9313 26.3293 12.2367 26.1166C11.5477 25.9056 10.9994 25.5963 10.7422 25.3597C10.0733 24.7443 8.73091 23.0223 7.2449 20.9759C5.80066 18.9871 4.31814 16.8301 3.39197 15.4477C3.317 15.3295 3.24301 15.208 3.17245 15.0861ZM21.8968 8.38048C20.3211 6.53082 14.7155 2.32914 6.19005 2.70306C4.08962 2.79518 3.51089 3.36007 3.35083 3.63921C3.15979 3.97237 3.12742 4.61606 3.5553 5.69945C3.95819 6.71957 4.64186 7.80171 5.29584 8.72396C5.61787 9.17808 5.92042 9.57666 6.16582 9.89962L6.17745 9.91492C6.29313 10.0672 6.40187 10.2103 6.48902 10.3289C6.55515 10.419 6.65087 10.5506 6.72697 10.6804C6.73364 10.6899 6.74519 10.7062 6.76299 10.7306C6.80837 10.7927 6.87442 10.8807 6.96213 10.9958C7.13679 11.2249 7.38011 11.5388 7.6792 11.9235C7.78273 12.0567 7.89264 12.1979 8.00821 12.3464C8.485 12.9591 9.05819 13.6957 9.67723 14.499C10.9763 14.8651 12.353 15.1994 13.7218 15.4543C15.5713 15.7988 17.3589 15.9891 18.8958 15.9347C20.4622 15.8792 21.6032 15.5742 22.306 15.0823C23.1195 14.5129 23.5262 13.9533 23.7236 13.462C23.921 12.9703 23.9508 12.4423 23.838 11.8675C23.6009 10.6587 22.7635 9.39801 21.8968 8.38048Z" fill="#FDFDFF"/>
</svg>
