<svg width="40" height="40" viewBox="0 0 40 40" fill="none" xmlns="http://www.w3.org/2000/svg">
<rect width="40" height="40" rx="5" fill="#BFF2C1"/>
<path d="M8.5 20.1C8.5 19.8239 8.27614 19.6 8 19.6C7.72386 19.6 7.5 19.8239 7.5 20.1H8.5ZM29.5 20.1C29.5 20.3761 29.7239 20.6 30 20.6C30.2761 20.6 30.5 20.3761 30.5 20.1H29.5ZM10.6405 12.95L11.0005 13.297L11.0107 13.2864L11.0203 13.2752L10.6405 12.95ZM27.3595 27.25L27.7394 27.5752L27.7455 27.568L27.7514 27.5605L27.3595 27.25ZM9.88896 8.00223C9.89019 7.72609 9.66734 7.50124 9.3912 7.5C9.11506 7.49877 8.8902 7.72163 8.88897 7.99777L9.88896 8.00223ZM9.37922 10.1843L8.87922 10.1821L9.37922 10.1843ZM13.4272 14.2323L13.4295 14.7323L13.4272 14.2323ZM15.6137 14.7225C15.8899 14.7213 16.1127 14.4964 16.1115 14.2203C16.1103 13.9442 15.8854 13.7213 15.6093 13.7225L15.6137 14.7225ZM9.82862 13.3929L9.4332 13.6989L9.4332 13.6989L9.82862 13.3929ZM10.2186 13.7829L9.91255 14.1783L9.91256 14.1783L10.2186 13.7829ZM28.0226 32.1093C28.0213 32.3855 28.2442 32.6103 28.5203 32.6115C28.7965 32.6128 29.0213 32.3899 29.0225 32.1138L28.0226 32.1093ZM28.5323 29.9273L29.0323 29.9295L28.5323 29.9273ZM24.4843 25.8793L24.4821 25.3793L24.4843 25.8793ZM22.2978 25.389C22.0216 25.3902 21.7988 25.6151 21.8 25.8912C21.8012 26.1674 22.0261 26.3902 22.3022 26.389L22.2978 25.389ZM28.0829 26.7186L28.4783 26.4126V26.4126L28.0829 26.7186ZM27.6929 26.3287L27.999 25.9332V25.9332L27.6929 26.3287ZM10.0125 13.6015L9.6592 13.9554L10.0125 13.6015ZM19 30.6C13.201 30.6 8.5 25.899 8.5 20.1H7.5C7.5 26.4513 12.6487 31.6 19 31.6V30.6ZM19 9.6C24.799 9.6 29.5 14.301 29.5 20.1H30.5C30.5 13.7487 25.3513 8.6 19 8.6V9.6ZM11.0203 13.2752C12.9468 11.0248 15.8068 9.6 19 9.6V8.6C15.5024 8.6 12.3691 10.162 10.2606 12.6248L11.0203 13.2752ZM26.9797 26.9248C25.0532 29.1752 22.1932 30.6 19 30.6V31.6C22.4976 31.6 25.6309 30.038 27.7394 27.5752L26.9797 26.9248ZM8.88897 7.99777L8.87922 10.1821L9.87921 10.1865L9.88896 8.00223L8.88897 7.99777ZM13.4295 14.7323L15.6137 14.7225L15.6093 13.7225L13.425 13.7323L13.4295 14.7323ZM8.87922 10.1821C8.87539 11.0413 8.87157 11.7279 8.93106 12.2727C8.99166 12.8275 9.12308 13.2982 9.4332 13.6989L10.224 13.0869C10.0731 12.8919 9.97594 12.6292 9.92515 12.1641C9.87327 11.689 9.87528 11.0692 9.87921 10.1865L8.87922 10.1821ZM13.425 13.7323C12.5423 13.7362 11.9225 13.7382 11.4474 13.6863C10.9823 13.6356 10.7196 13.5384 10.5246 13.3875L9.91256 14.1783C10.3133 14.4884 10.784 14.6198 11.3388 14.6804C11.8836 14.7399 12.5702 14.7361 13.4295 14.7323L13.425 13.7323ZM29.0225 32.1138L29.0323 29.9295L28.0323 29.925L28.0226 32.1093L29.0225 32.1138ZM24.4821 25.3793L22.2978 25.389L22.3022 26.389L24.4865 26.3793L24.4821 25.3793ZM29.0323 29.9295C29.0361 29.0703 29.0399 28.3836 28.9804 27.8388C28.9199 27.284 28.7884 26.8133 28.4783 26.4126L27.6875 27.0246C27.8384 27.2197 27.9356 27.4823 27.9864 27.9474C28.0382 28.4225 28.0362 29.0423 28.0323 29.925L29.0323 29.9295ZM24.4865 26.3793C25.3692 26.3753 25.989 26.3733 26.4641 26.4252C26.9292 26.476 27.1919 26.5731 27.3869 26.7241L27.999 25.9332C27.5982 25.6231 27.1276 25.4917 26.5727 25.4311C26.0279 25.3716 25.3413 25.3754 24.4821 25.3793L24.4865 26.3793ZM9.4332 13.6989C9.50308 13.7892 9.57857 13.8749 9.6592 13.9554L10.3657 13.2477C10.3152 13.1972 10.2679 13.1435 10.224 13.0869L9.4332 13.6989ZM9.6592 13.9554C9.73881 14.0349 9.82341 14.1093 9.91255 14.1783L10.5246 13.3875C10.4687 13.3442 10.4156 13.2975 10.3657 13.2477L9.6592 13.9554ZM10.2805 12.603L9.65247 13.2545L10.3725 13.9485L11.0005 13.297L10.2805 12.603ZM28.4783 26.4126C28.4177 26.3343 28.3529 26.2595 28.2842 26.1886L27.5658 26.8842C27.6089 26.9286 27.6495 26.9755 27.6875 27.0246L28.4783 26.4126ZM28.2842 26.1886C28.1954 26.0969 28.1001 26.0115 27.999 25.9332L27.3869 26.7241C27.4504 26.7732 27.5101 26.8267 27.5658 26.8842L28.2842 26.1886ZM27.7514 27.5605L28.3169 26.8469L27.5331 26.2258L26.9676 26.9395L27.7514 27.5605Z" fill="#150E3F"/>
</svg>
